<svg width="20" height="20" viewBox="0 0 20 20" fill="none" xmlns="http://www.w3.org/2000/svg">
<path d="M8 7.48C8 6.38 8.88889 5.5 10 5.5C11.1111 5.5 12 6.38 12 7.48C12 8.25 11.5556 8.8 11 9.24C10 9.9 10 10.45 10 11" stroke="#0A0C10" strokeWidth="1.5" strokeLinecap="round" stroke-linejoin="round"/>
<path d="M19 10.5294C19 17 17 19 10 19C3 19 1 17 1 10C1 3 3 1 10 1C17 1 19 3 19 10.5294Z" stroke="#0A0C10" strokeWidth="1.5" strokeLinecap="round" stroke-linejoin="round"/>
<path d="M10 15C10.2761 15 10.5 14.7761 10.5 14.5C10.5 14.2239 10.2761 14 10 14C9.72386 14 9.5 14.2239 9.5 14.5C9.5 14.7761 9.72386 15 10 15Z" fill="#0A0C10" stroke="#0A0C10" strokeWidth="1.25" strokeLinecap="round" stroke-linejoin="round"/>
</svg>
