<svg width="79" height="90" viewBox="0 0 79 90" fill="none" xmlns="http://www.w3.org/2000/svg">
<path d="M25.8833 78C25.8166 78 25.7599 77.9767 25.7133 77.93C25.6666 77.8833 25.6433 77.8267 25.6433 77.76V71.25C25.6433 71.1767 25.6666 71.1167 25.7133 71.07C25.7599 71.0233 25.8166 71 25.8833 71H30.4633C30.5366 71 30.5933 71.0233 30.6333 71.07C30.6799 71.1167 30.7033 71.1767 30.7033 71.25V71.95C30.7033 72.0167 30.6799 72.0733 30.6333 72.12C30.5933 72.1667 30.5366 72.19 30.4633 72.19H27.0333V73.79H28.7233C29.4766 73.79 30.0666 73.9767 30.4933 74.35C30.9199 74.7233 31.1333 75.23 31.1333 75.87C31.1333 76.1433 31.0799 76.41 30.9733 76.67C30.8733 76.9233 30.7233 77.15 30.5233 77.35C30.3233 77.55 30.0733 77.71 29.7733 77.83C29.4733 77.9433 29.1233 78 28.7233 78H25.8833ZM27.0333 76.94H28.5833C28.8233 76.94 29.0266 76.89 29.1933 76.79C29.3599 76.69 29.4866 76.5567 29.5733 76.39C29.6599 76.2233 29.7033 76.0433 29.7033 75.85C29.7033 75.5567 29.6099 75.3133 29.4233 75.12C29.2366 74.9267 28.9566 74.83 28.5833 74.83H27.0333V76.94ZM32.2577 79.9C32.191 79.9 32.1343 79.8767 32.0877 79.83C32.041 79.7833 32.0177 79.7267 32.0177 79.66V73.04C32.0177 72.9733 32.041 72.9167 32.0877 72.87C32.1343 72.8233 32.191 72.8 32.2577 72.8H33.0477C33.121 72.8 33.1777 72.8233 33.2177 72.87C33.2643 72.9167 33.2877 72.9733 33.2877 73.04V73.44C33.4477 73.2267 33.6577 73.05 33.9177 72.91C34.1777 72.77 34.501 72.7 34.8877 72.7C35.241 72.7 35.5477 72.7567 35.8077 72.87C36.0677 72.9833 36.2843 73.1467 36.4577 73.36C36.631 73.5667 36.7643 73.8133 36.8577 74.1C36.951 74.3867 37.0043 74.7033 37.0177 75.05C37.0243 75.1633 37.0277 75.28 37.0277 75.4C37.0277 75.52 37.0243 75.64 37.0177 75.76C37.011 76.0933 36.961 76.4033 36.8677 76.69C36.7743 76.97 36.6377 77.2167 36.4577 77.43C36.2843 77.6367 36.0677 77.8 35.8077 77.92C35.5477 78.04 35.241 78.1 34.8877 78.1C34.5277 78.1 34.221 78.0367 33.9677 77.91C33.7143 77.7767 33.5077 77.6033 33.3477 77.39V79.66C33.3477 79.7267 33.3243 79.7833 33.2777 79.83C33.2377 79.8767 33.181 79.9 33.1077 79.9H32.2577ZM34.5177 77.03C34.8043 77.03 35.0277 76.97 35.1877 76.85C35.3477 76.7233 35.461 76.56 35.5277 76.36C35.601 76.16 35.6443 75.94 35.6577 75.7C35.671 75.5 35.671 75.3 35.6577 75.1C35.6443 74.86 35.601 74.64 35.5277 74.44C35.461 74.24 35.3477 74.08 35.1877 73.96C35.0277 73.8333 34.8043 73.77 34.5177 73.77C34.2443 73.77 34.021 73.8333 33.8477 73.96C33.681 74.0867 33.5577 74.25 33.4777 74.45C33.4043 74.6433 33.361 74.8433 33.3477 75.05C33.341 75.17 33.3377 75.2967 33.3377 75.43C33.3377 75.5633 33.341 75.6933 33.3477 75.82C33.3543 76.02 33.401 76.2133 33.4877 76.4C33.5743 76.58 33.701 76.73 33.8677 76.85C34.0343 76.97 34.251 77.03 34.5177 77.03ZM40.4502 78.1C39.9169 78.1 39.4669 78.0067 39.1002 77.82C38.7402 77.6333 38.4636 77.37 38.2702 77.03C38.0836 76.69 37.9769 76.2933 37.9502 75.84C37.9436 75.72 37.9402 75.5733 37.9402 75.4C37.9402 75.2267 37.9436 75.08 37.9502 74.96C37.9769 74.5 38.0869 74.1033 38.2802 73.77C38.4802 73.43 38.7602 73.1667 39.1202 72.98C39.4869 72.7933 39.9302 72.7 40.4502 72.7C40.9702 72.7 41.4102 72.7933 41.7702 72.98C42.1369 73.1667 42.4169 73.43 42.6102 73.77C42.8102 74.1033 42.9236 74.5 42.9502 74.96C42.9569 75.08 42.9602 75.2267 42.9602 75.4C42.9602 75.5733 42.9569 75.72 42.9502 75.84C42.9236 76.2933 42.8136 76.69 42.6202 77.03C42.4336 77.37 42.1569 77.6333 41.7902 77.82C41.4302 78.0067 40.9836 78.1 40.4502 78.1ZM40.4502 77.11C40.8036 77.11 41.0769 77 41.2702 76.78C41.4636 76.5533 41.5702 76.2233 41.5902 75.79C41.5969 75.69 41.6002 75.56 41.6002 75.4C41.6002 75.24 41.5969 75.11 41.5902 75.01C41.5702 74.5833 41.4636 74.2567 41.2702 74.03C41.0769 73.8033 40.8036 73.69 40.4502 73.69C40.0969 73.69 39.8236 73.8033 39.6302 74.03C39.4369 74.2567 39.3302 74.5833 39.3102 75.01C39.3036 75.11 39.3002 75.24 39.3002 75.4C39.3002 75.56 39.3036 75.69 39.3102 75.79C39.3302 76.2233 39.4369 76.5533 39.6302 76.78C39.8236 77 40.0969 77.11 40.4502 77.11ZM44.3082 78C44.2415 78 44.1849 77.9767 44.1382 77.93C44.0915 77.8833 44.0682 77.8267 44.0682 77.76V73.04C44.0682 72.9733 44.0915 72.9167 44.1382 72.87C44.1849 72.8233 44.2415 72.8 44.3082 72.8H46.5282C47.2349 72.8 47.7582 72.93 48.0982 73.19C48.4382 73.45 48.6082 73.8 48.6082 74.24C48.6082 74.52 48.5549 74.7367 48.4482 74.89C48.3415 75.0433 48.1949 75.1767 48.0082 75.29C48.2415 75.3967 48.4215 75.56 48.5482 75.78C48.6815 75.9933 48.7482 76.23 48.7482 76.49C48.7482 76.97 48.5682 77.3433 48.2082 77.61C47.8549 77.87 47.3315 78 46.6382 78H44.3082ZM45.3482 77.1H46.5482C46.8149 77.1 47.0282 77.05 47.1882 76.95C47.3482 76.85 47.4282 76.6933 47.4282 76.48C47.4282 76.26 47.3549 76.1 47.2082 76C47.0615 75.9 46.8415 75.85 46.5482 75.85H45.3482V77.1ZM45.3482 74.92H46.5082C46.7749 74.92 46.9849 74.8667 47.1382 74.76C47.2915 74.6467 47.3682 74.4833 47.3682 74.27C47.3682 74.0567 47.2882 73.91 47.1282 73.83C46.9749 73.7433 46.7682 73.7 46.5082 73.7H45.3482V74.92ZM50.1283 78C50.0683 78 50.0149 77.9767 49.9683 77.93C49.9216 77.8833 49.8983 77.83 49.8983 77.77V73.04C49.8983 72.9733 49.9216 72.9167 49.9683 72.87C50.0149 72.8233 50.0716 72.8 50.1383 72.8H50.9683C51.0416 72.8 51.0983 72.8233 51.1383 72.87C51.1849 72.9167 51.2083 72.9733 51.2083 73.04V76.99L50.8583 76.74L53.6083 72.96C53.6416 72.9133 53.6783 72.8767 53.7183 72.85C53.7583 72.8167 53.8116 72.8 53.8783 72.8H54.6383C54.6983 72.8 54.7516 72.8233 54.7983 72.87C54.8449 72.91 54.8683 72.96 54.8683 73.02V77.76C54.8683 77.8267 54.8449 77.8833 54.7983 77.93C54.7516 77.9767 54.6949 78 54.6283 78H53.7983C53.7249 78 53.6649 77.9767 53.6183 77.93C53.5783 77.8833 53.5583 77.8267 53.5583 77.76V73.99L53.9283 74.04L51.1583 77.84C51.1316 77.88 51.0949 77.9167 51.0483 77.95C51.0083 77.9833 50.9549 78 50.8883 78H50.1283Z" fill="#282828"/>
<g clip-path="url(#clip0_750_9901)">
<path d="M27.9945 54.9764C27.4708 54.946 26.944 54.8955 26.4203 54.8381C25.5132 54.737 24.6061 54.6088 23.7052 54.4503C22.636 54.2648 21.57 54.0355 20.5163 53.7489C19.4146 53.4568 18.3325 53.0838 17.2776 52.6326C16.2769 52.2123 15.3241 51.6692 14.4378 51.0139C13.6357 50.4296 12.95 49.6774 12.421 48.8017C11.9226 47.9309 11.6611 46.9257 11.6666 45.9015C11.7096 44.6121 12.0298 43.3512 12.6017 42.219C12.8065 41.775 13.0322 41.3428 13.2782 40.924C21.118 27.6506 29.4128 30.598 32.8231 30.598C36.2333 30.598 33.1628 14.7482 46.118 15.2338C51.6292 15.4429 57.6516 16.7311 62.3461 20.0326C65.9309 22.5551 67.8979 26.6052 64.8399 30.598C63.1005 32.9047 61.0806 34.955 59.3256 37.2718C57.5784 39.5767 55.6386 41.7023 53.5307 43.6219C51.8738 45.1295 50.1252 46.5153 48.2969 47.7698C46.4322 49.0496 44.4876 50.1877 42.4771 51.1758C40.4701 52.1684 38.3951 52.9915 36.2707 53.6376C34.1691 54.2783 32.0192 54.7162 29.8461 54.946C29.2304 55.005 28.6116 55.0152 27.9945 54.9764Z" fill="#ECEEFD"/>
<path d="M32.4644 36.3579C32.4083 36.159 32.3397 35.9634 32.2992 35.7576C32.1589 35.0326 31.8067 33.6634 33.6396 32.5371C34.4975 32.0821 35.4058 31.7478 36.3422 31.5423C37.9528 31.0926 39.5768 30.6936 41.2144 30.3451C43.7705 29.7965 46.3401 29.3233 48.9233 28.9254C50.5286 28.6758 52.6639 28.2509 53.8079 28.3116C54.9798 28.3941 56.1249 28.7265 57.1776 29.2896C57.3252 29.3638 57.4717 29.4413 57.6172 29.5223C58.964 30.3074 60.2587 31.1931 61.4918 32.1729C62.201 32.6962 62.8846 33.259 63.5398 33.859C63.8516 34.1558 64.5218 34.5335 64.8958 35.036C65.1047 35.3159 63.5835 34.9888 63.2624 34.8741C63.119 34.8235 62.9756 34.7729 62.8354 34.7325C62.1537 34.5324 61.4648 34.3559 60.7686 34.203C58.8405 33.7617 56.8786 33.5144 54.9083 33.4645C53.2998 33.4341 51.5074 33.9501 49.9395 34.3413C43.5087 35.9499 37.2088 38.1587 36.0648 38.2869C34.9208 38.415 33.0068 38.1857 32.4644 36.3579Z" fill="#282828"/>
<path fill-rule="evenodd" clip-rule="evenodd" d="M53.7191 27.1988C53.7276 27.1986 53.7362 27.1988 53.7447 27.1993C54.0785 27.2202 54.4067 27.2611 54.7295 27.3197C54.8993 27.3506 55.0138 27.5244 54.9853 27.7081C54.9568 27.8918 54.7961 28.0157 54.6263 27.9849C54.329 27.9309 54.0275 27.8931 53.7215 27.8735C53.3089 27.8846 52.8964 27.9041 52.4839 27.931C52.3121 27.9422 52.1644 27.8006 52.154 27.6147C52.1436 27.4288 52.2745 27.269 52.4464 27.2578C52.8701 27.2301 53.2943 27.2101 53.7191 27.1988ZM50.9775 27.7209C50.9954 27.9062 50.8711 28.072 50.6998 28.0914C49.8692 28.1851 49.0392 28.3038 48.2097 28.4399C48.0395 28.4678 47.8806 28.3411 47.8548 28.157C47.8289 27.9728 47.946 27.8009 48.1162 27.773C48.9535 27.6357 49.7932 27.5156 50.6351 27.4205C50.8064 27.4012 50.9597 27.5357 50.9775 27.7209ZM55.7091 27.8993C55.7609 27.7217 55.936 27.6231 56.1002 27.6792C56.725 27.8926 57.3296 28.1651 57.9166 28.4775C58.0711 28.5597 58.1347 28.7618 58.0587 28.9289C57.9827 29.0961 57.7959 29.1649 57.6414 29.0827C57.0775 28.7826 56.5023 28.5238 55.9125 28.3224C55.7484 28.2663 55.6573 28.0769 55.7091 27.8993ZM46.6898 28.3643C46.7195 28.5477 46.6061 28.7225 46.4366 28.7546C45.6098 28.9113 44.784 29.0798 43.959 29.2528C43.79 29.2882 43.6264 29.1687 43.5937 28.9859C43.5609 28.8031 43.6714 28.6261 43.8404 28.5907C44.6673 28.4173 45.497 28.2479 46.329 28.0903C46.4986 28.0581 46.6601 28.1808 46.6898 28.3643ZM42.4352 29.232C42.4685 29.4148 42.3585 29.5921 42.1896 29.628C41.7764 29.716 41.3633 29.8037 40.9506 29.8902C40.6795 29.9495 40.4087 30.0102 40.1381 30.072C39.9696 30.1105 39.8042 29.994 39.7686 29.8118C39.733 29.6296 39.8407 29.4506 40.0092 29.4121C40.2819 29.3498 40.5549 29.2887 40.8282 29.2288L40.8308 29.2283C41.2429 29.1419 41.6557 29.0543 42.0692 28.9663C42.2381 28.9303 42.402 29.0493 42.4352 29.232ZM58.7126 29.3144C58.8001 29.154 58.9911 29.1006 59.1395 29.1952C59.696 29.55 60.2389 29.9316 60.7702 30.3216C60.9127 30.4262 60.9498 30.6359 60.8531 30.79C60.7564 30.9442 60.5626 30.9843 60.4201 30.8797C59.8954 30.4945 59.3643 30.1214 58.8229 29.7762C58.6746 29.6816 58.6252 29.4749 58.7126 29.3144ZM39.214 29.9424C39.2516 30.1241 39.1459 30.3045 38.9779 30.3452C38.4372 30.4762 37.8976 30.6122 37.3591 30.7531C37.1917 30.7969 37.0233 30.6856 36.9828 30.5046C36.9423 30.3236 37.0452 30.1413 37.2125 30.0975C37.7545 29.9557 38.2975 29.8189 38.8417 29.687C39.0097 29.6463 39.1763 29.7606 39.214 29.9424ZM36.4319 30.6526C36.4744 30.8331 36.3736 31.0167 36.2068 31.0626C35.9383 31.1366 35.6702 31.2118 35.4023 31.2883C35.399 31.2892 35.3958 31.2901 35.3925 31.2909C34.9842 31.3923 34.5991 31.4991 34.2391 31.6139C34.0739 31.6665 33.9006 31.5644 33.8519 31.3857C33.8033 31.2071 33.8977 31.0196 34.0628 30.9669C34.4362 30.8479 34.8322 30.7381 35.2481 30.6348C35.5161 30.5583 35.7843 30.4831 36.0529 30.4091C36.2197 30.3631 36.3894 30.4721 36.4319 30.6526ZM61.4641 31.2505C61.5632 31.0983 61.7577 31.0618 61.8984 31.169C61.9897 31.2386 62.0806 31.308 62.1712 31.3771C62.3415 31.5071 62.5107 31.6363 62.6797 31.7645C62.9184 31.9424 63.1546 32.1242 63.3881 32.3098C63.5269 32.42 63.5567 32.6311 63.4548 32.7812C63.3529 32.9313 63.1578 32.9636 63.0191 32.8534C62.7902 32.6715 62.5588 32.4934 62.3249 32.3191L62.3226 32.3174C62.1529 32.1886 61.9823 32.0584 61.8113 31.9279C61.7207 31.8587 61.6301 31.7895 61.5394 31.7204C61.3986 31.6132 61.3649 31.4028 61.4641 31.2505ZM32.8166 31.8028C32.8941 31.9691 32.8323 32.1719 32.6786 32.2557C31.8888 32.6865 31.3718 33.2041 31.1227 33.859C31.0572 34.0312 30.875 34.1133 30.7158 34.0425C30.5566 33.9716 30.4806 33.7745 30.5462 33.6023C30.8727 32.7439 31.5315 32.126 32.3979 31.6535C32.5517 31.5696 32.7391 31.6365 32.8166 31.8028ZM63.9364 33.1814C64.0442 33.0362 64.2404 33.0131 64.3746 33.1297C64.6001 33.3257 64.8228 33.5253 65.0428 33.7286C65.1952 33.8639 65.3446 34.0031 65.4907 34.1461C65.6184 34.2711 65.6282 34.4843 65.5127 34.6225C65.3973 34.7606 65.2001 34.7713 65.0725 34.6463C64.933 34.5099 64.7905 34.377 64.645 34.2479L64.6402 34.2436C64.4243 34.044 64.2055 33.8479 63.9842 33.6555C63.8499 33.5389 63.8285 33.3266 63.9364 33.1814ZM56.2806 34.8504C55.7509 34.8348 55.2212 34.8399 54.6927 34.8656C54.5207 34.874 54.375 34.7299 54.3673 34.5439C54.3596 34.3578 54.4927 34.2002 54.6647 34.1918C55.208 34.1654 55.7524 34.1602 56.2969 34.1761C56.628 34.1842 56.9588 34.1973 57.2894 34.2154C57.4613 34.2248 57.5937 34.3832 57.585 34.5692C57.5763 34.7552 57.4299 34.8984 57.258 34.889C56.9329 34.8712 56.6076 34.8584 56.282 34.8504L56.2806 34.8504ZM58.3672 34.6288C58.3827 34.4433 58.5343 34.3065 58.7057 34.3233C59.3657 34.3879 60.0239 34.4724 60.6795 34.5767C60.8498 34.6038 60.9676 34.7751 60.9426 34.9594C60.9175 35.1437 60.7592 35.2711 60.5888 35.244C59.9447 35.1415 59.298 35.0585 58.6495 34.995C58.4781 34.9783 58.3517 34.8143 58.3672 34.6288ZM52.6976 34.7184C52.7229 34.9026 52.6054 35.0742 52.4351 35.1016C51.9124 35.1858 51.3923 35.2904 50.8757 35.4152C50.495 35.5124 50.1153 35.6108 49.7374 35.71C49.5702 35.754 49.4016 35.6429 49.361 35.4619C49.3204 35.2809 49.4231 35.0986 49.5904 35.0546C49.9701 34.9549 50.3516 34.856 50.7344 34.7583L50.7379 34.7574L50.7379 34.7574C51.2697 34.6289 51.8052 34.5212 52.3433 34.4345C52.5136 34.4071 52.6722 34.5342 52.6976 34.7184ZM65.6595 34.7764C65.7835 34.6472 65.9809 34.6512 66.1003 34.7854C66.2373 34.9394 66.3709 35.097 66.501 35.258C66.531 35.2945 66.5574 35.3337 66.5801 35.3752C66.5972 35.4064 66.6091 35.4393 66.6161 35.4728C66.6332 35.5017 66.6465 35.534 66.6551 35.5691C66.6666 35.6164 66.6739 35.6651 66.6768 35.7145C66.6796 35.7639 66.678 35.8132 66.6721 35.8617C66.6677 35.8976 66.6582 35.9314 66.6445 35.9625C66.6415 35.9967 66.6335 36.0309 66.6201 36.0642C66.6021 36.1091 66.58 36.1522 66.554 36.193C66.5281 36.2337 66.4986 36.2714 66.4662 36.3055C66.4422 36.3308 66.4154 36.3511 66.387 36.3663C66.365 36.3911 66.3391 36.4127 66.3097 36.4299C66.2698 36.4531 66.2278 36.4723 66.1841 36.4869C66.1404 36.5015 66.0957 36.5114 66.0507 36.5166C66.0174 36.5204 65.9848 36.5184 65.9537 36.5114C65.9223 36.5162 65.8896 36.5158 65.8566 36.5096C65.816 36.502 65.7758 36.4904 65.7367 36.475C65.4692 36.3858 65.2005 36.301 64.9308 36.2203C64.7649 36.1707 64.6675 35.985 64.7134 35.8054C64.7593 35.6259 64.931 35.5206 65.0969 35.5702C65.3754 35.6535 65.6528 35.7412 65.9289 35.8333C65.9356 35.8356 65.9423 35.838 65.9488 35.8408C65.9536 35.8427 65.9585 35.8442 65.9634 35.8451C65.967 35.8458 65.9706 35.8465 65.9741 35.8473C65.9777 35.8468 65.9813 35.8463 65.985 35.8459C65.99 35.8453 65.9949 35.8442 65.9998 35.8426C66.0047 35.841 66.0093 35.8388 66.0137 35.8363C66.017 35.8344 66.0202 35.8326 66.0235 35.8308C66.026 35.828 66.0285 35.8252 66.0311 35.8224C66.0347 35.8186 66.038 35.8145 66.0409 35.8099C66.0438 35.8054 66.0462 35.8006 66.0482 35.7956C66.0497 35.792 66.0512 35.7884 66.0528 35.7849C66.0531 35.781 66.0535 35.777 66.054 35.7731C66.0547 35.7677 66.0549 35.7623 66.0545 35.7568C66.0542 35.7513 66.0534 35.7459 66.0521 35.7406C66.0512 35.7368 66.0503 35.733 66.0495 35.7291C66.0476 35.7258 66.0457 35.7225 66.0438 35.7191C66.0412 35.7144 66.0383 35.71 66.0349 35.7059L66.0325 35.703L66.0325 35.703C65.9087 35.5497 65.7816 35.3997 65.6511 35.2532C65.5317 35.119 65.5355 34.9055 65.6595 34.7764ZM61.7159 35.0995C61.7477 34.9164 61.9107 34.7959 62.0799 34.8303C62.4046 34.8964 62.7286 34.9673 63.0517 35.0431C63.3342 35.1045 63.6159 35.1703 63.8966 35.2406C64.0643 35.2826 64.1688 35.4638 64.13 35.6452C64.0912 35.8267 63.9237 35.9397 63.756 35.8977C63.4805 35.8287 63.204 35.7641 62.9266 35.7038L62.9219 35.7028C62.6036 35.6281 62.2846 35.5582 61.9647 35.4932C61.7955 35.4588 61.6841 35.2825 61.7159 35.0995ZM30.6361 35.2369C30.8062 35.2084 30.9655 35.3344 30.9919 35.5185C31.0438 35.8808 31.1401 36.2796 31.2863 36.7193C31.2877 36.7235 31.289 36.7276 31.2902 36.7318C31.4384 37.2391 31.6915 37.6504 32.0079 37.9809C32.1318 38.1103 32.1352 38.3237 32.0156 38.4577C31.896 38.5917 31.6987 38.5954 31.5748 38.4661C31.1912 38.0653 30.8797 37.5612 30.6976 36.9414C30.5417 36.4713 30.4347 36.0324 30.3758 35.6218C30.3494 35.4378 30.4659 35.2655 30.6361 35.2369ZM48.3384 35.7355C48.3804 35.9161 48.2791 36.0993 48.1121 36.1447C47.3401 36.3547 46.5805 36.5661 45.8399 36.7756C45.6733 36.8227 45.503 36.7148 45.4594 36.5346C45.4159 36.3545 45.5156 36.1702 45.6822 36.1231C46.4244 35.9131 47.1859 35.7012 47.9601 35.4906C48.127 35.4452 48.2964 35.5548 48.3384 35.7355ZM44.4415 36.8259C44.4859 37.0058 44.3871 37.1906 44.2208 37.2387C43.4333 37.4663 42.6754 37.6884 41.9558 37.9007C41.7897 37.9497 41.6184 37.8437 41.5731 37.664C41.5278 37.4843 41.6257 37.2989 41.7918 37.25C42.512 37.0375 43.2711 36.815 44.0599 36.5871C44.2262 36.539 44.3971 36.6459 44.4415 36.8259ZM40.5569 37.965C40.6024 38.1446 40.5047 38.3301 40.3387 38.3794L40.3104 38.3878C39.4851 38.6326 38.7323 38.8559 38.0711 39.0482C37.9049 39.0966 37.7338 38.99 37.6891 38.8101C37.6444 38.6303 37.743 38.4452 37.9092 38.3969C38.5689 38.205 39.3203 37.9821 40.1463 37.7371L40.1738 37.7289C40.3399 37.6797 40.5114 37.7854 40.5569 37.965ZM36.6679 39.0996C36.709 39.2805 36.6068 39.4632 36.4396 39.5076C35.9113 39.648 35.5006 39.7439 35.2526 39.7722C34.7856 39.8255 34.2121 39.7875 33.63 39.6349C33.4627 39.591 33.36 39.4087 33.4005 39.2277C33.4411 39.0467 33.6096 38.9355 33.7769 38.9794C34.2957 39.1154 34.7972 39.146 35.1872 39.1015C35.3865 39.0787 35.7571 38.9945 36.2908 38.8526C36.458 38.8082 36.6268 38.9188 36.6679 39.0996Z" fill="#3D4EEA"/>
<path d="M16.311 16.8491C16.889 22.5479 17.8919 28.1867 19.3097 33.7106C19.5779 34.5718 19.7464 35.4655 19.8116 36.3714C19.8895 39.2884 19.8677 42.2055 19.8833 45.1394V45.625L23.8235 45.5677V45.1124C23.8048 42.5731 23.7611 40.0303 23.7829 37.491C23.7582 36.47 23.8556 35.4499 24.0728 34.4559C25.0775 30.5034 25.848 26.4856 26.3796 22.4269C26.6695 20.2754 26.897 18.1171 27.0373 15.9555C27.1776 13.7938 25.8715 11.9526 24.4033 10.2361C24.2969 10.1069 24.15 10.025 23.9911 10.0063C23.8321 9.98761 23.6724 10.0334 23.5429 10.1349C23.4562 10.217 23.3923 10.3235 23.3582 10.4426C23.3241 10.5616 23.3211 10.6886 23.3496 10.8093C23.5082 11.1058 23.7104 11.3723 23.9481 11.5985C25.3509 13.2543 26.0055 15.0753 25.7218 17.0818C25.2636 20.471 24.8708 23.8669 24.2973 27.2459C23.8297 29.9977 23.1439 32.7259 22.5392 35.4642C22.5173 35.562 22.321 35.6902 22.1869 35.7138C21.934 35.7576 21.6762 35.7576 21.4232 35.7138C21.3455 35.6988 21.2716 35.6665 21.2061 35.6189C21.1406 35.5713 21.085 35.5094 21.0429 35.4373C20.566 33.5117 20.0454 31.5895 19.6682 29.647C19.0822 26.6356 18.5616 23.614 18.0878 20.589C17.8536 19.0251 17.6923 17.4493 17.6046 15.8678C17.5675 14.6599 17.9501 13.4807 18.6769 12.5629C19.076 12.0065 19.4874 11.4535 19.8927 10.9004C20.114 10.6003 20.114 10.317 19.7306 10.1147C19.5804 10.0353 19.4097 10.0141 19.2468 10.0546C19.084 10.0951 18.9389 10.1949 18.8359 10.3372C17.1713 12.2898 16.0304 14.384 16.311 16.8491ZM21.6851 36.7693C22.4862 36.8435 22.4986 36.8334 22.5049 37.4708C22.5236 39.0288 22.5267 40.5901 22.5361 42.192H21.1707C21.1707 41.413 21.1707 40.6643 21.1707 39.9157C21.1707 39.0018 21.1707 38.0879 21.1489 37.174C21.1271 36.8098 21.2829 36.7322 21.6851 36.7693ZM21.7973 43.2846C22.5049 43.3251 22.508 43.2846 22.5111 43.8815C22.5111 44.556 22.5111 44.556 21.7817 44.556C21.1832 44.556 21.1582 44.3772 21.1582 44.0906C21.1676 43.966 21.1676 43.8408 21.1582 43.7163C21.1427 43.4431 21.2642 43.2576 21.7973 43.2846Z" fill="#282828"/>
<path d="M21.7975 43.2846C22.5051 43.3251 22.5083 43.2846 22.5114 43.8815C22.5114 44.556 22.5114 44.556 21.7819 44.556C21.1834 44.556 21.1585 44.3772 21.1585 44.0906C21.1679 43.966 21.1679 43.8408 21.1585 43.7163C21.1429 43.4431 21.2645 43.2576 21.7975 43.2846Z" fill="#3D4EEA"/>
<path d="M21.1367 37.1706C21.1367 36.8098 21.2832 36.7322 21.6853 36.7693C22.4865 36.8435 22.4989 36.8334 22.5052 37.4708C22.5239 39.0288 22.527 40.5902 22.5363 42.192H21.171C21.171 41.413 21.171 40.6643 21.171 39.9157C21.1523 39.0018 21.1679 38.0845 21.1367 37.1706Z" fill="#3D4EEA"/>
</g>
<defs>
<clipPath id="clip0_750_9901">
<rect width="55" height="45" fill="white" transform="translate(11.6665 10)"/>
</clipPath>
</defs>
</svg>
