<svg width="24" height="24" xmlns="http://www.w3.org/2000/svg" fill-rule="evenodd" clip-rule="evenodd"><path d="M21 8.5c0-.276-.225-.5-.5-.5h-3.5v4.014c1.463.049 2.813.247 4 .974v-4.488zm-5-.5h-5v4h5v-4zm-6 0h-5v4h5v-4zm12 .5v6.829c-1.475-2.14-3.385-2.329-6-2.329h-12v-6h16.5c.828 0 1.5.671 1.5 1.5zm1-.5c0-1.103-.897-2-2-2h-5v-1h-9v1h-5c-.263 0-.521.107-.707.293-.186.186-.293.444-.293.707v10.181l2.042.408c.202-1.459 1.443-2.589 2.958-2.589 1.656 0 3 1.345 3 3h5c0-1.655 1.345-3 3-3s3 1.345 3 3h3v-10zm-4 10c0-1.103-.897-2-2-2s-2 .897-2 2 .897 2 2 2 2-.897 2-2zm-11 0c0-1.103-.897-2-2-2s-2 .897-2 2 .897 2 2 2 2-.897 2-2zm16-10v10c0 .553-.447 1-1 1h-3.184c-.414 1.162-1.513 2-2.816 2s-2.402-.838-2.816-2h-5.368c-.414 1.162-1.513 2-2.816 2-1.445 0-2.653-1.025-2.937-2.387l-2.259-.452c-.468-.094-.804-.504-.804-.98v-10.181c0-.53.211-1.039.586-1.414s.884-.586 1.414-.586h4c0-.552.448-1 1-1h9c.553 0 1 .448 1 1h4c1.657 0 3 1.343 3 3zm-8 10c0 .552.448 1 1 1s1-.448 1-1-.448-1-1-1-1 .448-1 1zm-10-1c.552 0 1 .448 1 1s-.448 1-1 1-1-.448-1-1 .448-1 1-1z"/></svg>