<svg width="79" height="90" viewBox="0 0 79 90" fill="none" xmlns="http://www.w3.org/2000/svg">
<path d="M9.32986 78.1C8.73653 78.1 8.22653 78.0033 7.79986 77.81C7.3732 77.61 7.03986 77.3067 6.79986 76.9C6.55986 76.4867 6.42986 75.9733 6.40986 75.36C6.4032 75.0733 6.39986 74.79 6.39986 74.51C6.39986 74.23 6.4032 73.9433 6.40986 73.65C6.42986 73.0433 6.5632 72.5367 6.80986 72.13C7.05653 71.7233 7.3932 71.4167 7.81986 71.21C8.2532 71.0033 8.75653 70.9 9.32986 70.9C9.9032 70.9 10.4065 71.0033 10.8399 71.21C11.2732 71.4167 11.6132 71.7233 11.8599 72.13C12.1065 72.5367 12.2399 73.0433 12.2599 73.65C12.2732 73.9433 12.2799 74.23 12.2799 74.51C12.2799 74.79 12.2732 75.0733 12.2599 75.36C12.2399 75.9733 12.1099 76.4867 11.8699 76.9C11.6299 77.3067 11.2932 77.61 10.8599 77.81C10.4332 78.0033 9.9232 78.1 9.32986 78.1ZM9.32986 76.95C9.7632 76.95 10.1165 76.8233 10.3899 76.57C10.6632 76.31 10.8099 75.89 10.8299 75.31C10.8432 75.0167 10.8499 74.7467 10.8499 74.5C10.8499 74.2467 10.8432 73.9767 10.8299 73.69C10.8165 73.3033 10.7432 72.99 10.6099 72.75C10.4832 72.5033 10.3099 72.3267 10.0899 72.22C9.86986 72.1067 9.61653 72.05 9.32986 72.05C9.04986 72.05 8.79986 72.1067 8.57986 72.22C8.35986 72.3267 8.1832 72.5033 8.04986 72.75C7.9232 72.99 7.8532 73.3033 7.83986 73.69C7.8332 73.9767 7.82986 74.2467 7.82986 74.5C7.82986 74.7467 7.8332 75.0167 7.83986 75.31C7.85986 75.89 8.00653 76.31 8.27986 76.57C8.5532 76.8233 8.9032 76.95 9.32986 76.95ZM13.713 78C13.6463 78 13.5897 77.9767 13.543 77.93C13.4963 77.8833 13.473 77.8267 13.473 77.76V73.04C13.473 72.9733 13.4963 72.9167 13.543 72.87C13.5897 72.8233 13.6463 72.8 13.713 72.8H14.533C14.5997 72.8 14.6563 72.8233 14.703 72.87C14.7497 72.9167 14.773 72.9733 14.773 73.04V74.83H15.493L16.713 72.96C16.7397 72.9133 16.773 72.8767 16.813 72.85C16.8597 72.8167 16.9197 72.8 16.993 72.8H17.883C17.9497 72.8 18.003 72.8167 18.043 72.85C18.083 72.8833 18.103 72.9267 18.103 72.98C18.103 73 18.0963 73.0233 18.083 73.05C18.0763 73.07 18.0663 73.09 18.053 73.11L16.613 75.3L18.263 77.69C18.2963 77.73 18.313 77.7733 18.313 77.82C18.313 77.8733 18.293 77.9167 18.253 77.95C18.213 77.9833 18.163 78 18.103 78H17.093C17.0263 78 16.9697 77.9867 16.923 77.96C16.883 77.9333 16.8463 77.8967 16.813 77.85L15.493 75.89H14.773V77.76C14.773 77.8267 14.7497 77.8833 14.703 77.93C14.6563 77.9767 14.5997 78 14.533 78H13.713ZM19.4359 79.9C19.3692 79.9 19.3125 79.8767 19.2659 79.83C19.2192 79.7833 19.1959 79.7267 19.1959 79.66V73.04C19.1959 72.9733 19.2192 72.9167 19.2659 72.87C19.3125 72.8233 19.3692 72.8 19.4359 72.8H20.2259C20.2992 72.8 20.3559 72.8233 20.3959 72.87C20.4425 72.9167 20.4659 72.9733 20.4659 73.04V73.44C20.6259 73.2267 20.8359 73.05 21.0959 72.91C21.3559 72.77 21.6792 72.7 22.0659 72.7C22.4192 72.7 22.7259 72.7567 22.9859 72.87C23.2459 72.9833 23.4625 73.1467 23.6359 73.36C23.8092 73.5667 23.9425 73.8133 24.0359 74.1C24.1292 74.3867 24.1825 74.7033 24.1959 75.05C24.2025 75.1633 24.2059 75.28 24.2059 75.4C24.2059 75.52 24.2025 75.64 24.1959 75.76C24.1892 76.0933 24.1392 76.4033 24.0459 76.69C23.9525 76.97 23.8159 77.2167 23.6359 77.43C23.4625 77.6367 23.2459 77.8 22.9859 77.92C22.7259 78.04 22.4192 78.1 22.0659 78.1C21.7059 78.1 21.3992 78.0367 21.1459 77.91C20.8925 77.7767 20.6859 77.6033 20.5259 77.39V79.66C20.5259 79.7267 20.5025 79.7833 20.4559 79.83C20.4159 79.8767 20.3592 79.9 20.2859 79.9H19.4359ZM21.6959 77.03C21.9825 77.03 22.2059 76.97 22.3659 76.85C22.5259 76.7233 22.6392 76.56 22.7059 76.36C22.7792 76.16 22.8225 75.94 22.8359 75.7C22.8492 75.5 22.8492 75.3 22.8359 75.1C22.8225 74.86 22.7792 74.64 22.7059 74.44C22.6392 74.24 22.5259 74.08 22.3659 73.96C22.2059 73.8333 21.9825 73.77 21.6959 73.77C21.4225 73.77 21.1992 73.8333 21.0259 73.96C20.8592 74.0867 20.7359 74.25 20.6559 74.45C20.5825 74.6433 20.5392 74.8433 20.5259 75.05C20.5192 75.17 20.5159 75.2967 20.5159 75.43C20.5159 75.5633 20.5192 75.6933 20.5259 75.82C20.5325 76.02 20.5792 76.2133 20.6659 76.4C20.7525 76.58 20.8792 76.73 21.0459 76.85C21.2125 76.97 21.4292 77.03 21.6959 77.03ZM26.8385 78.1C26.4918 78.1 26.1785 78.0333 25.8985 77.9C25.6185 77.76 25.3951 77.5767 25.2285 77.35C25.0685 77.1167 24.9885 76.8567 24.9885 76.57C24.9885 76.1033 25.1751 75.7333 25.5485 75.46C25.9285 75.18 26.4285 74.9933 27.0485 74.9L28.4185 74.7V74.49C28.4185 74.21 28.3485 73.9933 28.2085 73.84C28.0685 73.6867 27.8285 73.61 27.4885 73.61C27.2485 73.61 27.0518 73.66 26.8985 73.76C26.7518 73.8533 26.6418 73.98 26.5685 74.14C26.5151 74.2267 26.4385 74.27 26.3385 74.27H25.5485C25.4751 74.27 25.4185 74.25 25.3785 74.21C25.3451 74.17 25.3285 74.1167 25.3285 74.05C25.3351 73.9433 25.3785 73.8133 25.4585 73.66C25.5385 73.5067 25.6651 73.36 25.8385 73.22C26.0118 73.0733 26.2351 72.95 26.5085 72.85C26.7818 72.75 27.1118 72.7 27.4985 72.7C27.9185 72.7 28.2718 72.7533 28.5585 72.86C28.8518 72.96 29.0851 73.0967 29.2585 73.27C29.4318 73.4433 29.5585 73.6467 29.6385 73.88C29.7185 74.1133 29.7585 74.36 29.7585 74.62V77.76C29.7585 77.8267 29.7351 77.8833 29.6885 77.93C29.6418 77.9767 29.5851 78 29.5185 78H28.7085C28.6351 78 28.5751 77.9767 28.5285 77.93C28.4885 77.8833 28.4685 77.8267 28.4685 77.76V77.37C28.3818 77.4967 28.2651 77.6167 28.1185 77.73C27.9718 77.8367 27.7918 77.9267 27.5785 78C27.3718 78.0667 27.1251 78.1 26.8385 78.1ZM27.1785 77.15C27.4118 77.15 27.6218 77.1 27.8085 77C28.0018 76.9 28.1518 76.7467 28.2585 76.54C28.3718 76.3267 28.4285 76.06 28.4285 75.74V75.53L27.4285 75.69C27.0351 75.75 26.7418 75.8467 26.5485 75.98C26.3551 76.1133 26.2585 76.2767 26.2585 76.47C26.2585 76.6167 26.3018 76.7433 26.3885 76.85C26.4818 76.95 26.5985 77.0267 26.7385 77.08C26.8785 77.1267 27.0251 77.15 27.1785 77.15ZM31.2813 78C31.2147 78 31.158 77.9767 31.1113 77.93C31.0647 77.8833 31.0413 77.8267 31.0413 77.76V73.04C31.0413 72.9733 31.0647 72.9167 31.1113 72.87C31.158 72.8233 31.2147 72.8 31.2813 72.8H32.0713C32.1447 72.8 32.2013 72.8233 32.2413 72.87C32.288 72.9167 32.3113 72.9733 32.3113 73.04V76.94H33.8113V73.04C33.8113 72.9733 33.8313 72.9167 33.8713 72.87C33.918 72.8233 33.978 72.8 34.0513 72.8H34.7713C34.8447 72.8 34.9013 72.8233 34.9413 72.87C34.988 72.9167 35.0113 72.9733 35.0113 73.04V76.94H36.5113V73.04C36.5113 72.9733 36.5313 72.9167 36.5713 72.87C36.618 72.8233 36.678 72.8 36.7513 72.8H37.5413C37.608 72.8 37.6647 72.8233 37.7113 72.87C37.758 72.9167 37.7813 72.9733 37.7813 73.04V77.76C37.7813 77.8267 37.758 77.8833 37.7113 77.93C37.6647 77.9767 37.608 78 37.5413 78H31.2813ZM39.3573 78C39.2973 78 39.244 77.9767 39.1973 77.93C39.1506 77.8833 39.1273 77.83 39.1273 77.77V73.04C39.1273 72.9733 39.1506 72.9167 39.1973 72.87C39.244 72.8233 39.3006 72.8 39.3673 72.8H40.1973C40.2706 72.8 40.3273 72.8233 40.3673 72.87C40.414 72.9167 40.4373 72.9733 40.4373 73.04V76.99L40.0873 76.74L42.8373 72.96C42.8706 72.9133 42.9073 72.8767 42.9473 72.85C42.9873 72.8167 43.0406 72.8 43.1073 72.8H43.8673C43.9273 72.8 43.9806 72.8233 44.0273 72.87C44.074 72.91 44.0973 72.96 44.0973 73.02V77.76C44.0973 77.8267 44.074 77.8833 44.0273 77.93C43.9806 77.9767 43.924 78 43.8573 78H43.0273C42.954 78 42.894 77.9767 42.8473 77.93C42.8073 77.8833 42.7873 77.8267 42.7873 77.76V73.99L43.1573 74.04L40.3873 77.84C40.3606 77.88 40.324 77.9167 40.2773 77.95C40.2373 77.9833 40.184 78 40.1173 78H39.3573ZM45.5978 78C45.5311 78 45.4744 77.9767 45.4278 77.93C45.3811 77.8833 45.3578 77.8267 45.3578 77.76V73.04C45.3578 72.9733 45.3811 72.9167 45.4278 72.87C45.4744 72.8233 45.5311 72.8 45.5978 72.8H47.8178C48.5244 72.8 49.0478 72.93 49.3878 73.19C49.7278 73.45 49.8978 73.8 49.8978 74.24C49.8978 74.52 49.8444 74.7367 49.7378 74.89C49.6311 75.0433 49.4844 75.1767 49.2978 75.29C49.5311 75.3967 49.7111 75.56 49.8378 75.78C49.9711 75.9933 50.0378 76.23 50.0378 76.49C50.0378 76.97 49.8578 77.3433 49.4978 77.61C49.1444 77.87 48.6211 78 47.9278 78H45.5978ZM46.6378 77.1H47.8378C48.1044 77.1 48.3178 77.05 48.4778 76.95C48.6378 76.85 48.7178 76.6933 48.7178 76.48C48.7178 76.26 48.6444 76.1 48.4978 76C48.3511 75.9 48.1311 75.85 47.8378 75.85H46.6378V77.1ZM46.6378 74.92H47.7978C48.0644 74.92 48.2744 74.8667 48.4278 74.76C48.5811 74.6467 48.6578 74.4833 48.6578 74.27C48.6578 74.0567 48.5778 73.91 48.4178 73.83C48.2644 73.7433 48.0578 73.7 47.7978 73.7H46.6378V74.92ZM52.6978 78.1C52.3512 78.1 52.0378 78.0333 51.7578 77.9C51.4778 77.76 51.2545 77.5767 51.0878 77.35C50.9278 77.1167 50.8478 76.8567 50.8478 76.57C50.8478 76.1033 51.0345 75.7333 51.4078 75.46C51.7878 75.18 52.2878 74.9933 52.9078 74.9L54.2778 74.7V74.49C54.2778 74.21 54.2078 73.9933 54.0678 73.84C53.9278 73.6867 53.6878 73.61 53.3478 73.61C53.1078 73.61 52.9112 73.66 52.7578 73.76C52.6112 73.8533 52.5012 73.98 52.4278 74.14C52.3745 74.2267 52.2978 74.27 52.1978 74.27H51.4078C51.3345 74.27 51.2778 74.25 51.2378 74.21C51.2045 74.17 51.1878 74.1167 51.1878 74.05C51.1945 73.9433 51.2378 73.8133 51.3178 73.66C51.3978 73.5067 51.5245 73.36 51.6978 73.22C51.8712 73.0733 52.0945 72.95 52.3678 72.85C52.6412 72.75 52.9712 72.7 53.3578 72.7C53.7778 72.7 54.1312 72.7533 54.4178 72.86C54.7112 72.96 54.9445 73.0967 55.1178 73.27C55.2912 73.4433 55.4178 73.6467 55.4978 73.88C55.5778 74.1133 55.6178 74.36 55.6178 74.62V77.76C55.6178 77.8267 55.5945 77.8833 55.5478 77.93C55.5012 77.9767 55.4445 78 55.3778 78H54.5678C54.4945 78 54.4345 77.9767 54.3878 77.93C54.3478 77.8833 54.3278 77.8267 54.3278 77.76V77.37C54.2412 77.4967 54.1245 77.6167 53.9778 77.73C53.8312 77.8367 53.6512 77.9267 53.4378 78C53.2312 78.0667 52.9845 78.1 52.6978 78.1ZM53.0378 77.15C53.2712 77.15 53.4812 77.1 53.6678 77C53.8612 76.9 54.0112 76.7467 54.1178 76.54C54.2312 76.3267 54.2878 76.06 54.2878 75.74V75.53L53.2878 75.69C52.8945 75.75 52.6012 75.8467 52.4078 75.98C52.2145 76.1133 52.1178 76.2767 52.1178 76.47C52.1178 76.6167 52.1612 76.7433 52.2478 76.85C52.3412 76.95 52.4578 77.0267 52.5978 77.08C52.7378 77.1267 52.8845 77.15 53.0378 77.15ZM57.1407 78C57.0741 78 57.0174 77.9767 56.9707 77.93C56.9241 77.8833 56.9007 77.8267 56.9007 77.76V73.04C56.9007 72.9733 56.9241 72.9167 56.9707 72.87C57.0174 72.8233 57.0741 72.8 57.1407 72.8H57.9707C58.0441 72.8 58.1007 72.8233 58.1407 72.87C58.1874 72.9167 58.2107 72.9733 58.2107 73.04V74.83H60.4707V73.04C60.4707 72.9733 60.4941 72.9167 60.5407 72.87C60.5874 72.8233 60.6441 72.8 60.7107 72.8H61.5407C61.6074 72.8 61.6641 72.8233 61.7107 72.87C61.7574 72.9167 61.7807 72.9733 61.7807 73.04V77.76C61.7807 77.8267 61.7574 77.8833 61.7107 77.93C61.6641 77.9767 61.6074 78 61.5407 78H60.7107C60.6441 78 60.5874 77.9767 60.5407 77.93C60.4941 77.8833 60.4707 77.8267 60.4707 77.76V75.88H58.2107V77.76C58.2107 77.8267 58.1874 77.8833 58.1407 77.93C58.1007 77.9767 58.0441 78 57.9707 78H57.1407ZM63.3612 78C63.3012 78 63.2479 77.9767 63.2012 77.93C63.1545 77.8833 63.1312 77.83 63.1312 77.77V73.04C63.1312 72.9733 63.1545 72.9167 63.2012 72.87C63.2479 72.8233 63.3045 72.8 63.3712 72.8H64.2012C64.2745 72.8 64.3312 72.8233 64.3712 72.87C64.4179 72.9167 64.4412 72.9733 64.4412 73.04V76.99L64.0912 76.74L66.8412 72.96C66.8745 72.9133 66.9112 72.8767 66.9512 72.85C66.9912 72.8167 67.0445 72.8 67.1112 72.8H67.8712C67.9312 72.8 67.9845 72.8233 68.0312 72.87C68.0779 72.91 68.1012 72.96 68.1012 73.02V77.76C68.1012 77.8267 68.0779 77.8833 68.0312 77.93C67.9845 77.9767 67.9279 78 67.8612 78H67.0312C66.9579 78 66.8979 77.9767 66.8512 77.93C66.8112 77.8833 66.7912 77.8267 66.7912 77.76V73.99L67.1612 74.04L64.3912 77.84C64.3645 77.88 64.3279 77.9167 64.2812 77.95C64.2412 77.9833 64.1879 78 64.1212 78H63.3612ZM71.6017 78.1C70.8617 78.1 70.275 77.8867 69.8417 77.46C69.4083 77.0333 69.175 76.4267 69.1417 75.64C69.135 75.5733 69.1317 75.49 69.1317 75.39C69.1317 75.2833 69.135 75.2 69.1417 75.14C69.1683 74.64 69.2817 74.2067 69.4817 73.84C69.6883 73.4733 69.9717 73.1933 70.3317 73C70.6917 72.8 71.115 72.7 71.6017 72.7C72.1417 72.7 72.595 72.8133 72.9617 73.04C73.3283 73.26 73.605 73.57 73.7917 73.97C73.9783 74.3633 74.0717 74.82 74.0717 75.34V75.55C74.0717 75.6167 74.0483 75.6733 74.0017 75.72C73.955 75.7667 73.895 75.79 73.8217 75.79H70.5017C70.5017 75.79 70.5017 75.8 70.5017 75.82C70.5017 75.84 70.5017 75.8567 70.5017 75.87C70.5083 76.1033 70.5517 76.32 70.6317 76.52C70.7183 76.7133 70.8417 76.87 71.0017 76.99C71.1683 77.11 71.365 77.17 71.5917 77.17C71.7783 77.17 71.935 77.1433 72.0617 77.09C72.1883 77.03 72.2917 76.9633 72.3717 76.89C72.4517 76.8167 72.5083 76.7567 72.5417 76.71C72.6017 76.63 72.6483 76.5833 72.6817 76.57C72.7217 76.55 72.7783 76.54 72.8517 76.54H73.7117C73.7783 76.54 73.8317 76.56 73.8717 76.6C73.9183 76.64 73.9383 76.69 73.9317 76.75C73.925 76.8567 73.8683 76.9867 73.7617 77.14C73.6617 77.2933 73.515 77.4433 73.3217 77.59C73.1283 77.7367 72.885 77.86 72.5917 77.96C72.305 78.0533 71.975 78.1 71.6017 78.1ZM70.5017 74.95H72.7117V74.92C72.7117 74.66 72.6683 74.4333 72.5817 74.24C72.495 74.0467 72.3683 73.8933 72.2017 73.78C72.035 73.6667 71.835 73.61 71.6017 73.61C71.3683 73.61 71.1683 73.6667 71.0017 73.78C70.835 73.8933 70.7083 74.0467 70.6217 74.24C70.5417 74.4333 70.5017 74.66 70.5017 74.92V74.95Z" fill="#282828"/>
<g clip-path="url(#clip0_750_9925)">
<path d="M28.0832 55C23.9953 54.9462 19.9639 53.9883 16.2505 52.1883C14.5198 51.3105 12.7577 50.0301 12.0178 48.0797C11.1273 45.74 12.0711 43.222 13.2719 41.2221C21.1698 28.2297 29.5129 31.1206 32.9399 31.1206C36.3668 31.1206 33.3004 15.6102 46.312 16.0821C51.8553 16.2867 57.9128 17.5473 62.6346 20.7748C66.2402 23.2466 68.2186 27.21 65.1585 31.114C63.3871 33.3745 61.3648 35.3777 59.5996 37.6481C57.8414 39.9018 55.8904 41.9808 53.771 43.8589C47.2182 49.6671 38.6556 54.2773 29.9989 54.9373C29.376 54.9857 28.7375 55.0066 28.0832 55Z" fill="#ECEEFD"/>
<path d="M51.8802 17.643C51.3711 17.0265 51.0193 16.2838 50.8581 15.4847C50.8048 15.2504 50.717 15.0227 50.6449 14.795C49.9614 12.6731 48.7041 11.4949 46.4404 11.9174C46.3011 11.9118 46.1694 11.849 46.0736 11.7424C44.1516 9.74589 41.6433 9.44889 39.3608 10.9273C39.1253 11.0669 38.8559 11.13 38.5864 11.1088C35.9433 10.8877 34.8303 11.65 33.9931 14.2901C33.9298 14.5346 33.7778 14.7432 33.5699 14.8709C31.2936 15.7224 30.4063 17.7816 30.8014 20.4811C30.8304 20.7374 30.7936 20.9973 30.6948 21.2335C30.3517 22.0058 30.2283 22.866 30.3396 23.7105C30.4509 24.5549 30.792 25.3474 31.3218 25.9922C31.6096 26.35 31.8137 26.7739 31.9175 27.2298C32.3439 29.1339 31.8956 31.8301 33.1717 33.3844C34.9243 35.5328 35.4385 35.6714 35.8869 36.4865C36.2318 37.1201 35.4479 34.1038 35.3351 33.721C34.9588 32.4604 36.0969 31.6387 36.8808 30.4209C37.6815 29.2862 38.1696 27.9411 38.2917 26.5334C41.8471 26.6786 43.9604 24.7844 44.9668 21.1576C45.1016 21.4876 45.158 21.613 45.1925 21.7351C45.7914 23.8175 46.5721 25.7876 48.1617 27.2925C48.2323 27.3956 48.2812 27.5134 48.305 27.6381C48.3288 27.7628 48.327 27.8913 48.2996 28.0152C47.9015 30.0315 47.4029 34.1401 47.2305 35.0972C47.2305 35.1764 47.1709 35.3711 47.2305 35.3447C47.4726 35.2367 47.6811 35.0595 47.8325 34.8332L47.9736 34.556C48.0238 34.4575 48.0688 34.3561 48.1084 34.2523C48.2665 33.802 48.4771 33.3741 48.7355 32.9785C49.8046 31.5001 50.8894 28.8039 50.9082 26.8866C50.9282 25.8032 51.2913 24.7579 51.9398 23.9165C53.3852 21.844 53.3663 19.3987 51.8802 17.643ZM38.6773 18.039C37.5674 19.5901 37.1912 21.3655 37.1849 23.2697C37.1786 25.1738 36.3666 26.7215 35.1532 28.2198C34.1562 24.461 35.9527 19.3227 38.7243 17.8047C38.723 17.8852 38.707 17.9648 38.6773 18.039ZM40.1258 23.4611C41.5211 21.811 42.424 19.9531 42.2924 17.4714C43.5371 19.7353 42.3425 22.306 40.1258 23.4611ZM43.2612 15.2339C40.5021 14.3033 38.022 15.0359 35.7991 16.884C34.9369 17.5902 34.1374 18.3756 33.3002 19.1313C34.0057 16.7289 37.0313 13.9898 39.6618 13.5773C43.5089 12.9701 46.5156 14.7653 49.2026 17.4714C47.1772 16.7025 45.2333 15.9006 43.2518 15.2339H43.2612ZM50.7546 23.2235C50.6355 21.8143 50.7233 20.5108 50.0429 19.128C51.4569 19.9663 51.6607 21.5074 50.7452 23.2235H50.7546Z" fill="#282828"/>
<path d="M50.7449 23.2235C50.6258 21.8143 50.7136 20.5108 50.0332 19.128C51.4566 19.9663 51.6604 21.5074 50.7449 23.2235Z" fill="#3D4EEA"/>
<path d="M32.2342 21.3853C32.1809 22.7977 31.9207 24.0782 32.4412 25.5401C31.1306 24.5204 31.1055 22.9627 32.2342 21.3853Z" fill="#3D4EEA"/>
<path d="M40.126 23.4611C41.5212 21.811 42.4242 19.9531 42.2925 17.4714C43.5372 19.7353 42.3427 22.306 40.126 23.4611Z" fill="#3D4EEA"/>
<path d="M38.7244 17.8047C38.723 17.8852 38.707 17.9648 38.6774 18.039C37.5674 19.5901 37.1912 21.3655 37.1849 23.2697C37.1787 25.1738 36.3666 26.7215 35.1532 28.2198C34.1562 24.461 35.9527 19.3227 38.7244 17.8047Z" fill="#3D4EEA"/>
<path d="M44.7383 17.4549C44.7453 17.523 44.7644 17.589 44.7947 17.6496C45.8607 18.8739 46.3216 20.3524 46.4753 21.976C46.6289 23.5997 47.4409 24.8438 48.5916 26.0087C49.1466 22.7251 47.2152 18.5076 44.7383 17.4549Z" fill="#3D4EEA"/>
<path d="M49.2126 17.4714C47.1778 16.7025 45.2339 15.9006 43.2555 15.2339C40.4964 14.3033 38.0163 15.0359 35.7934 16.884C34.9374 17.5902 34.1379 18.3756 33.3008 19.1313C34.0062 16.7289 37.0318 13.9898 39.6624 13.5773C43.5188 12.9701 46.5256 14.7653 49.2126 17.4714Z" fill="#3D4EEA"/>
<path d="M24.4367 34.8992C24.4367 33.4372 24.4367 31.9786 24.4179 30.5199C24.4163 30.1125 24.3003 29.7146 24.0844 29.3764C23.8685 29.0381 23.5624 28.7747 23.2046 28.6191C22.9096 28.4994 22.6068 28.4023 22.2984 28.3287C22.2984 27.9558 22.2984 27.5499 22.2984 27.144C22.2984 26.738 22.1511 26.6093 21.7874 26.5994C21.5742 26.5994 21.3641 26.5994 21.1603 26.5994C21.1279 26.6072 21.0943 26.6074 21.0618 26.6C21.0293 26.5927 20.9987 26.578 20.9721 26.5569C20.9456 26.5359 20.9237 26.509 20.908 26.4782C20.8923 26.4473 20.8832 26.4133 20.8813 26.3783C20.6273 25.2794 20.3608 24.1838 20.1006 23.0782C19.9814 22.5766 19.8686 22.0717 19.7369 21.5734C19.728 21.4954 19.6987 21.4215 19.6524 21.3599C19.606 21.2983 19.5443 21.2514 19.4742 21.2244C19.4041 21.1974 19.3283 21.1914 19.2551 21.207C19.1819 21.2225 19.1143 21.2591 19.0596 21.3127C18.9697 21.416 18.907 21.5423 18.8778 21.679C18.5016 23.2367 18.1305 24.7965 17.7647 26.3585C17.724 26.5367 17.6581 26.6159 17.4763 26.6027C17.2944 26.5895 17.0217 26.6027 16.7959 26.6027C16.7348 26.5964 16.6732 26.6041 16.6152 26.6253C16.5572 26.6466 16.5043 26.6808 16.4602 26.7257C16.416 26.7706 16.3817 26.8251 16.3596 26.8853C16.3374 26.9456 16.328 27.0102 16.3319 27.0747C16.3319 27.2001 16.3319 27.3288 16.3319 27.4575V28.3881C15.8236 28.395 15.333 28.5861 14.9429 28.9293C14.5644 29.2738 14.2997 29.7361 14.1873 30.2493V30.1305C14.1372 30.2064 14.1873 42.6016 14.1873 42.6016C14.5009 43.4266 14.8395 43.6708 15.6703 43.6708C18.1222 43.6708 20.5709 43.6708 23.0164 43.6708C23.207 43.6809 23.3974 43.6486 23.5753 43.576C23.7531 43.5035 23.9145 43.3922 24.0488 43.2496C24.1831 43.107 24.2874 42.9362 24.3547 42.7484C24.4221 42.5605 24.4511 42.3598 24.4399 42.1594C24.4179 39.7338 24.4367 37.3148 24.4367 34.8992ZM19.2823 23.5832H19.3387C19.5738 24.5732 19.8121 25.5632 20.0567 26.5928H18.5643L19.2823 23.5832ZM17.1816 27.4905H21.4425V28.3716H17.1816V27.4905ZM23.5808 42.4069C23.5808 42.6478 23.3739 42.7666 23.0979 42.7666H15.5481C15.1875 42.7666 15.037 42.6115 15.0339 42.232C15.0307 41.8524 15.0339 41.4069 15.0339 40.9713H23.5808C23.5808 41.4564 23.5996 41.9316 23.5808 42.4069ZM15.0527 40.0671V32.896H23.5808V40.0671H15.0527ZM23.6027 31.9687H15.0464C15.0197 31.4344 15.0197 30.8991 15.0464 30.3648C15.0893 30.0735 15.2273 29.807 15.4368 29.6112C15.6462 29.4154 15.914 29.3027 16.1939 29.2923C17.0123 29.2692 17.8306 29.2923 18.6489 29.2758C19.8309 29.2758 21.013 29.2956 22.1981 29.2758C22.3838 29.2663 22.5694 29.2979 22.7428 29.3686C22.9162 29.4393 23.0736 29.5475 23.2048 29.6862C23.336 29.8249 23.4381 29.9911 23.5045 30.1739C23.5709 30.3567 23.6001 30.5522 23.5902 30.7477C23.5965 31.1437 23.6027 31.543 23.6027 31.9687Z" fill="#282828"/>
<path d="M23.5839 32.896H15.0464V40.0671H23.5839V32.896Z" fill="#3D4EEA"/>
<path d="M20.0569 26.5862H18.5645L19.2762 23.5832H19.3326C19.574 24.5732 19.8186 25.5665 20.0569 26.5862Z" fill="#3D4EEA"/>
<path d="M53.0533 46.8191C53.0394 45.8567 52.9735 44.8959 52.8558 43.9414C52.4732 41.4267 51.0937 39.747 48.7798 38.9913C48.0618 38.757 47.325 38.5722 46.5663 38.3775C45.4877 38.0474 45.4909 37.7834 45.4815 36.1235C45.4601 35.833 45.5271 35.5429 45.6727 35.2952C47.1736 34.4961 48.4445 33.2897 49.3542 31.8007C50.264 30.3117 50.7795 28.594 50.8476 26.8252C50.9157 25.0563 50.5339 23.3004 49.7416 21.7388C48.9493 20.1772 47.7753 18.8665 46.3408 17.9423C44.9063 17.018 43.2634 16.5135 41.5817 16.4811C39.9001 16.4487 38.2407 16.8894 36.775 17.7577C35.3093 18.626 34.0904 19.8905 33.2443 21.4205C32.3981 22.9505 31.9554 24.6905 31.9619 26.4608C31.9616 28.0046 32.2984 29.5277 32.9464 30.9127C33.0029 31.0748 33.0765 31.2298 33.1659 31.3747C33.2035 31.444 33.2474 31.51 33.2882 31.5793C34.104 33.0348 35.2585 34.2478 36.643 35.1038C36.7987 35.2271 36.9094 35.403 36.9565 35.6021C37.0161 36.4304 36.9784 37.2521 36.9784 38.1035C35.8529 38.4072 34.7837 38.6448 33.7553 38.9814C31.432 39.7371 30.0556 41.4168 29.6794 43.9315C29.5568 44.9165 29.4888 45.9082 29.4756 46.9016C29.4756 47.1359 29.4756 47.1062 29.4913 47.3405C29.4913 47.4923 29.4223 47.8058 30.065 47.7992C30.7078 47.7926 30.6733 47.4692 30.6921 47.3108C30.6921 47.0864 30.6921 47.1161 30.6921 46.895C30.6921 46.895 30.7391 45.1822 30.83 44.3869C31.0934 42.1033 32.2754 40.6875 34.3824 40.0968C35.323 39.8295 36.2636 39.5688 37.2324 39.3444C37.5283 39.3056 37.7975 39.1449 37.981 38.8974C38.1644 38.6499 38.247 38.3359 38.2106 38.0243C38.2106 37.3445 38.2106 36.6614 38.2106 35.8727C40.0072 36.6614 42.0174 36.7225 43.8542 36.0443C43.9953 36.0014 44.1333 35.9552 44.2712 35.9057C44.2712 36.6878 44.2712 37.3544 44.2712 38.0144C44.2348 38.281 44.2904 38.5524 44.4279 38.7795C44.5654 39.0065 44.7757 39.1742 45.0206 39.252C45.1067 39.29 45.1959 39.3198 45.2871 39.3411L45.5442 39.4038C46.5287 39.6645 47.5069 39.9582 48.4945 40.2057C50.3757 40.8657 51.4417 42.2386 51.6894 44.3902C51.7678 45.0766 51.7803 45.7729 51.8086 46.5089H51.7772C51.7772 46.7432 51.7772 46.9775 51.7772 47.2085C51.7772 47.3636 51.7082 47.6771 52.3698 47.6672C53.0313 47.6573 53.0188 47.3372 53.0282 47.192C53.0533 46.9841 53.0533 47.0468 53.0533 46.8191ZM44.8262 34.2787C43.6375 34.8907 42.3226 35.181 41.0005 35.1234C39.6784 35.0658 38.3909 34.662 37.2543 33.9487C36.9653 33.7564 36.6869 33.5471 36.4203 33.3217C35.6553 32.6617 35.0565 31.8136 34.4263 31.0117C33.6396 29.6442 33.2243 28.0759 33.2254 26.4773C33.2254 25.3584 33.4348 24.2504 33.8417 23.2166C34.2485 22.1828 34.8448 21.2434 35.5965 20.4522C36.3483 19.661 37.2407 19.0333 38.2229 18.6051C39.2051 18.1769 40.2578 17.9565 41.3209 17.9565C42.384 17.9565 43.4367 18.1769 44.4189 18.6051C45.401 19.0333 46.2935 19.661 47.0452 20.4522C47.7969 21.2434 48.3932 22.1828 48.8001 23.2166C49.2069 24.2504 49.4163 25.3584 49.4163 26.4773C49.4192 27.8527 49.1142 29.2094 48.5259 30.4374L48.3942 30.6222C47.8349 31.47 47.2053 32.2641 46.513 32.995C45.9952 33.4858 45.4261 33.9131 44.8168 34.2688L44.8262 34.2787Z" fill="#282828"/>
</g>
<defs>
<clipPath id="clip0_750_9925">
<rect width="55" height="45" fill="white" transform="translate(11.6665 10)"/>
</clipPath>
</defs>
</svg>
