<svg width="20" height="20" viewBox="0 0 20 20" fill="none" xmlns="http://www.w3.org/2000/svg">
<path d="M19 13.964C19 18.5 18 19 10 19C2.00003 19 0.999991 18 1.00003 13.964C1.00006 11.8227 1 12.3186 1 10.4444C1 8.57015 1.57474 7.5 4.94411 4.78947C6.35369 3.65552 7.57248 2.73874 8.46005 2.0911C9.39245 1.41076 10.6264 1.38447 11.5609 2.06187C12.3853 2.65939 13.544 3.54188 15.0559 4.78947C18.5 7.63158 19 8.5 19 10.4444C18.9999 14.2045 19 10.8227 19 13.964Z" stroke="#5e2af0" stroke-width="1.5" stroke-linecap="round" stroke-linejoin="round"/>
<path d="M7 16C7 14 7 13 10 13C13 13 13 14 13 16" stroke="#5e2af0" stroke-width="1.5" stroke-linecap="round" stroke-linejoin="round"/>
</svg>
