<svg width="12" height="15" viewBox="0 0 12 15" fill="none" xmlns="http://www.w3.org/2000/svg">
<path d="M6 10.8333C7 10.8333 10 8.49998 10 5.27776C10 2.83331 8.33333 0.833313 6 0.833313C3.66667 0.833313 2 2.83331 2 5.27776C2 8.49998 5 10.8333 6 10.8333Z" stroke="#0A0C10" stroke-linecap="round" stroke-linejoin="round"/>
<path d="M6.00033 5.16667C6.18442 5.16667 6.33366 5.01743 6.33366 4.83333C6.33366 4.64924 6.18442 4.5 6.00033 4.5C5.81623 4.5 5.66699 4.64924 5.66699 4.83333C5.66699 5.01743 5.81623 5.16667 6.00033 5.16667Z" fill="#0A0C10" stroke="#0A0C10" stroke-linecap="round" stroke-linejoin="round"/>
<path d="M1.66699 11.5C1.04335 11.7757 0.666992 12.1242 0.666992 12.4728C0.666992 13.4326 3.06699 14.1667 6.00033 14.1667C8.93366 14.1667 11.3337 13.4326 11.3337 12.4728C11.3337 12.1242 10.9573 11.7757 10.3337 11.5" stroke="#0A0C10" stroke-linecap="round" stroke-linejoin="round"/>
</svg>
