<svg width="37" height="26" viewBox="0 0 37 26" fill="none" xmlns="http://www.w3.org/2000/svg">
<g clip-path="url(#clip0_933_1617)">
<path d="M5.91747 7.87688C5.34146 6.26048 3.5916 5.42706 2.00904 6.01538C0.426475 6.6037 -0.389501 8.39098 0.186505 10.0074L4.27668 21.4853C4.85269 23.1017 6.60256 23.9352 8.18512 23.3468C9.76768 22.7585 10.5837 20.9712 10.0076 19.3548L5.91747 7.87688Z" fill="#3D4EEA"/>
<path d="M13.6479 2.2755C13.0719 0.659098 11.3221 -0.174324 9.73951 0.413998C8.15694 1.00232 7.34097 2.7896 7.91697 4.406L14.8821 23.9516C15.4581 25.568 17.2079 26.4014 18.7905 25.8131C20.3731 25.2248 21.189 23.4375 20.613 21.8211L13.6479 2.2755Z" fill="#3D4EEA"/>
<path d="M23.3032 2.04903C22.7272 0.432628 20.9773 -0.400795 19.3948 0.187527C17.8122 0.775848 16.9962 2.56313 17.5722 4.17953L23.605 21.1089C24.181 22.7253 25.9309 23.5587 27.5135 22.9704C29.096 22.3821 29.912 20.5948 29.336 18.9784L23.3032 2.04903Z" fill="#3D4EEA"/>
<path d="M33.3569 2.96446C32.7809 1.34806 31.0311 0.514641 29.4485 1.10296C27.8659 1.69128 27.05 3.47856 27.626 5.09496L29.8261 11.2691C30.4021 12.8855 32.152 13.719 33.7346 13.1306C35.3171 12.5423 36.1331 10.755 35.5571 9.13864L33.3569 2.96446Z" fill="#8B95F2"/>
</g>
<defs>
<clipPath id="clip0_933_1617">
<rect width="36.5926" height="26" fill="white"/>
</clipPath>
</defs>
</svg>
