<svg width="69" height="48" viewBox="0 0 69 48" fill="none" xmlns="http://www.w3.org/2000/svg">
<g clip-path="url(#clip0_726_17805)">
<path d="M11.1578 14.5419C10.0717 11.5578 6.77212 10.0192 3.788 11.1053C0.803875 12.1914 -0.73475 15.491 0.351382 18.4751L8.06394 39.6652C9.15007 42.6493 12.4497 44.188 15.4338 43.1018C18.4179 42.0157 19.9565 38.7161 18.8704 35.732L11.1578 14.5419Z" fill="white"/>
<path d="M25.7345 4.20096C24.6484 1.21683 21.3488 -0.321791 18.3647 0.764341C15.3805 1.85047 13.8419 5.15007 14.928 8.13419L28.0616 44.2184C29.1477 47.2025 32.4473 48.7411 35.4315 47.655C38.4156 46.5689 39.9542 43.2693 38.8681 40.2852L25.7345 4.20096Z" fill="white"/>
<path d="M43.941 3.78274C42.8549 0.798622 39.5553 -0.740004 36.5712 0.346128C33.5871 1.43226 32.0485 4.73185 33.1346 7.71598L44.5102 38.9702C45.5963 41.9543 48.8959 43.4929 51.88 42.4068C54.8641 41.3206 56.4028 38.021 55.3166 35.0369L43.941 3.78274Z" fill="white"/>
<path d="M62.8986 5.47293C61.8124 2.48881 58.5128 0.950182 55.5287 2.03631C52.5446 3.12245 51.006 6.42204 52.0921 9.40616L56.2408 20.8046C57.3269 23.7888 60.6265 25.3274 63.6107 24.2413C66.5948 23.1551 68.1334 19.8555 67.0473 16.8714L62.8986 5.47293Z" fill="white" fill-opacity="0.6"/>
</g>
<defs>
<clipPath id="clip0_726_17805">
<rect width="69" height="48" fill="white"/>
</clipPath>
</defs>
</svg>
