<svg width="78" height="90" viewBox="0 0 78 90" fill="none" xmlns="http://www.w3.org/2000/svg">
<path d="M20.4958 78C20.4225 78 20.3625 77.9767 20.3158 77.93C20.2692 77.8833 20.2458 77.8267 20.2458 77.76V71.25C20.2458 71.1767 20.2692 71.1167 20.3158 71.07C20.3625 71.0233 20.4225 71 20.4958 71H21.2858C21.3792 71 21.4492 71.0267 21.4958 71.08C21.5425 71.1267 21.5725 71.1633 21.5858 71.19L23.5158 74.79L25.4658 71.19C25.4792 71.1633 25.5092 71.1267 25.5558 71.08C25.6025 71.0267 25.6725 71 25.7658 71H26.5458C26.6192 71 26.6792 71.0233 26.7258 71.07C26.7725 71.1167 26.7958 71.1767 26.7958 71.25V77.76C26.7958 77.8267 26.7725 77.8833 26.7258 77.93C26.6792 77.9767 26.6192 78 26.5458 78H25.7058C25.6325 78 25.5725 77.9767 25.5258 77.93C25.4858 77.8833 25.4658 77.8267 25.4658 77.76V73.43L24.0658 76.1C24.0325 76.16 23.9892 76.2133 23.9358 76.26C23.8825 76.3 23.8125 76.32 23.7258 76.32H23.3158C23.2225 76.32 23.1492 76.3 23.0958 76.26C23.0492 76.2133 23.0092 76.16 22.9758 76.1L21.5758 73.43V77.76C21.5758 77.8267 21.5525 77.8833 21.5058 77.93C21.4592 77.9767 21.4025 78 21.3358 78H20.4958ZM29.7413 78.1C29.3946 78.1 29.0813 78.0333 28.8013 77.9C28.5213 77.76 28.298 77.5767 28.1313 77.35C27.9713 77.1167 27.8913 76.8567 27.8913 76.57C27.8913 76.1033 28.078 75.7333 28.4513 75.46C28.8313 75.18 29.3313 74.9933 29.9513 74.9L31.3213 74.7V74.49C31.3213 74.21 31.2513 73.9933 31.1113 73.84C30.9713 73.6867 30.7313 73.61 30.3913 73.61C30.1513 73.61 29.9546 73.66 29.8013 73.76C29.6546 73.8533 29.5446 73.98 29.4713 74.14C29.418 74.2267 29.3413 74.27 29.2413 74.27H28.4513C28.378 74.27 28.3213 74.25 28.2813 74.21C28.248 74.17 28.2313 74.1167 28.2313 74.05C28.238 73.9433 28.2813 73.8133 28.3613 73.66C28.4413 73.5067 28.568 73.36 28.7413 73.22C28.9146 73.0733 29.138 72.95 29.4113 72.85C29.6846 72.75 30.0146 72.7 30.4013 72.7C30.8213 72.7 31.1746 72.7533 31.4613 72.86C31.7546 72.96 31.988 73.0967 32.1613 73.27C32.3346 73.4433 32.4613 73.6467 32.5413 73.88C32.6213 74.1133 32.6613 74.36 32.6613 74.62V77.76C32.6613 77.8267 32.638 77.8833 32.5913 77.93C32.5446 77.9767 32.488 78 32.4213 78H31.6113C31.538 78 31.478 77.9767 31.4313 77.93C31.3913 77.8833 31.3713 77.8267 31.3713 77.76V77.37C31.2846 77.4967 31.168 77.6167 31.0213 77.73C30.8746 77.8367 30.6946 77.9267 30.4813 78C30.2746 78.0667 30.028 78.1 29.7413 78.1ZM30.0813 77.15C30.3146 77.15 30.5246 77.1 30.7113 77C30.9046 76.9 31.0546 76.7467 31.1613 76.54C31.2746 76.3267 31.3313 76.06 31.3313 75.74V75.53L30.3313 75.69C29.938 75.75 29.6446 75.8467 29.4513 75.98C29.258 76.1133 29.1613 76.2767 29.1613 76.47C29.1613 76.6167 29.2046 76.7433 29.2913 76.85C29.3846 76.95 29.5013 77.0267 29.6413 77.08C29.7813 77.1267 29.928 77.15 30.0813 77.15ZM34.1842 78C34.1175 78 34.0608 77.9767 34.0142 77.93C33.9675 77.8833 33.9442 77.8267 33.9442 77.76V73.04C33.9442 72.9733 33.9675 72.9167 34.0142 72.87C34.0608 72.8233 34.1175 72.8 34.1842 72.8H35.0042C35.0708 72.8 35.1275 72.8233 35.1742 72.87C35.2208 72.9167 35.2442 72.9733 35.2442 73.04V74.83H35.9642L37.1842 72.96C37.2108 72.9133 37.2442 72.8767 37.2842 72.85C37.3308 72.8167 37.3908 72.8 37.4642 72.8H38.3542C38.4208 72.8 38.4742 72.8167 38.5142 72.85C38.5542 72.8833 38.5742 72.9267 38.5742 72.98C38.5742 73 38.5675 73.0233 38.5542 73.05C38.5475 73.07 38.5375 73.09 38.5242 73.11L37.0842 75.3L38.7342 77.69C38.7675 77.73 38.7842 77.7733 38.7842 77.82C38.7842 77.8733 38.7642 77.9167 38.7242 77.95C38.6842 77.9833 38.6342 78 38.5742 78H37.5642C37.4975 78 37.4408 77.9867 37.3942 77.96C37.3542 77.9333 37.3175 77.8967 37.2842 77.85L35.9642 75.89H35.2442V77.76C35.2442 77.8267 35.2208 77.8833 35.1742 77.93C35.1275 77.9767 35.0708 78 35.0042 78H34.1842ZM39.8871 78C39.8271 78 39.7737 77.9767 39.7271 77.93C39.6804 77.8833 39.6571 77.83 39.6571 77.77V73.04C39.6571 72.9733 39.6804 72.9167 39.7271 72.87C39.7737 72.8233 39.8304 72.8 39.8971 72.8H40.7271C40.8004 72.8 40.8571 72.8233 40.8971 72.87C40.9437 72.9167 40.9671 72.9733 40.9671 73.04V76.99L40.6171 76.74L43.3671 72.96C43.4004 72.9133 43.4371 72.8767 43.4771 72.85C43.5171 72.8167 43.5704 72.8 43.6371 72.8H44.3971C44.4571 72.8 44.5104 72.8233 44.5571 72.87C44.6037 72.91 44.6271 72.96 44.6271 73.02V77.76C44.6271 77.8267 44.6037 77.8833 44.5571 77.93C44.5104 77.9767 44.4537 78 44.3871 78H43.5571C43.4837 78 43.4237 77.9767 43.3771 77.93C43.3371 77.8833 43.3171 77.8267 43.3171 77.76V73.99L43.6871 74.04L40.9171 77.84C40.8904 77.88 40.8537 77.9167 40.8071 77.95C40.7671 77.9833 40.7137 78 40.6471 78H39.8871ZM49.1875 78C49.1142 78 49.0542 77.9767 49.0075 77.93C48.9675 77.8833 48.9475 77.8267 48.9475 77.76V76.23H47.9575V76.18C47.2842 76.18 46.7775 76.0267 46.4375 75.72C46.1042 75.4067 45.9375 74.9967 45.9375 74.49C45.9375 73.93 46.1142 73.51 46.4675 73.23C46.8209 72.9433 47.3309 72.8 47.9975 72.8H50.0375C50.1042 72.8 50.1609 72.8233 50.2075 72.87C50.2542 72.9167 50.2775 72.9733 50.2775 73.04V77.76C50.2775 77.8267 50.2542 77.8833 50.2075 77.93C50.1609 77.9767 50.1042 78 50.0375 78H49.1875ZM45.9875 78C45.9275 78 45.8775 77.98 45.8375 77.94C45.7975 77.9 45.7775 77.8533 45.7775 77.8C45.7775 77.78 45.7809 77.7567 45.7875 77.73C45.7942 77.6967 45.8109 77.6667 45.8375 77.64L46.9575 75.88L48.1775 76.04L47.0675 77.85C47.0475 77.89 47.0142 77.9267 46.9675 77.96C46.9209 77.9867 46.8709 78 46.8175 78H45.9875ZM47.9675 75.28H48.9675V73.75H48.0275C47.7209 73.75 47.4942 73.8067 47.3475 73.92C47.2009 74.0267 47.1275 74.2167 47.1275 74.49C47.1275 74.7233 47.1942 74.9133 47.3275 75.06C47.4675 75.2067 47.6809 75.28 47.9675 75.28ZM51.3897 78C51.3297 78 51.2797 77.9833 51.2397 77.95C51.1997 77.9167 51.1797 77.8733 51.1797 77.82C51.1797 77.78 51.1964 77.7367 51.2297 77.69L52.8797 75.3L51.4397 73.11C51.4264 73.09 51.4164 73.07 51.4097 73.05C51.4031 73.0233 51.3997 73 51.3997 72.98C51.3997 72.9267 51.4164 72.8833 51.4497 72.85C51.4897 72.8167 51.5431 72.8 51.6097 72.8H52.4997C52.5797 72.8 52.6397 72.8167 52.6797 72.85C52.7197 72.8767 52.7531 72.9133 52.7797 72.96L53.9997 74.83H54.6097V73.04C54.6097 72.9733 54.6331 72.9167 54.6797 72.87C54.7264 72.8233 54.7831 72.8 54.8497 72.8H55.6597C55.7331 72.8 55.7897 72.8233 55.8297 72.87C55.8764 72.9167 55.8997 72.9733 55.8997 73.04V74.83H56.4897L57.7297 72.96C57.7497 72.9133 57.7797 72.8767 57.8197 72.85C57.8664 72.8167 57.9264 72.8 57.9997 72.8H58.8997C58.9597 72.8 59.0097 72.8167 59.0497 72.85C59.0897 72.8833 59.1097 72.9267 59.1097 72.98C59.1097 73 59.1031 73.0233 59.0897 73.05C59.0831 73.07 59.0731 73.09 59.0597 73.11L57.6197 75.3L59.2797 77.69C59.3064 77.73 59.3197 77.7733 59.3197 77.82C59.3197 77.8733 59.2997 77.9167 59.2597 77.95C59.2264 77.9833 59.1764 78 59.1097 78H58.1097C58.0297 78 57.9664 77.9833 57.9197 77.95C57.8797 77.9167 57.8497 77.8833 57.8297 77.85L56.4997 75.88H55.8997V77.76C55.8997 77.8267 55.8764 77.8833 55.8297 77.93C55.7897 77.9767 55.7331 78 55.6597 78H54.8497C54.7831 78 54.7264 77.9767 54.6797 77.93C54.6331 77.8833 54.6097 77.8267 54.6097 77.76V75.88H54.0097L52.6797 77.85C52.6597 77.8833 52.6264 77.9167 52.5797 77.95C52.5331 77.9833 52.4731 78 52.3997 78H51.3897Z" fill="#282828"/>
<g clip-path="url(#clip0_750_9907)">
<path d="M27.4187 54.9905C26.2996 54.9398 25.184 54.8284 24.0766 54.6569C21.1013 54.2343 18.0477 53.5767 15.3452 52.201C12.8998 50.9556 10.7177 48.8587 11.0281 45.8469C11.1817 44.3727 11.8401 42.9875 12.6176 41.7548C20.5057 29.2467 28.8452 32.0266 32.275 32.0266C35.7049 32.0266 32.6168 17.0944 45.6465 17.5519C51.1894 17.7489 57.2465 18.9625 61.9681 22.0697C65.5735 24.4461 67.5518 28.265 64.4919 32.0234C62.7174 34.1997 60.6983 36.1282 58.9301 38.314C57.1737 40.4911 55.2227 42.499 53.1018 44.3123C48.5954 48.18 43.4148 51.1595 37.8274 53.0969C34.7988 54.1327 31.648 54.8952 28.4439 55.0032C28.1011 55.0074 27.7594 55.0032 27.4187 54.9905Z" fill="#ECEEFD"/>
<path d="M55.055 28.8972C54.8977 28.3695 54.6156 27.8887 54.2331 27.4966C53.8506 27.1046 53.3794 26.8132 52.8604 26.6478C52.8011 26.6376 52.7444 26.6153 52.6937 26.5824C52.643 26.5494 52.5994 26.5065 52.5654 26.456C52.5315 26.4056 52.5079 26.3488 52.4961 26.289C52.4843 26.2291 52.4845 26.1675 52.4968 26.1077C52.5726 24.6293 52.3386 23.1513 51.8102 21.771C51.2956 20.381 50.5153 19.1076 49.5141 18.0237C48.5129 16.9399 47.3104 16.067 45.9756 15.455C45.859 15.4228 45.759 15.3466 45.696 15.2421C45.6331 15.1375 45.612 15.0125 45.637 14.8927C45.6863 14.2271 45.5529 13.5608 45.2514 12.9674C44.6757 11.8546 43.7038 11.0055 42.5328 10.5925C41.3619 10.1795 40.0797 10.2334 38.9466 10.7434C38.3392 11.0092 37.8022 11.4163 37.379 11.9317C37.3101 12.0143 37.2474 12.0969 37.1815 12.1826C37.1157 12.2684 37.0373 12.3701 36.9683 12.4686C36.4634 13.2008 36.2251 14.088 36.2943 14.9785C36.3093 15.0694 36.2908 15.1627 36.2422 15.2407C36.1936 15.3186 36.1184 15.3757 36.0309 15.401C33.9053 16.3661 32.1274 17.9756 30.9426 20.0078C29.853 21.8211 29.3244 23.9236 29.4252 26.0442C29.4392 26.1119 29.4397 26.1818 29.4265 26.2496C29.4133 26.3175 29.3867 26.382 29.3484 26.4392C29.31 26.4965 29.2607 26.5453 29.2033 26.5828C29.146 26.6202 29.0817 26.6456 29.0145 26.6574C27.3058 27.2578 26.4499 28.8813 26.8512 30.7113C26.926 31.1654 27.0436 31.6111 27.2023 32.0425C27.7761 33.3642 29.4158 34.2664 30.8423 34.133C31.1558 34.1012 31.2498 33.9551 31.1558 33.6279C30.6908 32.1406 30.3664 30.6119 30.187 29.0624C30.1118 28.427 30.0679 27.7916 30.0052 27.0799H30.5068C31.977 27.145 33.4498 27.0384 34.896 26.7622C37.2066 26.2634 39.0407 24.9862 40.5832 23.2261C40.8528 22.9084 41.1193 22.5907 41.4109 22.273C44.3234 25.3071 47.9947 25.736 51.9011 25.466C51.9011 26.1014 51.9356 26.7368 51.9011 27.35C51.7807 29.5266 51.3748 31.6774 50.694 33.7454C49.8287 36.322 48.5966 38.6762 46.6183 40.5793C45.4525 41.7624 43.9739 42.5789 42.3608 42.9303C41.173 43.1712 39.9442 43.1023 38.7899 42.7302C38.675 42.684 38.5565 42.6479 38.4356 42.6221C38.3621 42.6009 38.2838 42.605 38.2129 42.6337C38.1419 42.6625 38.0824 42.7143 38.0437 42.781C38.0329 42.8192 38.0299 42.8592 38.0349 42.8986C38.0399 42.938 38.0528 42.976 38.0727 43.0101C38.0927 43.0443 38.1193 43.0741 38.151 43.0975C38.1826 43.1209 38.2187 43.1375 38.2569 43.1464C38.7587 43.3277 39.2747 43.4659 39.7994 43.5594C42.8781 44.001 45.3298 42.7556 47.4147 40.5888C49.0054 38.8688 50.2182 36.8266 50.9731 34.5969C51.0036 34.4543 51.0838 34.3277 51.199 34.2402C51.3141 34.1527 51.4565 34.1101 51.6001 34.1203C53.0203 34.0441 54.7353 32.9956 55.0018 31.1148C55.0958 30.3714 55.287 29.6406 55.055 28.8972ZM37.0906 13.4376C37.9246 11.3217 40.486 10.3177 42.643 11.2359C44.2513 11.9253 45.2201 13.4598 45.057 15.0484C43.3264 14.772 39.6364 14.27 37.9779 14.7307C37.6205 14.8291 37.2662 14.9403 36.8931 15.0484C36.8009 14.5034 36.8696 13.9431 37.0906 13.4376ZM30.4911 33.5103C29.3719 33.5516 28.0896 32.7573 27.7134 31.7534C27.4213 31.0257 27.2958 30.2403 27.3466 29.4564C27.426 28.9057 27.6699 28.3929 28.0454 27.9868C28.4209 27.5807 28.91 27.3008 29.4471 27.1848C29.5548 29.3268 29.9051 31.4493 30.4911 33.5103ZM51.6503 24.8623C50.4558 24.8433 49.2581 24.8877 48.0699 24.7861C46.239 24.6766 44.4828 24.0125 43.0286 22.8798C42.2735 22.219 41.5515 21.5202 40.8653 20.7861C40.7243 20.6464 40.5894 20.5097 40.4013 20.6622C40.2132 20.8147 40.2665 20.9799 40.4013 21.1388C40.5957 21.3548 40.7681 21.5899 40.9563 21.8219C39.5831 23.5788 38.0531 25.0847 35.94 25.8313C34.015 26.5112 32.0273 26.5493 29.955 26.4667C30.002 25.6312 29.9832 24.8401 30.1024 24.0712C30.9927 18.4288 35.4102 14.6925 40.8371 14.988C43.4487 15.1437 44.5554 15.5885 45.1197 15.652C45.2283 15.7373 45.3488 15.8058 45.4771 15.8553C48.4775 17.2437 50.5373 19.4899 51.5061 22.7083C51.7098 23.385 51.8196 24.0935 51.9575 24.8274C51.8559 24.8457 51.7533 24.8584 51.6503 24.8655V24.8623ZM54.5189 30.4953C54.1615 32.3094 53.4342 33.1958 51.8509 33.4944C51.6836 33.5172 51.515 33.5299 51.3462 33.5325C51.9799 31.4619 52.362 29.3206 52.4842 27.1562C52.6441 27.2102 52.7507 27.2388 52.8542 27.2833C53.4667 27.5269 53.9721 27.986 54.2779 28.5764C54.5836 29.1669 54.6692 29.8492 54.5189 30.4984V30.4953Z" fill="#282828" stroke="#282828" stroke-width="2" stroke-miterlimit="10"/>
<path d="M31.3787 35.8327L29.6418 41.0082C29.6178 41.079 29.5777 41.1431 29.5248 41.1953C29.4718 41.2475 29.4074 41.2863 29.3369 41.3086C29.2664 41.3308 29.1916 41.336 29.1188 41.3235C29.0459 41.3111 28.977 41.2814 28.9176 41.2369L25.3623 38.5491L26.4721 35.2577L30.9366 35.2069C31.0109 35.2069 31.084 35.2249 31.1501 35.2593C31.2161 35.2937 31.2731 35.3435 31.3163 35.4047C31.3595 35.4659 31.3877 35.5367 31.3986 35.6111C31.4094 35.6855 31.4026 35.7615 31.3787 35.8327Z" stroke="#282828" stroke-width="2" stroke-miterlimit="10"/>
<path d="M14.1349 33.3292L14.4829 32.2998C14.5325 32.1161 14.6491 31.9584 14.8093 31.8587C14.9694 31.7589 15.161 31.7247 15.3451 31.7629L26.2617 34.7811C26.3066 34.798 26.3478 34.8238 26.3827 34.8571C26.4176 34.8904 26.4455 34.9305 26.4648 34.975C26.4841 35.0194 26.4944 35.0674 26.4951 35.1159C26.4957 35.1645 26.4867 35.2127 26.4686 35.2577L25.3744 38.5142C25.362 38.5615 25.34 38.6058 25.31 38.6442C25.28 38.6827 25.2426 38.7145 25.2 38.7377C25.1574 38.7609 25.1106 38.775 25.0624 38.7792C25.0142 38.7834 24.9657 38.7775 24.9198 38.762L14.4766 34.2887C14.3123 34.2003 14.1863 34.0531 14.1231 33.8758C14.0599 33.6984 14.0642 33.5036 14.1349 33.3292Z" fill="#3D4EEA" stroke="#282828" stroke-width="2" stroke-miterlimit="10"/>
<path d="M31.5166 35.4356C31.5166 35.4356 37.1818 33.828 38.3638 34.2601C39.5457 34.6922 39.3231 37.3355 38.3857 40.09C38.1506 40.7922 36.9373 43.3783 33.7049 45.3862C33.5605 45.4749 33.3899 45.5092 33.2231 45.483C33.0562 45.4569 32.9038 45.372 32.7926 45.2432L29.4976 41.453L31.5166 35.4356Z" fill="#3D4EEA" stroke="#282828" stroke-width="2" stroke-miterlimit="10"/>
<path d="M35.1313 36.9447L30.9678 37.1004" stroke="#282828" stroke-width="2" stroke-linecap="round" stroke-linejoin="round"/>
<path d="M32.9867 39.2672L30.604 38.4411" stroke="#282828" stroke-width="2" stroke-linecap="round" stroke-linejoin="round"/>
<path d="M33.1719 42.4093L30.0869 39.7151" stroke="#282828" stroke-width="2" stroke-linecap="round" stroke-linejoin="round"/>
</g>
<defs>
<clipPath id="clip0_750_9907">
<rect width="55" height="45" fill="white" transform="translate(11 10)"/>
</clipPath>
</defs>
</svg>
