<svg width="78" height="90" viewBox="0 0 78 90" fill="none" xmlns="http://www.w3.org/2000/svg">
<path d="M17.2927 78C17.2194 78 17.1594 77.9767 17.1127 77.93C17.066 77.8833 17.0427 77.8267 17.0427 77.76V71.25C17.0427 71.1767 17.066 71.1167 17.1127 71.07C17.1594 71.0233 17.2194 71 17.2927 71H18.0827C18.176 71 18.246 71.0267 18.2927 71.08C18.3394 71.1267 18.3694 71.1633 18.3827 71.19L20.3127 74.79L22.2627 71.19C22.276 71.1633 22.306 71.1267 22.3527 71.08C22.3994 71.0267 22.4694 71 22.5627 71H23.3427C23.416 71 23.476 71.0233 23.5227 71.07C23.5694 71.1167 23.5927 71.1767 23.5927 71.25V77.76C23.5927 77.8267 23.5694 77.8833 23.5227 77.93C23.476 77.9767 23.416 78 23.3427 78H22.5027C22.4294 78 22.3694 77.9767 22.3227 77.93C22.2827 77.8833 22.2627 77.8267 22.2627 77.76V73.43L20.8627 76.1C20.8294 76.16 20.786 76.2133 20.7327 76.26C20.6794 76.3 20.6094 76.32 20.5227 76.32H20.1127C20.0194 76.32 19.946 76.3 19.8927 76.26C19.846 76.2133 19.806 76.16 19.7727 76.1L18.3727 73.43V77.76C18.3727 77.8267 18.3494 77.8833 18.3027 77.93C18.256 77.9767 18.1994 78 18.1327 78H17.2927ZM26.5382 78.1C26.1915 78.1 25.8782 78.0333 25.5982 77.9C25.3182 77.76 25.0948 77.5767 24.9282 77.35C24.7682 77.1167 24.6882 76.8567 24.6882 76.57C24.6882 76.1033 24.8748 75.7333 25.2482 75.46C25.6282 75.18 26.1282 74.9933 26.7482 74.9L28.1182 74.7V74.49C28.1182 74.21 28.0482 73.9933 27.9082 73.84C27.7682 73.6867 27.5282 73.61 27.1882 73.61C26.9482 73.61 26.7515 73.66 26.5982 73.76C26.4515 73.8533 26.3415 73.98 26.2682 74.14C26.2148 74.2267 26.1382 74.27 26.0382 74.27H25.2482C25.1748 74.27 25.1182 74.25 25.0782 74.21C25.0448 74.17 25.0282 74.1167 25.0282 74.05C25.0348 73.9433 25.0782 73.8133 25.1582 73.66C25.2382 73.5067 25.3648 73.36 25.5382 73.22C25.7115 73.0733 25.9348 72.95 26.2082 72.85C26.4815 72.75 26.8115 72.7 27.1982 72.7C27.6182 72.7 27.9715 72.7533 28.2582 72.86C28.5515 72.96 28.7848 73.0967 28.9582 73.27C29.1315 73.4433 29.2582 73.6467 29.3382 73.88C29.4182 74.1133 29.4582 74.36 29.4582 74.62V77.76C29.4582 77.8267 29.4348 77.8833 29.3882 77.93C29.3415 77.9767 29.2848 78 29.2182 78H28.4082C28.3348 78 28.2748 77.9767 28.2282 77.93C28.1882 77.8833 28.1682 77.8267 28.1682 77.76V77.37C28.0815 77.4967 27.9648 77.6167 27.8182 77.73C27.6715 77.8367 27.4915 77.9267 27.2782 78C27.0715 78.0667 26.8248 78.1 26.5382 78.1ZM26.8782 77.15C27.1115 77.15 27.3215 77.1 27.5082 77C27.7015 76.9 27.8515 76.7467 27.9582 76.54C28.0715 76.3267 28.1282 76.06 28.1282 75.74V75.53L27.1282 75.69C26.7348 75.75 26.4415 75.8467 26.2482 75.98C26.0548 76.1133 25.9582 76.2767 25.9582 76.47C25.9582 76.6167 26.0015 76.7433 26.0882 76.85C26.1815 76.95 26.2982 77.0267 26.4382 77.08C26.5782 77.1267 26.7248 77.15 26.8782 77.15ZM30.9811 78C30.9144 78 30.8577 77.9767 30.8111 77.93C30.7644 77.8833 30.7411 77.8267 30.7411 77.76V73.04C30.7411 72.9733 30.7644 72.9167 30.8111 72.87C30.8577 72.8233 30.9144 72.8 30.9811 72.8H31.8111C31.8844 72.8 31.9411 72.8233 31.9811 72.87C32.0277 72.9167 32.0511 72.9733 32.0511 73.04V74.83H34.3111V73.04C34.3111 72.9733 34.3344 72.9167 34.3811 72.87C34.4277 72.8233 34.4844 72.8 34.5511 72.8H35.3811C35.4477 72.8 35.5044 72.8233 35.5511 72.87C35.5977 72.9167 35.6211 72.9733 35.6211 73.04V77.76C35.6211 77.8267 35.5977 77.8833 35.5511 77.93C35.5044 77.9767 35.4477 78 35.3811 78H34.5511C34.4844 78 34.4277 77.9767 34.3811 77.93C34.3344 77.8833 34.3111 77.8267 34.3111 77.76V75.88H32.0511V77.76C32.0511 77.8267 32.0277 77.8833 31.9811 77.93C31.9411 77.9767 31.8844 78 31.8111 78H30.9811ZM37.2015 78C37.1415 78 37.0882 77.9767 37.0415 77.93C36.9949 77.8833 36.9715 77.83 36.9715 77.77V73.04C36.9715 72.9733 36.9949 72.9167 37.0415 72.87C37.0882 72.8233 37.1449 72.8 37.2115 72.8H38.0415C38.1149 72.8 38.1715 72.8233 38.2115 72.87C38.2582 72.9167 38.2815 72.9733 38.2815 73.04V76.99L37.9315 76.74L40.6815 72.96C40.7149 72.9133 40.7515 72.8767 40.7915 72.85C40.8315 72.8167 40.8849 72.8 40.9515 72.8H41.7115C41.7715 72.8 41.8249 72.8233 41.8715 72.87C41.9182 72.91 41.9415 72.96 41.9415 73.02V77.76C41.9415 77.8267 41.9182 77.8833 41.8715 77.93C41.8249 77.9767 41.7682 78 41.7015 78H40.8715C40.7982 78 40.7382 77.9767 40.6915 77.93C40.6515 77.8833 40.6315 77.8267 40.6315 77.76V73.99L41.0015 74.04L38.2315 77.84C38.2049 77.88 38.1682 77.9167 38.1215 77.95C38.0815 77.9833 38.0282 78 37.9615 78H37.2015ZM43.442 78C43.3753 78 43.3187 77.9767 43.272 77.93C43.2253 77.8833 43.202 77.8267 43.202 77.76V73.04C43.202 72.9733 43.2253 72.9167 43.272 72.87C43.3187 72.8233 43.3753 72.8 43.442 72.8H44.262C44.3287 72.8 44.3853 72.8233 44.432 72.87C44.4787 72.9167 44.502 72.9733 44.502 73.04V74.83H45.222L46.442 72.96C46.4687 72.9133 46.502 72.8767 46.542 72.85C46.5887 72.8167 46.6487 72.8 46.722 72.8H47.612C47.6787 72.8 47.732 72.8167 47.772 72.85C47.812 72.8833 47.832 72.9267 47.832 72.98C47.832 73 47.8253 73.0233 47.812 73.05C47.8053 73.07 47.7953 73.09 47.782 73.11L46.342 75.3L47.992 77.69C48.0253 77.73 48.042 77.7733 48.042 77.82C48.042 77.8733 48.022 77.9167 47.982 77.95C47.942 77.9833 47.892 78 47.832 78H46.822C46.7553 78 46.6987 77.9867 46.652 77.96C46.612 77.9333 46.5753 77.8967 46.542 77.85L45.222 75.89H44.502V77.76C44.502 77.8267 44.4787 77.8833 44.432 77.93C44.3853 77.9767 44.3287 78 44.262 78H43.442ZM51.7949 75.88H50.2249V77.76C50.2249 77.8267 50.2015 77.8833 50.1549 77.93C50.1149 77.9767 50.0582 78 49.9849 78H49.1549C49.0882 78 49.0315 77.9767 48.9849 77.93C48.9382 77.8833 48.9149 77.8267 48.9149 77.76V73.04C48.9149 72.9733 48.9382 72.9167 48.9849 72.87C49.0315 72.8233 49.0882 72.8 49.1549 72.8H49.9849C50.0582 72.8 50.1149 72.8233 50.1549 72.87C50.2015 72.9167 50.2249 72.9733 50.2249 73.04V74.83H51.7949V75.88ZM53.6349 78.1C53.1015 78.1 52.6515 78.0067 52.2849 77.82C51.9249 77.6333 51.6482 77.37 51.4549 77.03C51.2615 76.69 51.1549 76.2933 51.1349 75.84C51.1282 75.72 51.1249 75.5733 51.1249 75.4C51.1249 75.2267 51.1282 75.08 51.1349 74.96C51.1549 74.5 51.2649 74.1033 51.4649 73.77C51.6649 73.43 51.9449 73.1667 52.3049 72.98C52.6715 72.7933 53.1149 72.7 53.6349 72.7C54.1549 72.7 54.5949 72.7933 54.9549 72.98C55.3215 73.1667 55.6015 73.43 55.7949 73.77C55.9949 74.1033 56.1049 74.5 56.1249 74.96C56.1382 75.08 56.1449 75.2267 56.1449 75.4C56.1449 75.5733 56.1382 75.72 56.1249 75.84C56.1049 76.2933 55.9982 76.69 55.8049 77.03C55.6182 77.37 55.3416 77.6333 54.9749 77.82C54.6149 78.0067 54.1682 78.1 53.6349 78.1ZM53.6349 77.11C53.9882 77.11 54.2615 77 54.4549 76.78C54.6482 76.5533 54.7549 76.2233 54.7749 75.79C54.7815 75.69 54.7849 75.56 54.7849 75.4C54.7849 75.24 54.7815 75.11 54.7749 75.01C54.7549 74.5833 54.6482 74.2567 54.4549 74.03C54.2615 73.8033 53.9882 73.69 53.6349 73.69C53.2815 73.69 53.0049 73.8033 52.8049 74.03C52.6115 74.2567 52.5082 74.5833 52.4949 75.01C52.4882 75.11 52.4849 75.24 52.4849 75.4C52.4849 75.56 52.4882 75.69 52.4949 75.79C52.5082 76.2233 52.6115 76.5533 52.8049 76.78C53.0049 77 53.2815 77.11 53.6349 77.11ZM57.5047 79.9C57.4381 79.9 57.3814 79.8767 57.3347 79.83C57.2881 79.7833 57.2647 79.7267 57.2647 79.66V73.04C57.2647 72.9733 57.2881 72.9167 57.3347 72.87C57.3814 72.8233 57.4381 72.8 57.5047 72.8H58.2947C58.3681 72.8 58.4247 72.8233 58.4647 72.87C58.5114 72.9167 58.5347 72.9733 58.5347 73.04V73.44C58.6947 73.2267 58.9047 73.05 59.1647 72.91C59.4247 72.77 59.7481 72.7 60.1347 72.7C60.4881 72.7 60.7947 72.7567 61.0547 72.87C61.3147 72.9833 61.5314 73.1467 61.7047 73.36C61.8781 73.5667 62.0114 73.8133 62.1047 74.1C62.1981 74.3867 62.2514 74.7033 62.2647 75.05C62.2714 75.1633 62.2747 75.28 62.2747 75.4C62.2747 75.52 62.2714 75.64 62.2647 75.76C62.2581 76.0933 62.2081 76.4033 62.1147 76.69C62.0214 76.97 61.8847 77.2167 61.7047 77.43C61.5314 77.6367 61.3147 77.8 61.0547 77.92C60.7947 78.04 60.4881 78.1 60.1347 78.1C59.7747 78.1 59.4681 78.0367 59.2147 77.91C58.9614 77.7767 58.7547 77.6033 58.5947 77.39V79.66C58.5947 79.7267 58.5714 79.7833 58.5247 79.83C58.4847 79.8767 58.4281 79.9 58.3547 79.9H57.5047ZM59.7647 77.03C60.0514 77.03 60.2747 76.97 60.4347 76.85C60.5947 76.7233 60.7081 76.56 60.7747 76.36C60.8481 76.16 60.8914 75.94 60.9047 75.7C60.9181 75.5 60.9181 75.3 60.9047 75.1C60.8914 74.86 60.8481 74.64 60.7747 74.44C60.7081 74.24 60.5947 74.08 60.4347 73.96C60.2747 73.8333 60.0514 73.77 59.7647 73.77C59.4914 73.77 59.2681 73.8333 59.0947 73.96C58.9281 74.0867 58.8047 74.25 58.7247 74.45C58.6514 74.6433 58.6081 74.8433 58.5947 75.05C58.5881 75.17 58.5847 75.2967 58.5847 75.43C58.5847 75.5633 58.5881 75.6933 58.5947 75.82C58.6014 76.02 58.6481 76.2133 58.7347 76.4C58.8214 76.58 58.9481 76.73 59.1147 76.85C59.2814 76.97 59.4981 77.03 59.7647 77.03Z" fill="#282828"/>
<g clip-path="url(#clip0_750_9895)">
<path d="M27.4211 54.9931C25.7813 54.9107 24.1491 54.7002 22.5368 54.3631C20.2816 53.9757 18.0788 53.2856 15.9784 52.3086C14.1633 51.4183 12.2823 50.1138 11.4359 48.0593C10.4327 45.611 11.345 42.9436 12.5676 40.8172L12.6178 40.7282C20.5022 27.2474 28.8444 30.2435 32.274 30.2435C35.7037 30.2435 32.6158 14.15 45.6447 14.6431C51.1874 14.8554 57.2441 16.1634 61.9654 19.5157C65.5706 22.0769 67.5488 26.1893 64.4734 30.2401C62.7272 32.5993 60.6957 34.6538 58.9307 37.0233C57.1737 39.3636 55.2228 41.5219 53.1028 43.4709C49.7217 46.5818 45.9654 49.1707 41.9392 51.165C37.8198 53.2194 33.2898 54.7398 28.7503 54.9795C28.3114 55.0034 27.8663 55.0068 27.4211 54.9931Z" fill="#ECEEFD"/>
<path d="M19.7121 30.0826C19.6233 30.0619 19.5454 30.0042 19.495 29.9216C19.4446 29.8391 19.4258 29.7383 19.4425 29.6409C19.4425 28.8738 19.4425 28.1068 19.4425 27.3398C19.4425 26.9118 19.3014 26.7064 18.8907 26.7098C17.5427 26.7098 16.1957 26.7098 14.8498 26.7098C14.4422 26.7098 14.2949 26.905 14.3043 27.3398C14.3231 28.1068 14.3043 28.8738 14.3043 29.6409C14.3208 29.7384 14.3015 29.8392 14.2504 29.9212C14.1993 30.0033 14.1207 30.0601 14.0315 30.0791C11.8653 30.9146 10.8119 32.75 11.0282 35.2599C11.2132 37.4308 11.8214 39.4784 12.5236 41.5021C12.6473 41.8835 12.8804 42.2111 13.1882 42.4363C13.496 42.6615 13.8622 42.7721 14.2322 42.7519C15.1037 42.769 15.9784 42.7519 16.853 42.7519C17.7277 42.7519 18.6305 42.7519 19.5177 42.7519C19.8882 42.7723 20.2548 42.6618 20.5631 42.4367C20.8715 42.2115 21.1051 41.8838 21.2294 41.5021C21.9759 39.5203 22.4808 37.44 22.7311 35.3146C22.9693 32.7911 21.894 30.9044 19.7121 30.0826ZM18.6932 27.5692C18.6932 27.8021 18.6932 29.6066 18.6932 29.8771H15.0755C15.0755 29.6409 15.0755 27.8226 15.0755 27.5692H18.6932ZM14.4265 30.7982C14.6074 30.7526 14.7927 30.7307 14.9783 30.7332C16.2103 30.7332 17.4424 30.7332 18.6744 30.7332C19.4924 30.7346 20.2811 31.0655 20.8896 31.6626C21.4982 32.2596 21.8837 33.0808 21.9724 33.969C21.9714 34.0472 21.9542 34.1241 21.9222 34.194C21.8901 34.264 21.8441 34.3252 21.7875 34.373C21.3047 34.736 20.8093 35.0852 20.3046 35.4002C19.926 35.6603 19.4907 35.8051 19.0436 35.8195C18.5966 35.834 18.1542 35.7176 17.7622 35.4824C17.1602 35.14 16.5709 34.7976 15.9846 34.4552C15.4772 34.1244 14.8986 33.9464 14.3078 33.9392C13.7169 33.932 13.1348 34.0958 12.6208 34.4141C12.3575 34.5648 12.0878 34.7051 11.7806 34.8695C11.674 32.7945 12.696 31.257 14.4265 30.7982ZM19.4017 41.9403C17.7151 41.9403 16.0285 41.9403 14.3419 41.9403C13.6083 41.9403 13.2478 41.5979 13.1036 40.7796H20.6683C20.4551 41.6425 20.1385 41.9369 19.4017 41.9403ZM21.7937 36.7083C21.5701 37.6762 21.3266 38.6383 21.0633 39.5948C21.0333 39.6791 20.9852 39.7542 20.923 39.8139C20.8608 39.8735 20.7863 39.9158 20.7059 39.9372C18.1561 39.9555 15.6074 39.9555 13.0597 39.9372C12.9848 39.926 12.9137 39.8948 12.8524 39.8464C12.7912 39.7981 12.7418 39.734 12.7086 39.6599C12.3951 38.4888 12.1349 37.3109 11.8559 36.133C11.8359 36.0793 11.8268 36.0216 11.8293 35.9637C11.8318 35.9058 11.8457 35.8492 11.8701 35.7977C11.8946 35.7463 11.9289 35.7013 11.9709 35.6658C12.0128 35.6302 12.0612 35.6051 12.1129 35.592C12.4264 35.4413 12.7399 35.2496 13.0722 35.0715C13.4489 34.8573 13.8683 34.7486 14.2929 34.7552C14.7176 34.7618 15.134 34.8834 15.505 35.1092C16.1132 35.4516 16.7119 35.8248 17.3201 36.1741C17.8528 36.505 18.4596 36.6663 19.0719 36.6397C19.6842 36.6131 20.2774 36.3996 20.7843 36.0234C21.1699 35.7632 21.5523 35.4961 22.0194 35.1743C21.9348 35.7598 21.8972 36.2426 21.7937 36.7083Z" fill="#282828"/>
<path d="M20.6684 40.7796C20.4552 41.6424 20.1386 41.9369 19.4144 41.9403C17.7278 41.9403 16.0411 41.9403 14.3545 41.9403C13.6209 41.9403 13.2604 41.5979 13.1162 40.7796H20.6684Z" fill="#3D4EEA"/>
<path d="M22.0196 35.1811C21.935 35.7598 21.8974 36.2426 21.7939 36.7048C21.5703 37.6727 21.3268 38.6349 21.0635 39.5914C21.0335 39.6757 20.9854 39.7508 20.9232 39.8104C20.861 39.87 20.7865 39.9124 20.7061 39.9338C18.1563 39.9521 15.6076 39.9521 13.0599 39.9338C12.985 39.9226 12.9138 39.8914 12.8526 39.843C12.7914 39.7946 12.742 39.7306 12.7088 39.6564C12.3953 38.4854 12.1351 37.3075 11.8561 36.1296C11.8361 36.0759 11.827 36.0181 11.8295 35.9602C11.832 35.9024 11.8459 35.8457 11.8703 35.7943C11.8948 35.7429 11.9291 35.6979 11.971 35.6623C12.013 35.6268 12.0614 35.6017 12.1131 35.5886C12.4266 35.4379 12.7401 35.2462 13.0724 35.0681C13.4491 34.8539 13.8685 34.7452 14.2931 34.7518C14.7178 34.7583 15.1342 34.88 15.5052 35.1058C16.1133 35.4482 16.7121 35.8214 17.3203 36.1707C17.8527 36.5021 18.4594 36.664 19.0717 36.6379C19.6839 36.6119 20.2773 36.399 20.7845 36.0234C21.1701 35.7701 21.5525 35.503 22.0196 35.1811Z" fill="#3D4EEA"/>
<path d="M19.8467 26.8125C19.7997 26.1722 19.7684 25.5319 19.7276 24.8916C19.5521 22.1797 19.3796 19.4643 19.1947 16.749C19.1947 16.5833 19.1634 16.4195 19.1027 16.2677C19.0419 16.1159 18.9532 15.9795 18.8419 15.867C18.7306 15.7544 18.5993 15.6682 18.456 15.6138C18.3128 15.5593 18.1609 15.5378 18.0097 15.5505C17.3231 15.5505 16.6334 15.5505 15.9468 15.5505C15.1474 15.5505 14.7273 15.9785 14.6678 16.8517C14.4588 20.2211 14.2414 23.5904 14.0157 26.9597C13.9875 27.4357 14.1035 27.5658 14.5549 27.5727H15.8403C15.8403 29.997 15.8403 32.3425 15.8403 34.688C15.8349 34.7654 15.8233 34.8422 15.8058 34.9174C15.5863 36.2563 15.3637 37.5951 15.1474 38.934C15.0659 39.4305 15.1819 39.588 15.6522 39.5914C16.3544 39.5914 17.0566 39.5914 17.7589 39.5914C18.8624 39.5914 18.8342 39.5914 18.6586 38.4203C18.4172 36.7733 17.9846 35.1606 18.0316 33.4622C18.0724 31.6816 18.0316 29.8977 18.0316 28.1137V27.5692H19.1947C19.8185 27.5692 19.8969 27.4631 19.8467 26.8125ZM15.9218 38.7388C16.1161 37.5575 16.3074 36.3967 16.508 35.1948H17.3638C17.5582 36.3659 17.7526 37.5266 17.9564 38.7388H15.9218ZM16.5926 34.3456V27.5932H17.2886V34.3456H16.5926ZM14.7775 26.7372C14.7775 26.542 14.7963 26.3776 14.8057 26.2133C15.0095 23.1316 15.2164 20.0498 15.4076 16.9476C15.4327 16.5024 15.5989 16.3415 15.9907 16.3518C16.6522 16.3689 17.3106 16.3518 17.9689 16.3518C18.251 16.3518 18.4297 16.4613 18.4517 16.8072C18.668 20.0944 18.8874 23.385 19.11 26.7372H14.7775Z" fill="#282828"/>
<path d="M19.1104 26.7372H14.7778C14.7778 26.542 14.7966 26.3776 14.806 26.2133C15.0098 23.1316 15.2167 20.0498 15.408 16.9476C15.433 16.5024 15.5992 16.3415 15.9911 16.3518C16.6525 16.3689 17.3109 16.3518 17.9692 16.3518C18.2514 16.3518 18.4301 16.4613 18.452 16.8072C18.6683 20.0978 18.8878 23.3884 19.1104 26.7372Z" fill="#3D4EEA"/>
<path d="M17.9565 38.7388H15.9219C16.1162 37.5574 16.3075 36.3967 16.5081 35.1948H17.364C17.5583 36.3658 17.7527 37.5266 17.9565 38.7388Z" fill="#3D4EEA"/>
<path d="M60.1562 25.9394C60.0559 24.6211 59.0026 23.5425 58.432 23.1761C55.7641 21.5428 53.5885 19.0671 50.7921 17.7146C50.6917 17.5913 40.6473 12.8557 37.0201 11.0854C35.5467 10.3664 31.9226 9.89727 30.2893 10.0205C29.9319 10.0205 29.5714 10 29.2109 10.0205C28.8002 10.0479 28.1669 9.82194 28.1795 10.5718C28.192 11.3217 28.8284 11.1026 29.236 11.0889C31.0981 11.0272 34.9918 11.2669 36.7223 12.1367C40.2742 13.9172 46.2652 16.7284 49.8578 18.4576C50.0084 18.5499 50.167 18.6256 50.3312 18.6836C50.8109 18.8514 50.9582 19.2109 51.0178 19.7348C51.1656 20.9582 51.6214 22.1127 52.3345 23.0699C53.3533 24.5046 54.3816 25.9291 55.3942 27.3672C55.5536 27.5686 55.677 27.8009 55.7579 28.052C56.482 30.829 57.1874 33.6128 57.8959 36.3761C56.6889 37.5643 56.5103 38.0129 56.6419 39.8003C56.2375 39.1154 55.8519 38.6532 55.6513 38.0882C55.1434 36.7185 54.5697 35.3215 54.2938 33.8765C53.6668 30.651 52.4661 27.8158 50.3751 25.4292C49.9237 24.919 49.5663 24.3129 49.1619 23.7548C49.0647 23.6212 49.0741 23.4979 48.8484 23.3713C48.7446 23.3005 48.6234 23.2662 48.5012 23.2729C48.3791 23.2797 48.2617 23.3271 48.1649 23.4089C47.9863 23.5733 48.0301 23.7 48.074 23.9773C48.1396 24.1594 48.24 24.324 48.3687 24.4601C49.5004 26.0455 50.6384 27.6275 51.767 29.2163C51.9481 29.4339 52.0916 29.6857 52.1903 29.9593C52.8047 32.3151 53.4024 34.6755 53.9835 37.0404C54.0047 37.1255 54.0078 37.2148 53.9926 37.3015C53.9774 37.3881 53.9442 37.4698 53.8957 37.5403C52.9552 38.2457 52.6824 39.2524 52.7201 40.4371C51.7194 39.1836 51.043 37.6612 50.7607 36.0269C50.1525 32.6781 48.8797 29.7299 46.704 27.2576C46.2902 26.792 45.9955 26.0489 45.2463 26.4701C44.497 26.8913 44.845 27.5624 44.9986 28.1822C45.7291 31.0619 46.4721 33.9381 47.1931 36.8213C47.2495 37.0473 47.2778 37.4513 47.168 37.5369C46.2087 38.2799 45.914 39.2969 45.9987 40.557C45.6066 40.083 45.2803 39.5489 45.03 38.9716C44.5284 37.602 44.1083 36.1638 43.6663 34.7531C43.6287 34.6154 43.5783 34.4823 43.5158 34.3559C43.149 32.9862 42.3088 29.8155 42.0423 28.6513C42.0007 28.4256 41.906 28.2156 41.7674 28.0421C41.6289 27.8686 41.4514 27.7375 41.2523 27.6617C39.0578 26.6345 36.901 25.5661 34.7222 24.5286C32.6406 23.5356 31.4587 21.8441 31.2737 19.3513C31.2424 18.9438 31.1953 18.4576 30.7219 18.5398C30.6271 18.5697 30.5436 18.6322 30.4837 18.7178C30.3899 18.8413 30.3213 18.9852 30.2824 19.1399C30.2435 19.2945 30.2351 19.4565 30.258 19.615C30.2956 19.9129 30.3458 20.1971 30.4053 20.471L30.1326 20.3169C28.6685 19.5876 25.0445 19.1287 23.4112 19.2452C23.0538 19.2452 22.6933 19.2246 22.3359 19.2452C21.9221 19.2726 21.2888 19.0466 21.3045 19.793C21.3202 20.5395 21.9503 20.3272 22.361 20.3135C24.22 20.2484 28.1136 20.4881 29.8442 21.3407L30.8254 21.8304C31.4561 23.4714 32.6518 24.776 34.1547 25.4634C36.2176 26.4815 38.2929 27.4745 40.3808 28.4424C40.5998 28.5221 40.7944 28.6662 40.9432 28.8589C41.092 29.0516 41.1892 29.2855 41.2241 29.5347C41.4436 30.5825 42.3119 33.8765 42.6286 34.8935C42.6433 34.9394 42.6634 34.9831 42.6881 35.0236C42.9546 36.0097 43.2462 36.989 43.5126 37.9752C44.1177 40.2043 45.541 41.7212 47.1868 43.0429C47.7386 43.4846 48.8484 43.5189 49.2998 43.1319C49.8892 42.6252 49.5757 42.0259 49.4283 41.4473C48.7094 38.6166 47.9894 35.7849 47.2683 32.952C46.8953 31.4796 46.5285 30.0072 46.1586 28.5383C47.4126 30.1236 48.7104 31.5926 49.1587 33.7601C49.6066 35.806 50.2366 37.7992 51.0397 39.7112C51.4065 40.6221 52.2404 41.3137 52.8799 42.0842C53.0837 42.3307 53.3753 42.4882 53.5853 42.7313C53.8768 43.0399 54.2409 43.2542 54.6371 43.3503C55.0334 43.4465 55.4463 43.4206 55.83 43.2758C55.9326 43.2398 56.0276 43.1818 56.1095 43.1052C56.1914 43.0287 56.2586 42.9351 56.307 42.8299C56.3555 42.7247 56.3842 42.6101 56.3917 42.4926C56.3991 42.3752 56.3851 42.2573 56.3504 42.1458L56.0118 40.7419C56.5503 41.0407 57.0474 41.4211 57.4884 41.8719C57.789 42.1511 58.1536 42.3356 58.543 42.4055C58.9324 42.4755 59.3318 42.4283 59.6985 42.2691C59.8906 42.1834 60.0456 42.0209 60.1318 41.8148C60.218 41.6086 60.229 41.3743 60.1625 41.1596C60.0465 40.6357 59.9054 40.1324 59.7738 39.5982C59.6201 39.0024 59.4603 38.4101 59.3066 37.7732C60.5606 37.8451 60.7801 37.6294 60.7801 36.383C60.7832 32.4418 60.4603 29.86 60.1562 25.9394ZM47.6445 38.5676C47.958 39.8414 48.2715 41.009 48.585 42.2177C47.9925 42.3992 47.6132 42.2177 47.447 41.5842C47.3248 41.1151 47.2025 40.646 47.1085 40.1701C47.0425 39.875 47.0583 39.5652 47.1537 39.2799C47.2492 38.9946 47.42 38.7467 47.6445 38.5676ZM54.228 41.6904C53.9991 40.6631 53.3784 39.6359 54.3816 38.547C54.6951 39.8311 55.0086 41.0193 55.3221 42.2588C54.7547 42.3444 54.3471 42.2519 54.2217 41.6904H54.228ZM58.0244 40.7248C57.4476 39.1189 57.4696 38.3279 58.2063 37.6431C58.5198 38.8449 58.8176 40.0091 59.1468 41.2521C58.5887 41.3445 58.2219 41.2795 58.0244 40.7248ZM59.7518 36.6466C59.1812 36.6261 58.8301 36.3864 58.8395 35.7084C58.8395 35.2427 58.8395 34.7805 58.8395 34.3148C58.8382 34.0014 58.9246 33.6951 59.087 33.4369C59.2495 33.1786 59.4804 32.9808 59.7487 32.8698L59.7518 36.6466ZM59.5104 31.3769C59.4391 31.6407 59.289 31.871 59.0841 32.0309C58.9806 32.1165 58.0182 32.7157 58.0558 32.8493C57.7423 31.6816 57.3755 30.4729 57.1341 29.2299C56.8777 27.9111 56.314 26.6869 55.4977 25.6757C54.6794 24.6485 53.9302 23.5253 53.1684 22.4433C52.5612 21.6183 52.1634 20.6335 52.0147 19.5876C51.9977 19.5418 51.9882 19.4931 51.9865 19.4438C52.7765 19.7862 53.2906 20.721 53.9114 21.3099C54.5563 21.908 55.2291 22.4692 55.9271 22.9912C56.5259 23.4363 57.2125 23.7102 57.8081 24.1657C59.639 25.5764 59.4101 28.0418 59.5261 30.2127C59.5753 30.5993 59.57 30.992 59.5104 31.3769Z" fill="#282828"/>
<path d="M59.7518 32.8698V36.6364C59.1812 36.6158 58.8301 36.3761 58.8395 35.6981C58.8395 35.2325 58.8395 34.7702 58.8395 34.3045C58.8404 33.9925 58.9281 33.6882 59.091 33.4319C59.254 33.1757 59.4844 32.9796 59.7518 32.8698Z" fill="#3D4EEA"/>
<path d="M59.1377 41.2658C58.5891 41.3445 58.2223 41.2658 58.0248 40.7248C57.4479 39.1189 57.4699 38.3279 58.2066 37.6431C58.5169 38.8586 58.8179 40.0228 59.1377 41.2658Z" fill="#3D4EEA"/>
<path d="M55.3283 42.2588C54.7546 42.3444 54.3471 42.2588 54.2217 41.6904C53.9928 40.6631 53.3721 39.6359 54.3753 38.547C54.7045 39.8311 55.0086 41.0193 55.3283 42.2588Z" fill="#3D4EEA"/>
<path d="M48.5792 42.2177C47.9866 42.3992 47.6073 42.2177 47.4412 41.5842C47.3189 41.1151 47.1966 40.646 47.1026 40.1701C47.0373 39.8743 47.054 39.5641 47.1506 39.2787C47.2472 38.9934 47.4192 38.7458 47.6449 38.5676C47.971 39.8413 48.2719 41.009 48.5792 42.2177Z" fill="#3D4EEA"/>
</g>
<defs>
<clipPath id="clip0_750_9895">
<rect width="55" height="45" fill="white" transform="translate(11 10)"/>
</clipPath>
</defs>
</svg>
