<svg width="79" height="90" viewBox="0 0 79 90" fill="none" xmlns="http://www.w3.org/2000/svg">
<path d="M20.9358 78C20.8624 78 20.8024 77.9767 20.7558 77.93C20.7091 77.8833 20.6858 77.8267 20.6858 77.76V71.25C20.6858 71.1767 20.7091 71.1167 20.7558 71.07C20.8024 71.0233 20.8624 71 20.9358 71H21.7258C21.8191 71 21.8891 71.0267 21.9358 71.08C21.9824 71.1267 22.0124 71.1633 22.0258 71.19L23.9558 74.79L25.9058 71.19C25.9191 71.1633 25.9491 71.1267 25.9958 71.08C26.0424 71.0267 26.1124 71 26.2058 71H26.9858C27.0591 71 27.1191 71.0233 27.1658 71.07C27.2124 71.1167 27.2358 71.1767 27.2358 71.25V77.76C27.2358 77.8267 27.2124 77.8833 27.1658 77.93C27.1191 77.9767 27.0591 78 26.9858 78H26.1458C26.0724 78 26.0124 77.9767 25.9658 77.93C25.9258 77.8833 25.9058 77.8267 25.9058 77.76V73.43L24.5058 76.1C24.4724 76.16 24.4291 76.2133 24.3758 76.26C24.3224 76.3 24.2524 76.32 24.1658 76.32H23.7558C23.6624 76.32 23.5891 76.3 23.5358 76.26C23.4891 76.2133 23.4491 76.16 23.4158 76.1L22.0158 73.43V77.76C22.0158 77.8267 21.9924 77.8833 21.9458 77.93C21.8991 77.9767 21.8424 78 21.7758 78H20.9358ZM30.1812 78.1C29.8346 78.1 29.5212 78.0333 29.2412 77.9C28.9612 77.76 28.7379 77.5767 28.5712 77.35C28.4112 77.1167 28.3312 76.8567 28.3312 76.57C28.3312 76.1033 28.5179 75.7333 28.8912 75.46C29.2712 75.18 29.7712 74.9933 30.3912 74.9L31.7612 74.7V74.49C31.7612 74.21 31.6912 73.9933 31.5512 73.84C31.4112 73.6867 31.1712 73.61 30.8312 73.61C30.5912 73.61 30.3946 73.66 30.2412 73.76C30.0946 73.8533 29.9846 73.98 29.9112 74.14C29.8579 74.2267 29.7812 74.27 29.6812 74.27H28.8912C28.8179 74.27 28.7612 74.25 28.7212 74.21C28.6879 74.17 28.6712 74.1167 28.6712 74.05C28.6779 73.9433 28.7212 73.8133 28.8012 73.66C28.8812 73.5067 29.0079 73.36 29.1812 73.22C29.3546 73.0733 29.5779 72.95 29.8512 72.85C30.1246 72.75 30.4546 72.7 30.8412 72.7C31.2612 72.7 31.6146 72.7533 31.9012 72.86C32.1946 72.96 32.4279 73.0967 32.6012 73.27C32.7746 73.4433 32.9012 73.6467 32.9812 73.88C33.0612 74.1133 33.1012 74.36 33.1012 74.62V77.76C33.1012 77.8267 33.0779 77.8833 33.0312 77.93C32.9846 77.9767 32.9279 78 32.8612 78H32.0512C31.9779 78 31.9179 77.9767 31.8712 77.93C31.8312 77.8833 31.8112 77.8267 31.8112 77.76V77.37C31.7246 77.4967 31.6079 77.6167 31.4612 77.73C31.3146 77.8367 31.1346 77.9267 30.9212 78C30.7146 78.0667 30.4679 78.1 30.1812 78.1ZM30.5212 77.15C30.7546 77.15 30.9646 77.1 31.1512 77C31.3446 76.9 31.4946 76.7467 31.6012 76.54C31.7146 76.3267 31.7712 76.06 31.7712 75.74V75.53L30.7712 75.69C30.3779 75.75 30.0846 75.8467 29.8912 75.98C29.6979 76.1133 29.6012 76.2767 29.6012 76.47C29.6012 76.6167 29.6446 76.7433 29.7312 76.85C29.8246 76.95 29.9412 77.0267 30.0812 77.08C30.2212 77.1267 30.3679 77.15 30.5212 77.15ZM36.6341 78.1C36.1541 78.1 35.7308 78.01 35.3641 77.83C35.0041 77.65 34.7208 77.39 34.5141 77.05C34.3141 76.7033 34.2041 76.2867 34.1841 75.8C34.1775 75.7 34.1741 75.57 34.1741 75.41C34.1741 75.2433 34.1775 75.1067 34.1841 75C34.2041 74.5133 34.3141 74.1 34.5141 73.76C34.7208 73.4133 35.0041 73.15 35.3641 72.97C35.7308 72.79 36.1541 72.7 36.6341 72.7C37.0608 72.7 37.4241 72.76 37.7241 72.88C38.0241 73 38.2708 73.15 38.4641 73.33C38.6575 73.51 38.8008 73.7 38.8941 73.9C38.9941 74.0933 39.0475 74.27 39.0541 74.43C39.0608 74.5033 39.0375 74.5633 38.9841 74.61C38.9375 74.65 38.8808 74.67 38.8141 74.67H37.9341C37.8675 74.67 37.8141 74.6533 37.7741 74.62C37.7408 74.5867 37.7075 74.5367 37.6741 74.47C37.5741 74.2033 37.4408 74.0167 37.2741 73.91C37.1141 73.7967 36.9075 73.74 36.6541 73.74C36.3208 73.74 36.0541 73.8467 35.8541 74.06C35.6608 74.2667 35.5575 74.5967 35.5441 75.05C35.5308 75.3033 35.5308 75.5367 35.5441 75.75C35.5575 76.21 35.6608 76.5433 35.8541 76.75C36.0541 76.9567 36.3208 77.06 36.6541 77.06C36.9141 77.06 37.1241 77.0067 37.2841 76.9C37.4441 76.7867 37.5741 76.5967 37.6741 76.33C37.7075 76.2633 37.7408 76.2133 37.7741 76.18C37.8141 76.1467 37.8675 76.13 37.9341 76.13H38.8141C38.8808 76.13 38.9375 76.1533 38.9841 76.2C39.0375 76.24 39.0608 76.2967 39.0541 76.37C39.0475 76.49 39.0141 76.6267 38.9541 76.78C38.9008 76.9267 38.8108 77.08 38.6841 77.24C38.5641 77.3933 38.4108 77.5367 38.2241 77.67C38.0375 77.7967 37.8108 77.9 37.5441 77.98C37.2841 78.06 36.9808 78.1 36.6341 78.1ZM42.347 78.1C41.867 78.1 41.4437 78.01 41.077 77.83C40.717 77.65 40.4337 77.39 40.227 77.05C40.027 76.7033 39.917 76.2867 39.897 75.8C39.8903 75.7 39.887 75.57 39.887 75.41C39.887 75.2433 39.8903 75.1067 39.897 75C39.917 74.5133 40.027 74.1 40.227 73.76C40.4337 73.4133 40.717 73.15 41.077 72.97C41.4437 72.79 41.867 72.7 42.347 72.7C42.7737 72.7 43.137 72.76 43.437 72.88C43.737 73 43.9837 73.15 44.177 73.33C44.3703 73.51 44.5137 73.7 44.607 73.9C44.707 74.0933 44.7603 74.27 44.767 74.43C44.7737 74.5033 44.7503 74.5633 44.697 74.61C44.6503 74.65 44.5937 74.67 44.527 74.67H43.647C43.5803 74.67 43.527 74.6533 43.487 74.62C43.4537 74.5867 43.4203 74.5367 43.387 74.47C43.287 74.2033 43.1537 74.0167 42.987 73.91C42.827 73.7967 42.6203 73.74 42.367 73.74C42.0337 73.74 41.767 73.8467 41.567 74.06C41.3737 74.2667 41.2703 74.5967 41.257 75.05C41.2437 75.3033 41.2437 75.5367 41.257 75.75C41.2703 76.21 41.3737 76.5433 41.567 76.75C41.767 76.9567 42.0337 77.06 42.367 77.06C42.627 77.06 42.837 77.0067 42.997 76.9C43.157 76.7867 43.287 76.5967 43.387 76.33C43.4203 76.2633 43.4537 76.2133 43.487 76.18C43.527 76.1467 43.5803 76.13 43.647 76.13H44.527C44.5937 76.13 44.6503 76.1533 44.697 76.2C44.7503 76.24 44.7737 76.2967 44.767 76.37C44.7603 76.49 44.727 76.6267 44.667 76.78C44.6137 76.9267 44.5237 77.08 44.397 77.24C44.277 77.3933 44.1237 77.5367 43.937 77.67C43.7503 77.7967 43.5237 77.9 43.257 77.98C42.997 78.06 42.6937 78.1 42.347 78.1ZM47.3199 78.1C46.9732 78.1 46.6599 78.0333 46.3799 77.9C46.0999 77.76 45.8766 77.5767 45.7099 77.35C45.5499 77.1167 45.4699 76.8567 45.4699 76.57C45.4699 76.1033 45.6566 75.7333 46.0299 75.46C46.4099 75.18 46.9099 74.9933 47.5299 74.9L48.8999 74.7V74.49C48.8999 74.21 48.8299 73.9933 48.6899 73.84C48.5499 73.6867 48.3099 73.61 47.9699 73.61C47.7299 73.61 47.5332 73.66 47.3799 73.76C47.2332 73.8533 47.1232 73.98 47.0499 74.14C46.9966 74.2267 46.9199 74.27 46.8199 74.27H46.0299C45.9566 74.27 45.8999 74.25 45.8599 74.21C45.8266 74.17 45.8099 74.1167 45.8099 74.05C45.8166 73.9433 45.8599 73.8133 45.9399 73.66C46.0199 73.5067 46.1466 73.36 46.3199 73.22C46.4932 73.0733 46.7166 72.95 46.9899 72.85C47.2632 72.75 47.5932 72.7 47.9799 72.7C48.3999 72.7 48.7532 72.7533 49.0399 72.86C49.3332 72.96 49.5666 73.0967 49.7399 73.27C49.9132 73.4433 50.0399 73.6467 50.1199 73.88C50.1999 74.1133 50.2399 74.36 50.2399 74.62V77.76C50.2399 77.8267 50.2166 77.8833 50.1699 77.93C50.1232 77.9767 50.0666 78 49.9999 78H49.1899C49.1166 78 49.0566 77.9767 49.0099 77.93C48.9699 77.8833 48.9499 77.8267 48.9499 77.76V77.37C48.8632 77.4967 48.7466 77.6167 48.5999 77.73C48.4532 77.8367 48.2732 77.9267 48.0599 78C47.8532 78.0667 47.6066 78.1 47.3199 78.1ZM47.6599 77.15C47.8932 77.15 48.1032 77.1 48.2899 77C48.4832 76.9 48.6332 76.7467 48.7399 76.54C48.8532 76.3267 48.9099 76.06 48.9099 75.74V75.53L47.9099 75.69C47.5166 75.75 47.2232 75.8467 47.0299 75.98C46.8366 76.1133 46.7399 76.2767 46.7399 76.47C46.7399 76.6167 46.7832 76.7433 46.8699 76.85C46.9632 76.95 47.0799 77.0267 47.2199 77.08C47.3599 77.1267 47.5066 77.15 47.6599 77.15ZM51.2828 78C51.2228 78 51.1728 77.9833 51.1328 77.95C51.0928 77.9167 51.0728 77.8733 51.0728 77.82C51.0728 77.78 51.0895 77.7367 51.1228 77.69L52.7728 75.3L51.3328 73.11C51.3195 73.09 51.3095 73.07 51.3028 73.05C51.2961 73.0233 51.2928 73 51.2928 72.98C51.2928 72.9267 51.3095 72.8833 51.3428 72.85C51.3828 72.8167 51.4361 72.8 51.5028 72.8H52.3928C52.4728 72.8 52.5328 72.8167 52.5728 72.85C52.6128 72.8767 52.6461 72.9133 52.6728 72.96L53.8928 74.83H54.5028V73.04C54.5028 72.9733 54.5261 72.9167 54.5728 72.87C54.6195 72.8233 54.6761 72.8 54.7428 72.8H55.5528C55.6261 72.8 55.6828 72.8233 55.7228 72.87C55.7695 72.9167 55.7928 72.9733 55.7928 73.04V74.83H56.3828L57.6228 72.96C57.6428 72.9133 57.6728 72.8767 57.7128 72.85C57.7595 72.8167 57.8195 72.8 57.8928 72.8H58.7928C58.8528 72.8 58.9028 72.8167 58.9428 72.85C58.9828 72.8833 59.0028 72.9267 59.0028 72.98C59.0028 73 58.9961 73.0233 58.9828 73.05C58.9761 73.07 58.9661 73.09 58.9528 73.11L57.5128 75.3L59.1728 77.69C59.1995 77.73 59.2128 77.7733 59.2128 77.82C59.2128 77.8733 59.1928 77.9167 59.1528 77.95C59.1195 77.9833 59.0695 78 59.0028 78H58.0028C57.9228 78 57.8595 77.9833 57.8128 77.95C57.7728 77.9167 57.7428 77.8833 57.7228 77.85L56.3928 75.88H55.7928V77.76C55.7928 77.8267 55.7695 77.8833 55.7228 77.93C55.6828 77.9767 55.6261 78 55.5528 78H54.7428C54.6761 78 54.6195 77.9767 54.5728 77.93C54.5261 77.8833 54.5028 77.8267 54.5028 77.76V75.88H53.9028L52.5728 77.85C52.5528 77.8833 52.5195 77.9167 52.4728 77.95C52.4261 77.9833 52.3661 78 52.2928 78H51.2828Z" fill="#282828"/>
<g clip-path="url(#clip0_750_9913)">
<path d="M28.0855 55.0031C26.9506 54.9527 25.8193 54.8411 24.6964 54.6687C21.7149 54.2499 18.6519 53.5999 15.9525 52.2311C13.4977 50.9747 11.3532 48.8839 11.7044 45.94C11.8737 44.5211 12.5195 43.1898 13.2719 41.996C21.1694 29.6889 29.512 32.4109 32.9419 32.4109C36.3717 32.4109 33.2836 17.7224 46.3102 18.1724C51.8563 18.3662 57.9103 19.56 62.6318 22.6196C66.2372 24.9573 68.2186 28.7107 65.1556 32.4078C63.3842 34.5486 61.3621 36.4456 59.597 38.5957C57.839 40.731 55.888 42.7008 53.7687 44.4805C49.248 48.2913 44.0512 51.2244 38.4472 53.128C35.4218 54.1406 32.2772 54.8844 29.0794 54.9844C28.7471 55.0031 28.4147 55.0031 28.0855 55.0031Z" fill="#ECEEFD"/>
<path fill-rule="evenodd" clip-rule="evenodd" d="M18.4972 33.3972C18.6475 33.2574 18.8807 33.2572 19.0313 33.3968C20.4066 34.6712 21.2514 36.019 21.5195 37.4061C21.5497 37.5624 21.4818 37.7213 21.3478 37.8079C20.1822 38.5607 19.4493 39.8053 19.2285 41.5511C19.2039 41.7463 19.0373 41.8928 18.8399 41.8928C18.6425 41.8929 18.4758 41.7466 18.4509 41.5514C18.2213 39.7466 17.4449 38.475 16.208 37.7336C16.065 37.6478 15.9922 37.4813 16.0265 37.3185C16.3115 35.9657 17.1517 34.6483 18.4972 33.3972ZM18.7649 34.2247C17.7494 35.231 17.1248 36.2372 16.8563 37.2197C17.7734 37.8408 18.4362 38.7185 18.8392 39.8146C19.2225 38.7702 19.8423 37.9238 20.6949 37.3072C20.4391 36.2933 19.8095 35.2572 18.7649 34.2247Z" fill="#282828"/>
<path fill-rule="evenodd" clip-rule="evenodd" d="M18.3775 42.9466C18.4382 42.8006 18.5811 42.7054 18.7396 42.7054H18.7897C18.9571 42.7054 19.1061 42.8114 19.1604 42.9693C19.2147 43.1271 19.1625 43.302 19.0303 43.4044L19.0021 43.4263C18.8461 43.5472 18.6242 43.5335 18.4844 43.3942L18.4625 43.3723C18.3504 43.2606 18.3168 43.0925 18.3775 42.9466Z" fill="#282828"/>
<path fill-rule="evenodd" clip-rule="evenodd" d="M18.8406 41.2272C19.0384 41.2276 19.2049 41.375 19.2287 41.5708C19.2859 42.0404 19.3109 42.5134 19.3036 42.9864L19.1573 42.9841C19.1578 43.0148 19.1585 43.0454 19.1593 43.076L19.0038 43.0802L19.177 43.2681L19.061 43.3743C18.9886 43.4406 18.894 43.4773 18.7958 43.4773H18.7676C18.5553 43.4773 18.3816 43.3089 18.3758 43.0973C18.3618 42.5868 18.3869 42.0759 18.4509 41.5691C18.4755 41.3734 18.6427 41.2267 18.8406 41.2272Z" fill="#282828"/>
<path fill-rule="evenodd" clip-rule="evenodd" d="M12.5058 37.054C12.5499 39.0064 13.1104 40.4356 14.0753 41.3641C14.9428 42.1988 16.1855 42.6751 17.8057 42.7225C16.351 41.1515 15.7051 39.449 15.9741 37.7078C15.0684 37.2416 13.9065 37.0055 12.5058 37.054ZM12.0851 36.2934C13.8892 36.1709 15.4256 36.4677 16.6095 37.1657C16.7542 37.2509 16.8282 37.4187 16.7935 37.5826C16.427 39.3127 17.1177 41.0908 19.0037 42.8076C19.1199 42.9133 19.1613 43.0781 19.109 43.2259C19.0567 43.3738 18.9208 43.4762 18.7638 43.4859C16.5523 43.6231 14.7618 43.1105 13.531 41.9262C12.3012 40.743 11.6972 38.9538 11.7199 36.6792C11.7219 36.4753 11.881 36.3072 12.0851 36.2934Z" fill="#282828"/>
<path d="M18.8398 41.6147C18.7784 42.1018 18.7543 42.5928 18.7677 43.0835H18.7959H18.7458C16.7957 41.3084 16.0119 39.3989 16.4163 37.4988C17.777 38.3145 18.6109 39.6864 18.8461 41.5991L18.8398 41.6147Z" fill="#3D4EEA"/>
<path fill-rule="evenodd" clip-rule="evenodd" d="M16.2602 37.1405C16.3764 37.0902 16.5099 37.0989 16.6185 37.164C18.1013 38.0529 18.9883 39.5431 19.2352 41.5515C19.2415 41.6027 19.2376 41.6544 19.2238 41.7037C19.1743 42.1108 19.1519 42.5207 19.1568 42.9306C19.1769 42.9776 19.188 43.0293 19.188 43.0835C19.188 43.2993 19.0125 43.4742 18.7961 43.4742H18.7459C18.6481 43.4742 18.5539 43.4378 18.4817 43.372C16.4679 41.5389 15.5904 39.4979 16.0331 37.4177C16.0594 37.2942 16.144 37.1909 16.2602 37.1405ZM18.3925 42.1852C17.1624 40.8604 16.6243 39.5082 16.7152 38.1818C17.6509 38.9338 18.249 40.0569 18.4491 41.5823C18.4241 41.7827 18.4053 41.9838 18.3925 42.1852Z" fill="#282828"/>
<path fill-rule="evenodd" clip-rule="evenodd" d="M21.5615 37.792C21.8014 39.5047 21.1523 41.1791 19.7204 42.7234C21.4003 42.7032 22.6853 42.2323 23.5781 41.3866C24.5571 40.4592 25.1258 39.0231 25.1704 37.0549C23.685 37.0063 22.4846 37.2667 21.5615 37.792ZM18.5522 42.8211C18.5731 42.7755 18.6029 42.7338 18.6405 42.6987C20.4087 41.0447 21.0704 39.3345 20.7467 37.67C20.7163 37.5136 20.7842 37.3544 20.9184 37.2678C22.1235 36.4895 23.7015 36.171 25.59 36.2933C25.7946 36.3065 25.9544 36.4748 25.9564 36.6793C25.979 38.9714 25.3662 40.7706 24.118 41.953C22.8692 43.136 21.0536 43.636 18.8117 43.4763C18.6013 43.4613 18.4405 43.2829 18.448 43.0727C18.4515 42.9755 18.4904 42.8875 18.5522 42.8211Z" fill="#282828"/>
<path d="M18.912 42.9804C18.9191 42.5241 18.895 42.0678 18.8398 41.6147C19.0718 39.7802 19.8525 38.4207 21.1348 37.5957C21.4922 39.4302 20.7586 41.2678 18.912 42.9804Z" fill="#3D4EEA"/>
<path fill-rule="evenodd" clip-rule="evenodd" d="M21.2883 37.2363C21.408 37.2871 21.4946 37.3939 21.5194 37.5212C21.9103 39.5277 21.0906 41.4933 19.1788 43.2664C19.0638 43.3731 18.8961 43.401 18.7526 43.3374C18.6091 43.2737 18.5175 43.1309 18.52 42.9743C18.5268 42.5357 18.5037 42.0972 18.4507 41.6617L18.8397 41.6147L18.4509 41.5658C18.6941 39.6427 19.5225 38.168 20.9221 37.2674C21.0314 37.1971 21.1686 37.1854 21.2883 37.2363ZM19.2346 41.6167C19.2516 41.7622 19.2656 41.9081 19.2764 42.0542C20.3838 40.8186 20.8784 39.5587 20.8265 38.3173C19.9721 39.072 19.4261 40.1704 19.2346 41.6167Z" fill="#282828"/>
<path d="M58.6935 19.9038C58.6957 19.7076 58.6863 19.5114 58.6653 19.3163C58.6308 19.0194 58.543 18.835 58.1386 18.835C57.8 18.835 57.7247 18.9725 57.6213 19.3163C57.5809 19.5336 57.5693 19.7553 57.5868 19.9757C57.5868 23.453 57.5868 26.9314 57.5868 30.4108C57.5868 31.5765 57.3924 32.6953 56.7027 33.6641C55.0724 35.9643 52.6834 37.0581 50.053 37.7457C49.9233 37.8015 49.7876 37.8424 49.6486 37.8676C49.4605 37.8676 49.0466 38.0926 48.8303 37.4425C48.7707 37.0331 49.0874 36.9831 49.2755 36.8175C50.216 36.0018 51.1848 35.2267 52.1159 34.4048C53.5236 33.1547 54.182 31.6796 53.7776 29.7576C53.5581 28.7232 53.1004 28.3606 52.1347 28.7794C51.2663 29.1576 50.4198 29.5826 49.542 29.9295C49.5047 29.9431 49.4656 29.9504 49.426 29.9514C49.3345 29.9537 49.2438 29.9336 49.1619 29.8927C49.0801 29.8519 49.0096 29.7916 48.9566 29.7172C48.9036 29.6428 48.8698 29.5565 48.8582 29.466C48.8465 29.3755 48.8574 29.2835 48.8899 29.1982C48.9142 29.1257 48.9575 29.061 49.0153 29.0107C50.379 27.945 51.6895 26.7355 53.6584 27.0574C54.135 27.1356 54.3858 26.8418 54.3858 26.3418C54.3858 24.1541 54.3858 22.904 54.3325 20.7351C54.3325 20.507 54.392 20.0444 53.8246 20.0569C53.2571 20.0694 53.2885 20.532 53.2791 20.7757C53.232 22.5384 53.2791 23.3509 53.2791 25.1135C53.2791 25.3823 53.2791 25.6448 53.2791 25.9605L52.3981 25.9386C52.4545 25.6542 52.4984 25.4604 52.5266 25.2667C52.6959 23.9947 52.8401 22.6884 51.9968 21.6102C51.6253 21.0944 51.408 20.4844 51.3698 19.8507C51.0562 17.4568 49.9683 15.5879 47.6797 14.5378C47.45 14.416 47.2728 14.2149 47.1812 13.9721C46.7529 12.6859 45.8862 11.5899 44.7315 10.8746C43.5769 10.1592 42.2073 9.86964 40.8607 10.0563C39.1583 10.2969 37.5876 11.5064 36.2803 12.5564C34.8663 13.6784 33.2109 14.9441 32.3112 16.563C31.0884 18.7506 30.5617 21.3602 30.5555 23.8478C30.5555 24.5354 30.5555 25.2229 30.5555 25.9074C29.9284 26.1074 29.9911 25.7136 29.9911 25.3573C29.9911 23.5697 29.9911 22.7665 29.9911 20.982C29.9911 20.5664 29.9911 20.1132 29.4268 20.1195C28.8625 20.1257 28.8876 20.6007 28.8876 21.0039C28.8876 22.9634 28.8876 23.9416 28.8876 25.9042C28.8876 27.0387 28.9409 27.1543 30.0538 27.0762C31.0557 26.9927 32.0505 27.3034 32.8253 27.9419C33.2517 28.2794 33.7032 28.5919 34.1421 28.9201C34.4556 29.1451 34.8412 29.4295 34.5058 29.8014C34.3459 29.9764 33.8254 29.9608 33.537 29.8514C32.6748 29.5389 31.8566 29.0951 31.0101 28.7419C30.2326 28.4294 29.6902 28.7419 29.524 29.5482C29.1352 31.4234 29.5491 33.0391 31.0446 34.3142C32.0447 35.1705 32.8724 36.2862 34.0543 36.8706C34.3678 37.0269 34.4525 37.1363 34.4431 37.4488C34.3459 37.7613 33.9853 37.7613 33.7502 37.7613C33.3775 37.7955 33.0018 37.7475 32.6498 37.6207C31.3747 37.1348 30.1345 36.5626 28.9377 35.908C26.7149 34.5861 25.5894 32.6453 25.6646 29.9701C25.7587 26.5324 25.6866 23.1134 25.6834 19.685C25.6834 19.2881 25.7148 18.8162 25.1411 18.81C24.5673 18.8037 24.5799 19.26 24.5799 19.6882C24.5799 23.4384 24.5799 27.1887 24.5799 30.939C24.5604 32.1169 24.9124 33.2713 25.5863 34.2392C27.505 36.955 30.2608 38.327 33.4524 38.9051C33.8615 38.9923 34.2883 38.9357 34.6603 38.7449C35.0324 38.554 35.3267 38.2407 35.4933 37.8582C35.7692 37.1488 35.4338 36.5643 34.5998 35.858C33.4022 34.8361 32.2391 33.7516 31.1041 32.6453C30.2859 31.8515 30.5492 30.8483 30.6527 29.8014C31.6371 30.242 32.5087 30.6546 33.4022 31.0265C33.764 31.2023 34.1786 31.2376 34.5651 31.1255C34.9517 31.0135 35.2825 30.762 35.4933 30.4202C35.715 30.0721 35.7967 29.6535 35.7224 29.248C35.648 28.8425 35.4229 28.4799 35.092 28.2325C34.8318 28.0106 34.5591 27.8075 34.2926 27.6075C35.1712 25.7967 36.637 24.3344 38.4529 23.4572C39.9306 22.6946 41.3864 21.8873 42.8202 21.0351C42.9886 20.9184 43.1861 20.8505 43.3909 20.8389C43.5957 20.8273 43.7996 20.8725 43.9802 20.9695C46.4256 22.0602 47.9524 23.9447 48.8961 26.398C49.1783 27.1324 49.1501 27.5825 48.4415 28.0513C47.4696 28.695 47.2752 29.6139 47.78 30.4139C48.2848 31.214 49.103 31.3734 50.147 30.9108C50.9559 30.5546 51.7617 30.192 52.5925 29.8201C52.906 31.1515 52.7524 32.2734 51.7617 33.1641C50.7082 34.1017 49.6486 35.0392 48.5544 35.9487C47.9775 36.4206 47.5417 36.9112 47.7361 37.7082C47.8991 38.3801 48.5042 38.8489 49.3695 38.8895C49.8666 38.9118 50.364 38.8548 50.8431 38.7207C52.5541 38.2587 54.1637 37.4829 55.5897 36.4331C57.6808 34.8705 58.7813 32.861 58.7248 30.1827C58.6433 26.7605 58.6935 23.329 58.6935 19.9038ZM39.2273 21.8227C36.7882 22.9696 34.5998 24.376 33.3646 26.9199C33.0849 26.7203 32.7867 26.5476 32.4742 26.4043C31.8973 26.2011 31.7343 25.8167 31.6998 25.2386C31.5838 23.2853 31.6998 21.3508 32.3519 19.5038C32.9257 17.9005 33.6593 16.4442 34.86 15.2191C35.6909 14.3784 36.6439 13.6846 37.55 12.9283C38.384 12.2345 39.3339 11.5032 40.4218 11.2813C41.6759 11.0282 42.9299 11.0688 44.184 11.9064C42.5809 12.0209 41.0768 12.7222 39.9609 13.8753C39.9239 13.9121 39.8959 13.957 39.8794 14.0065C39.8509 14.0958 39.8454 14.1908 39.8633 14.2827C39.8812 14.3747 39.9219 14.4607 39.9818 14.5329C40.0418 14.605 40.1189 14.661 40.2062 14.6958C40.2934 14.7305 40.3881 14.7428 40.4814 14.7316C40.5373 14.7255 40.5928 14.7161 40.6475 14.7035C40.845 14.6534 40.9611 14.4566 41.1711 14.2972C41.9454 13.6769 42.868 13.2677 43.8485 13.1096C45.6168 12.8689 46.2657 13.5284 46.1905 15.441C46.1435 16.5942 45.391 17.4443 44.5978 18.2224C43.0226 19.714 41.2072 20.931 39.2273 21.8227ZM44.394 19.9476C45.7861 18.735 46.9805 17.5161 47.3474 15.6473C48.1815 16.0333 48.8883 16.6478 49.3852 17.4193C49.8272 18.1447 50.1144 18.9533 50.2286 19.7944L49.8774 19.9882C49.7799 20.0389 49.6957 20.1118 49.6318 20.201C49.5679 20.2902 49.5259 20.3932 49.5094 20.5016C49.4929 20.61 49.5023 20.7208 49.5369 20.8249C49.5714 20.929 49.6301 21.0235 49.7081 21.1008C49.7395 21.1298 49.7742 21.155 49.8116 21.1758C51.8808 22.2852 51.7303 23.851 51.2099 25.8792C51.1221 26.2261 50.6299 26.4699 50.238 26.8449C49.2034 23.6978 47.4759 21.3102 44.394 19.9351V19.9476Z" fill="#282828"/>
<path d="M51.2039 25.8792C51.1161 26.2261 50.6239 26.4699 50.232 26.8449C49.2068 23.6978 47.4793 21.3102 44.3975 19.9351C45.7895 18.7225 46.984 17.5036 47.3508 15.6348C48.1849 16.0208 48.8917 16.6353 49.3886 17.4068C49.8312 18.1362 50.1173 18.9492 50.2288 19.7944L49.8777 19.9882C49.7802 20.0389 49.696 20.1118 49.6321 20.201C49.5681 20.2902 49.5262 20.3932 49.5097 20.5016C49.4932 20.61 49.5026 20.7208 49.5371 20.8249C49.5717 20.929 49.6303 21.0235 49.7084 21.1008C49.7398 21.1298 49.7745 21.155 49.8119 21.1758C51.8748 22.2852 51.7243 23.851 51.2039 25.8792Z" fill="#3D4EEA"/>
<path d="M46.1905 15.441C46.1434 16.5942 45.391 17.4443 44.5978 18.2224C43.0226 19.714 41.2072 20.931 39.2273 21.8227C36.7881 22.9697 34.5998 24.376 33.3646 26.9199C33.0849 26.7203 32.7867 26.5476 32.4742 26.4043C31.8973 26.2011 31.7343 25.8167 31.6998 25.2386C31.5838 23.2853 31.6998 21.3508 32.3519 19.5038C32.9256 17.9005 33.6593 16.4442 34.86 15.2191C35.6908 14.3784 36.6439 13.6846 37.55 12.9283C38.3839 12.2345 39.3339 11.5032 40.4218 11.2813C41.6759 11.0282 42.9299 11.0688 44.184 11.9064C42.5808 12.0209 41.0768 12.7222 39.9609 13.8753C39.9239 13.9121 39.8959 13.957 39.8794 14.0065C39.8509 14.0958 39.8454 14.1908 39.8632 14.2827C39.8811 14.3747 39.9219 14.4607 39.9818 14.5329C40.0417 14.605 40.1189 14.661 40.2062 14.6958C40.2934 14.7305 40.3881 14.7428 40.4814 14.7316C40.5373 14.7255 40.5927 14.7161 40.6475 14.7035C40.845 14.6534 40.961 14.4566 41.1711 14.2972C41.9454 13.6769 42.868 13.2677 43.8485 13.1096C45.6167 12.8689 46.2657 13.5284 46.1905 15.441Z" fill="#3D4EEA"/>
<path d="M52.7153 46.9557C52.7025 46.0997 52.6407 45.2451 52.5303 44.3961C52.1698 42.1585 50.875 40.6646 48.696 39.9927C48.0188 39.7833 47.326 39.6177 46.6143 39.4458C45.6016 39.152 45.6048 38.9176 45.5954 37.4425C45.5687 37.2268 45.6076 37.0081 45.7071 36.8148C45.8066 36.6214 45.9621 36.4623 46.1534 36.3581C47.4553 35.5619 48.5338 34.4502 49.2886 33.1266C49.4924 32.7735 49.7432 32.3922 49.2635 32.0953C48.7838 31.7984 48.58 32.2015 48.323 32.5297C47.8021 33.2838 47.2156 33.9907 46.5704 34.6423C43.6798 37.2644 40.1151 37.3957 37.074 34.9549C36.2746 34.3298 35.6663 33.4329 34.9985 32.6391C34.7383 32.3266 34.5534 31.889 34.058 32.1859C33.5626 32.4828 33.8103 32.8735 34.0204 33.2235C34.7944 34.5056 35.8516 35.5948 37.1116 36.4081C37.3154 36.5456 37.5694 36.78 37.5851 36.9862C37.6446 37.7238 37.607 38.4645 37.607 39.2114C36.5504 39.4802 35.5503 39.6927 34.5784 39.9927C32.3838 40.6646 31.1047 42.1585 30.7441 44.3993C30.6283 45.2792 30.5645 46.1652 30.5529 47.0526C30.5529 47.2588 30.5529 47.2338 30.5529 47.4401C30.5529 47.5776 30.4871 47.8558 31.089 47.8495C31.691 47.8433 31.6627 47.562 31.669 47.4151C31.669 47.2151 31.669 47.2432 31.669 47.0432C31.669 47.0432 31.716 45.5212 31.8007 44.8149C32.0452 42.7804 33.1582 41.5209 35.1365 40.9897C36.0237 40.7521 36.9173 40.5209 37.8139 40.3209C38.09 40.2872 38.3415 40.1461 38.5136 39.9283C38.6857 39.7105 38.7644 39.4337 38.7325 39.1583C38.7325 38.552 38.7325 37.9457 38.7325 37.2456C40.5579 37.9958 42.6068 37.9958 44.4322 37.2456C44.4322 37.9488 44.4322 38.5426 44.4322 39.1395C44.3994 39.3765 44.4524 39.6175 44.5817 39.8191C44.7109 40.0207 44.9081 40.1698 45.1376 40.2396C45.2191 40.2721 45.3029 40.2982 45.3884 40.3177L45.6299 40.374C46.5704 40.6084 47.4733 40.8678 48.4013 41.0865C50.1696 41.6678 51.1697 42.896 51.4017 44.8087C51.4738 45.4337 51.4863 46.04 51.5145 46.6838H51.4832C51.4832 46.8932 51.4832 47.1026 51.4832 47.3088C51.4832 47.4464 51.4173 47.7245 52.0412 47.7182C52.6651 47.712 52.6495 47.437 52.6683 47.2932C52.7372 47.1026 52.709 47.1588 52.7153 46.9557Z" fill="#282828"/>
</g>
<defs>
<clipPath id="clip0_750_9913">
<rect width="55" height="45" fill="white" transform="translate(11.6665 10)"/>
</clipPath>
</defs>
</svg>
