<svg width="24" height="35" viewBox="0 0 24 35" fill="none" xmlns="http://www.w3.org/2000/svg">
<path fill-rule="evenodd" clip-rule="evenodd" d="M22.2831 18.1888C23.373 16.3817 24 14.2641 24 12C24 5.37258 18.6274 0 12 0C5.37258 0 0 5.37258 0 12C0 14.2567 0.622958 16.368 1.70629 18.1711L11.1338 34.5C11.5187 35.1667 12.4809 35.1667 12.8658 34.5L22.2831 18.1888Z" fill="#3D4EEA"/>
<path d="M12.1378 17C12.0351 17 11.9511 16.9673 11.8858 16.902C11.8298 16.8367 11.8018 16.7573 11.8018 16.664V9.412L9.67377 11.05C9.58977 11.106 9.50577 11.1293 9.42177 11.12C9.33777 11.1013 9.2631 11.05 9.19777 10.966L8.60977 10.21C8.55377 10.126 8.53043 10.0373 8.53977 9.944C8.55843 9.85067 8.60977 9.776 8.69377 9.72L11.8298 7.298C11.8858 7.25133 11.9418 7.22333 11.9978 7.214C12.0538 7.20467 12.1144 7.2 12.1798 7.2H13.4118C13.5051 7.2 13.5844 7.23267 13.6498 7.298C13.7151 7.36333 13.7478 7.44267 13.7478 7.536V16.664C13.7478 16.7573 13.7151 16.8367 13.6498 16.902C13.5844 16.9673 13.5051 17 13.4118 17H12.1378Z" fill="white"/>
</svg>
