<svg width="16" height="16" viewBox="0 0 16 16" fill="none" xmlns="http://www.w3.org/2000/svg">
<path d="M8.95041 2.60076L10.0196 4.67005C10.1533 5.0038 10.4874 5.20406 10.8216 5.27081L13.0937 5.60456C13.9624 5.73807 14.2965 6.80608 13.6951 7.40684L12.0244 8.94212C11.7571 9.20913 11.6235 9.54288 11.6903 9.87664L12.0913 12.0794C12.2249 12.9472 11.3562 13.6147 10.5542 13.2142L8.48262 12.1462C8.14849 12.0127 7.81435 12.0127 7.48022 12.1462L5.40859 13.2142C4.60667 13.6147 3.73792 12.9472 3.87158 12.0794L4.27254 9.87664C4.33936 9.54288 4.20571 9.14237 3.9384 8.94212L2.33456 7.34009C1.6663 6.73933 2.06726 5.67131 2.936 5.53781L5.20811 5.20406C5.54224 5.1373 5.87638 4.93705 6.01003 4.67005L7.01243 2.60076C7.48022 1.79975 8.54945 1.79975 8.95041 2.60076Z" fill="#3D4EEA"/>
</svg>
