<svg width="25" height="24" viewBox="0 0 25 24" fill="none" xmlns="http://www.w3.org/2000/svg">
<path d="M14.48 1.2722L16.7076 5.65422C16.986 6.36099 17.6821 6.78506 18.3782 6.92642L23.1118 7.63319C24.9217 7.9159 25.6178 10.1776 24.3648 11.4498L20.8842 14.701C20.3274 15.2664 20.0489 15.9732 20.1881 16.6799L21.0235 21.3447C21.3019 23.1823 19.492 24.5958 17.8213 23.7477L13.5055 21.486C12.8093 21.2033 12.1132 21.2033 11.4171 21.486L7.10123 23.7477C5.43056 24.5958 3.62067 23.1823 3.89912 21.3447L4.73445 16.6799C4.87368 15.9732 4.59523 15.125 4.03834 14.701L0.697007 11.3084C-0.695216 10.0362 0.140118 7.77455 1.95001 7.49184L6.68357 6.78506C7.37968 6.6437 8.07579 6.21964 8.35423 5.65422L10.4426 1.2722C11.4171 -0.424066 13.6447 -0.424066 14.48 1.2722Z" fill="#3D4EEA"/>
</svg>
