<svg width="78" height="90" viewBox="0 0 78 90" fill="none" xmlns="http://www.w3.org/2000/svg">
<path d="M20.729 78.1C20.109 78.1 19.5824 77.9933 19.149 77.78C18.7224 77.56 18.3957 77.25 18.169 76.85C17.9424 76.4433 17.8157 75.9567 17.789 75.39C17.7824 75.1167 17.779 74.8233 17.779 74.51C17.779 74.1967 17.7824 73.8967 17.789 73.61C17.8157 73.05 17.9424 72.5667 18.169 72.16C18.4024 71.7533 18.7324 71.4433 19.159 71.23C19.5924 71.01 20.1157 70.9 20.729 70.9C21.1824 70.9 21.589 70.96 21.949 71.08C22.309 71.2 22.6157 71.3667 22.869 71.58C23.1224 71.7867 23.319 72.03 23.459 72.31C23.599 72.59 23.6724 72.8933 23.679 73.22C23.6857 73.28 23.6657 73.33 23.619 73.37C23.579 73.41 23.529 73.43 23.469 73.43H22.519C22.4457 73.43 22.3857 73.4133 22.339 73.38C22.2924 73.34 22.259 73.2767 22.239 73.19C22.1324 72.75 21.949 72.45 21.689 72.29C21.429 72.13 21.1057 72.05 20.719 72.05C20.2724 72.05 19.9157 72.1767 19.649 72.43C19.3824 72.6767 19.239 73.0867 19.219 73.66C19.199 74.2067 19.199 74.7667 19.219 75.34C19.239 75.9133 19.3824 76.3267 19.649 76.58C19.9157 76.8267 20.2724 76.95 20.719 76.95C21.1057 76.95 21.429 76.87 21.689 76.71C21.949 76.5433 22.1324 76.2433 22.239 75.81C22.259 75.7167 22.2924 75.6533 22.339 75.62C22.3857 75.5867 22.4457 75.57 22.519 75.57H23.469C23.529 75.57 23.579 75.59 23.619 75.63C23.6657 75.67 23.6857 75.72 23.679 75.78C23.6724 76.1067 23.599 76.41 23.459 76.69C23.319 76.97 23.1224 77.2167 22.869 77.43C22.6157 77.6367 22.309 77.8 21.949 77.92C21.589 78.04 21.1824 78.1 20.729 78.1ZM26.335 78C26.2616 78 26.2016 77.9767 26.155 77.93C26.115 77.8833 26.095 77.8267 26.095 77.76V73.86H24.465C24.3916 73.86 24.3316 73.8367 24.285 73.79C24.245 73.7433 24.225 73.6867 24.225 73.62V73.04C24.225 72.9733 24.245 72.9167 24.285 72.87C24.3316 72.8233 24.3916 72.8 24.465 72.8H29.005C29.0783 72.8 29.1383 72.8233 29.185 72.87C29.2316 72.9167 29.255 72.9733 29.255 73.04V73.62C29.255 73.6867 29.2316 73.7433 29.185 73.79C29.1383 73.8367 29.0783 73.86 29.005 73.86H27.385V77.76C27.385 77.8267 27.3616 77.8833 27.315 77.93C27.2683 77.9767 27.2116 78 27.145 78H26.335ZM30.2977 79.9C30.231 79.9 30.1744 79.8767 30.1277 79.83C30.081 79.7833 30.0577 79.7267 30.0577 79.66V73.04C30.0577 72.9733 30.081 72.9167 30.1277 72.87C30.1744 72.8233 30.231 72.8 30.2977 72.8H31.0877C31.161 72.8 31.2177 72.8233 31.2577 72.87C31.3044 72.9167 31.3277 72.9733 31.3277 73.04V73.44C31.4877 73.2267 31.6977 73.05 31.9577 72.91C32.2177 72.77 32.541 72.7 32.9277 72.7C33.281 72.7 33.5877 72.7567 33.8477 72.87C34.1077 72.9833 34.3244 73.1467 34.4977 73.36C34.671 73.5667 34.8044 73.8133 34.8977 74.1C34.991 74.3867 35.0444 74.7033 35.0577 75.05C35.0644 75.1633 35.0677 75.28 35.0677 75.4C35.0677 75.52 35.0644 75.64 35.0577 75.76C35.051 76.0933 35.001 76.4033 34.9077 76.69C34.8144 76.97 34.6777 77.2167 34.4977 77.43C34.3244 77.6367 34.1077 77.8 33.8477 77.92C33.5877 78.04 33.281 78.1 32.9277 78.1C32.5677 78.1 32.261 78.0367 32.0077 77.91C31.7544 77.7767 31.5477 77.6033 31.3877 77.39V79.66C31.3877 79.7267 31.3644 79.7833 31.3177 79.83C31.2777 79.8767 31.221 79.9 31.1477 79.9H30.2977ZM32.5577 77.03C32.8444 77.03 33.0677 76.97 33.2277 76.85C33.3877 76.7233 33.501 76.56 33.5677 76.36C33.641 76.16 33.6844 75.94 33.6977 75.7C33.711 75.5 33.711 75.3 33.6977 75.1C33.6844 74.86 33.641 74.64 33.5677 74.44C33.501 74.24 33.3877 74.08 33.2277 73.96C33.0677 73.8333 32.8444 73.77 32.5577 73.77C32.2844 73.77 32.061 73.8333 31.8877 73.96C31.721 74.0867 31.5977 74.25 31.5177 74.45C31.4444 74.6433 31.401 74.8433 31.3877 75.05C31.381 75.17 31.3777 75.2967 31.3777 75.43C31.3777 75.5633 31.381 75.6933 31.3877 75.82C31.3944 76.02 31.441 76.2133 31.5277 76.4C31.6144 76.58 31.741 76.73 31.9077 76.85C32.0744 76.97 32.291 77.03 32.5577 77.03ZM36.4203 78C36.3603 78 36.3069 77.9767 36.2603 77.93C36.2136 77.8833 36.1903 77.83 36.1903 77.77V73.04C36.1903 72.9733 36.2136 72.9167 36.2603 72.87C36.3069 72.8233 36.3636 72.8 36.4303 72.8H37.2603C37.3336 72.8 37.3903 72.8233 37.4303 72.87C37.4769 72.9167 37.5003 72.9733 37.5003 73.04V76.99L37.1503 76.74L39.9003 72.96C39.9336 72.9133 39.9703 72.8767 40.0103 72.85C40.0503 72.8167 40.1036 72.8 40.1703 72.8H40.9303C40.9903 72.8 41.0436 72.8233 41.0903 72.87C41.1369 72.91 41.1603 72.96 41.1603 73.02V77.76C41.1603 77.8267 41.1369 77.8833 41.0903 77.93C41.0436 77.9767 40.9869 78 40.9203 78H40.0903C40.0169 78 39.9569 77.9767 39.9103 77.93C39.8703 77.8833 39.8503 77.8267 39.8503 77.76V73.99L40.2203 74.04L37.4503 77.84C37.4236 77.88 37.3869 77.9167 37.3403 77.95C37.3003 77.9833 37.2469 78 37.1803 78H36.4203ZM42.1807 78C42.1207 78 42.0707 77.9833 42.0307 77.95C41.9907 77.9167 41.9707 77.8733 41.9707 77.82C41.9707 77.78 41.9874 77.7367 42.0207 77.69L43.6707 75.3L42.2307 73.11C42.2174 73.09 42.2074 73.07 42.2007 73.05C42.1941 73.0233 42.1907 73 42.1907 72.98C42.1907 72.9267 42.2074 72.8833 42.2407 72.85C42.2807 72.8167 42.3341 72.8 42.4007 72.8H43.2907C43.3707 72.8 43.4307 72.8167 43.4707 72.85C43.5107 72.8767 43.5441 72.9133 43.5707 72.96L44.7907 74.83H45.4007V73.04C45.4007 72.9733 45.4241 72.9167 45.4707 72.87C45.5174 72.8233 45.5741 72.8 45.6407 72.8H46.4507C46.5241 72.8 46.5807 72.8233 46.6207 72.87C46.6674 72.9167 46.6907 72.9733 46.6907 73.04V74.83H47.2807L48.5207 72.96C48.5407 72.9133 48.5707 72.8767 48.6107 72.85C48.6574 72.8167 48.7174 72.8 48.7907 72.8H49.6907C49.7507 72.8 49.8007 72.8167 49.8407 72.85C49.8807 72.8833 49.9007 72.9267 49.9007 72.98C49.9007 73 49.8941 73.0233 49.8807 73.05C49.8741 73.07 49.8641 73.09 49.8507 73.11L48.4107 75.3L50.0707 77.69C50.0974 77.73 50.1107 77.7733 50.1107 77.82C50.1107 77.8733 50.0907 77.9167 50.0507 77.95C50.0174 77.9833 49.9674 78 49.9007 78H48.9007C48.8207 78 48.7574 77.9833 48.7107 77.95C48.6707 77.9167 48.6407 77.8833 48.6207 77.85L47.2907 75.88H46.6907V77.76C46.6907 77.8267 46.6674 77.8833 46.6207 77.93C46.5807 77.9767 46.5241 78 46.4507 78H45.6407C45.5741 78 45.5174 77.9767 45.4707 77.93C45.4241 77.8833 45.4007 77.8267 45.4007 77.76V75.88H44.8007L43.4707 77.85C43.4507 77.8833 43.4174 77.9167 43.3707 77.95C43.3241 77.9833 43.2641 78 43.1907 78H42.1807ZM51.2252 78C51.1585 78 51.1019 77.9767 51.0552 77.93C51.0085 77.8833 50.9852 77.8267 50.9852 77.76V73.04C50.9852 72.9733 51.0085 72.9167 51.0552 72.87C51.1019 72.8233 51.1585 72.8 51.2252 72.8H52.0452C52.1119 72.8 52.1685 72.8233 52.2152 72.87C52.2619 72.9167 52.2852 72.9733 52.2852 73.04V74.83H53.0052L54.2252 72.96C54.2519 72.9133 54.2852 72.8767 54.3252 72.85C54.3719 72.8167 54.4319 72.8 54.5052 72.8H55.3952C55.4619 72.8 55.5152 72.8167 55.5552 72.85C55.5952 72.8833 55.6152 72.9267 55.6152 72.98C55.6152 73 55.6085 73.0233 55.5952 73.05C55.5885 73.07 55.5785 73.09 55.5652 73.11L54.1252 75.3L55.7752 77.69C55.8085 77.73 55.8252 77.7733 55.8252 77.82C55.8252 77.8733 55.8052 77.9167 55.7652 77.95C55.7252 77.9833 55.6752 78 55.6152 78H54.6052C54.5385 78 54.4819 77.9867 54.4352 77.96C54.3952 77.9333 54.3585 77.8967 54.3252 77.85L53.0052 75.89H52.2852V77.76C52.2852 77.8267 52.2619 77.8833 52.2152 77.93C52.1685 77.9767 52.1119 78 52.0452 78H51.2252ZM58.2081 78.1C57.8614 78.1 57.5481 78.0333 57.2681 77.9C56.9881 77.76 56.7648 77.5767 56.5981 77.35C56.4381 77.1167 56.3581 76.8567 56.3581 76.57C56.3581 76.1033 56.5448 75.7333 56.9181 75.46C57.2981 75.18 57.7981 74.9933 58.4181 74.9L59.7881 74.7V74.49C59.7881 74.21 59.7181 73.9933 59.5781 73.84C59.4381 73.6867 59.1981 73.61 58.8581 73.61C58.6181 73.61 58.4214 73.66 58.2681 73.76C58.1214 73.8533 58.0114 73.98 57.9381 74.14C57.8848 74.2267 57.8081 74.27 57.7081 74.27H56.9181C56.8448 74.27 56.7881 74.25 56.7481 74.21C56.7148 74.17 56.6981 74.1167 56.6981 74.05C56.7048 73.9433 56.7481 73.8133 56.8281 73.66C56.9081 73.5067 57.0348 73.36 57.2081 73.22C57.3814 73.0733 57.6048 72.95 57.8781 72.85C58.1514 72.75 58.4814 72.7 58.8681 72.7C59.2881 72.7 59.6414 72.7533 59.9281 72.86C60.2214 72.96 60.4548 73.0967 60.6281 73.27C60.8014 73.4433 60.9281 73.6467 61.0081 73.88C61.0881 74.1133 61.1281 74.36 61.1281 74.62V77.76C61.1281 77.8267 61.1048 77.8833 61.0581 77.93C61.0114 77.9767 60.9548 78 60.8881 78H60.0781C60.0048 78 59.9448 77.9767 59.8981 77.93C59.8581 77.8833 59.8381 77.8267 59.8381 77.76V77.37C59.7514 77.4967 59.6348 77.6167 59.4881 77.73C59.3414 77.8367 59.1614 77.9267 58.9481 78C58.7414 78.0667 58.4948 78.1 58.2081 78.1ZM58.5481 77.15C58.7814 77.15 58.9914 77.1 59.1781 77C59.3714 76.9 59.5214 76.7467 59.6281 76.54C59.7414 76.3267 59.7981 76.06 59.7981 75.74V75.53L58.7981 75.69C58.4048 75.75 58.1114 75.8467 57.9181 75.98C57.7248 76.1133 57.6281 76.2767 57.6281 76.47C57.6281 76.6167 57.6714 76.7433 57.7581 76.85C57.8514 76.95 57.9681 77.0267 58.1081 77.08C58.2481 77.1267 58.3948 77.15 58.5481 77.15Z" fill="#282828"/>
<g clip-path="url(#clip0_750_9919)">
<path d="M27.419 54.9896C25.5684 54.8877 23.7278 54.6269 21.9137 54.2098C19.5968 53.7211 17.2549 53.0314 15.1512 51.8184C13.5084 50.8757 11.9126 49.5102 11.2793 47.5312C10.5112 45.1259 11.4454 42.5751 12.6211 40.5407C20.506 26.8958 28.8487 29.9284 32.2754 29.9284C35.7021 29.9284 32.6171 13.6391 45.6468 14.1382C51.1898 14.3531 57.2469 15.677 61.9684 19.07C65.5739 21.6624 67.5521 25.8249 64.4922 29.9249C62.7209 32.299 60.6987 34.4027 58.9305 36.7872C57.1741 39.1568 55.223 41.3415 53.1022 43.3133C46.5466 49.4166 38.0065 54.2237 29.3472 54.948C28.7056 55.0001 28.062 55.014 27.419 54.9896Z" fill="#ECEEFD"/>
<path d="M53.5379 46.4083C53.5241 45.3975 53.4582 44.3885 53.3404 43.3861C52.9579 40.7451 51.5816 38.9811 49.2647 38.1874C48.5436 37.9413 47.8068 37.7438 47.0481 37.5427C45.9696 37.1962 45.9728 36.9189 45.9634 35.1756C45.9409 34.87 46.0092 34.5646 46.1578 34.3057C47.6599 33.468 48.9325 32.202 49.8438 30.6385C50.7551 29.075 51.2721 27.2709 51.3415 25.4125C51.4108 23.5542 51.0298 21.7091 50.238 20.068C49.4463 18.4269 48.2723 17.0494 46.8376 16.0778C45.4029 15.1062 43.7596 14.5759 42.0773 14.5416C40.3951 14.5074 38.7352 14.9704 37.2691 15.8828C35.803 16.7953 34.5839 18.1241 33.738 19.7318C32.892 21.3395 32.4498 23.1678 32.4571 25.0277C32.4563 26.6494 32.7943 28.2495 33.4447 29.7031C33.5002 29.8732 33.5728 30.036 33.661 30.1883L33.7864 30.4032C34.6029 31.9301 35.7559 33.2035 37.1379 34.1047C37.2952 34.2326 37.4063 34.418 37.4514 34.628C37.5141 35.4979 37.4765 36.3609 37.4765 37.2551C36.351 37.5739 35.2819 37.8235 34.2504 38.177C31.9304 38.9707 30.551 40.7348 30.1747 43.3757C30.0543 44.3721 29.9873 45.3754 29.9741 46.3805C29.9741 46.6266 29.9741 46.592 29.9741 46.838C29.9741 47.0009 29.9082 47.3302 30.5478 47.3198C31.1874 47.3094 31.156 46.9732 31.1749 46.8103C31.1749 46.5746 31.1749 46.6058 31.1749 46.3701C31.1749 46.3701 31.225 44.7031 31.3159 43.8678C31.5762 41.4695 32.7581 39.9827 34.8649 39.3623C35.8055 39.0816 36.746 38.8078 37.7148 38.5686C37.8615 38.5489 38.0032 38.4974 38.1318 38.417C38.2604 38.3365 38.3734 38.2288 38.4643 38.1C38.5552 37.9712 38.6222 37.8239 38.6614 37.6664C38.7006 37.5089 38.7114 37.3444 38.693 37.1823C38.693 36.4649 38.693 35.7509 38.693 34.9226C40.4892 35.7519 42.4997 35.8161 44.3362 35.1028C44.4773 35.0578 44.6184 35.0092 44.7563 34.9573C44.7563 35.7787 44.7563 36.4753 44.7563 37.1719C44.7212 37.4516 44.7774 37.736 44.9147 37.9742C45.052 38.2123 45.2615 38.3886 45.5056 38.4716C45.5918 38.5115 45.681 38.5428 45.7721 38.5652L46.0292 38.631C47.0137 38.9048 47.9918 39.2133 48.9794 39.4732C49.563 39.6558 50.1058 39.9711 50.5728 40.399C51.0398 40.827 51.4208 41.358 51.6913 41.9582L51.7289 42.0483C51.7509 42.1037 51.7728 42.1592 51.7916 42.2146C52.24 43.4381 52.24 44.7482 52.2619 46.0929V46.1726C52.2619 46.2488 52.2619 46.3216 52.2619 46.3944C52.2619 46.54 52.2619 46.6855 52.2619 46.8276C52.2619 46.9697 52.1929 47.3198 52.8544 47.3094C53.516 47.299 53.5034 46.9628 53.5128 46.8103C53.5473 46.5816 53.5316 46.6474 53.5379 46.4083ZM45.3144 33.2209C44.1253 33.8636 42.8099 34.1685 41.4874 34.1079C40.1649 34.0474 38.8769 33.6234 37.7399 32.8743C37.4509 32.6724 37.1724 32.4525 36.9059 32.2158C36.1441 31.5226 35.5453 30.6319 34.9151 29.7897C34.1261 28.3546 33.7096 26.7071 33.7112 25.0277C33.69 23.8375 33.8838 22.6546 34.2811 21.5482C34.6785 20.4417 35.2715 19.434 36.0254 18.584C36.7794 17.734 37.6791 17.0588 38.6719 16.5978C39.6648 16.1368 40.7309 15.8994 41.8077 15.8994C42.8846 15.8994 43.9506 16.1368 44.9435 16.5978C45.9364 17.0588 46.8361 17.734 47.59 18.584C48.3439 19.434 48.9369 20.4417 49.3343 21.5482C49.7317 22.6546 49.9254 23.8375 49.9043 25.0277C49.9067 26.4725 49.6006 27.8974 49.0107 29.1867C48.9668 29.2525 48.9261 29.3184 48.8791 29.3842C48.3259 30.2739 47.7027 31.1077 47.0168 31.8762C46.4963 32.393 45.9253 32.844 45.3144 33.2209Z" fill="#282828"/>
<path d="M33.0498 45.3512C32.0873 45.3512 28.6919 45.372 28.6919 45.372C28.6919 44.4744 28.6919 41.4071 28.6919 37.8304H32.9902C32.9745 41.0779 32.9808 43.899 33.0498 45.3512Z" fill="#282828"/>
<path d="M55.5192 45.5453H51.2648C51.2648 41.2616 50.5939 25.7348 50.5939 21.3332H37.9937C38.0847 19.8949 38.1724 18.6229 38.2822 16.9351C36.7554 19.0146 36.6456 22.5254 33.1593 21.1738C33.1593 23.5166 33.0747 28.9094 33.0245 34.1081H28.6792C28.6792 29.3115 28.7074 24.591 28.7795 23.4508C29.2561 16.2384 34.6862 10.1282 40.6398 10C48.4056 9.83364 54.1523 15.0323 54.7856 23.1215C55.0709 26.7502 55.5192 41.6982 55.5192 45.5453Z" fill="#282828"/>
<path fill-rule="evenodd" clip-rule="evenodd" d="M27.3783 36.1218C27.38 36.4089 27.1709 36.6432 26.9111 36.6451L25.03 36.659C24.7703 36.6609 24.5584 36.4297 24.5567 36.1426C24.5549 35.8555 24.7641 35.6211 25.0238 35.6192L26.9049 35.6054C27.1646 35.6035 27.3765 35.8347 27.3783 36.1218Z" fill="#3D4EEA"/>
<path fill-rule="evenodd" clip-rule="evenodd" d="M33.5514 36.084C33.5529 36.3711 33.3436 36.6053 33.0839 36.607L32.1582 36.613C31.8985 36.6147 31.6867 36.3834 31.6852 36.0963C31.6836 35.8091 31.8929 35.575 32.1527 35.5733L33.0783 35.5672C33.338 35.5655 33.5498 35.7969 33.5514 36.084ZM30.7744 36.1022C30.7759 36.3893 30.5666 36.6235 30.3069 36.6252L29.3813 36.6312C29.1215 36.6329 28.9098 36.4016 28.9082 36.1144C28.9067 35.8273 29.116 35.5932 29.3757 35.5915L30.3013 35.5854C30.5611 35.5837 30.7729 35.8151 30.7744 36.1022Z" fill="#3D4EEA"/>
<path fill-rule="evenodd" clip-rule="evenodd" d="M36.6673 36.0628C36.6691 36.35 36.4599 36.5843 36.2002 36.5862L34.3191 36.6C34.0594 36.602 33.8474 36.3708 33.8457 36.0836C33.844 35.7965 34.0531 35.5622 34.3128 35.5603L36.1939 35.5465C36.4537 35.5445 36.6656 35.7757 36.6673 36.0628Z" fill="#3D4EEA"/>
<path fill-rule="evenodd" clip-rule="evenodd" d="M13.5999 27.4238C14.1897 27.2599 14.81 27.2885 15.3855 27.5064C15.9596 27.7238 16.4645 28.1202 16.8393 28.6476C17.2386 29.1581 17.4982 29.7838 17.5875 30.4515C17.6769 31.1196 17.5921 31.8021 17.3432 32.4188C17.34 32.4278 17.3367 32.4368 17.3335 32.4457C17.6759 32.71 18.0174 32.9765 18.3602 33.244C18.5179 33.3671 18.6759 33.4904 18.8344 33.6138L19.5615 33.0302L19.5653 33.0273C20.4021 32.3886 21.2345 31.7451 22.0691 31.0998C22.7301 30.5888 23.3925 30.0767 24.0597 29.565C24.3578 29.3249 24.6962 29.1531 25.0551 29.0595C25.4157 28.9654 25.7897 28.9522 26.155 29.0207C26.5203 29.0892 26.8694 29.238 27.1818 29.4582C27.4942 29.6785 27.7634 29.9657 27.9736 30.3029L28.194 30.6564L21.6151 35.7673L28.2008 40.856L27.9853 41.2092C27.7789 41.5475 27.513 41.8363 27.2033 42.0584C26.8937 42.2806 26.5468 42.4314 26.1832 42.502C25.8197 42.5725 25.447 42.5614 25.0875 42.4691C24.7296 42.3773 24.3921 42.2071 24.0948 41.9686C23.0289 41.1553 21.9677 40.3321 20.9067 39.509C20.5477 39.2305 20.1888 38.952 19.8297 38.674C19.8297 38.674 19.8297 38.674 19.8297 38.674L18.8386 37.9087L17.3222 39.0855C17.525 39.633 17.6149 40.2253 17.5833 40.8191L17.5832 40.8216L17.583 40.8242C17.5269 41.7025 17.1844 42.5286 16.619 43.1488C16.0536 43.7691 15.3038 44.1414 14.5089 44.1967C13.7139 44.252 12.9278 43.9865 12.2965 43.4494C11.6671 42.9139 11.2342 42.1446 11.0779 41.2838C10.9417 40.6345 10.9761 39.9556 11.177 39.327C11.3776 38.6993 11.7359 38.148 12.2098 37.7376C12.6624 37.3106 13.2133 37.0308 13.8013 36.9295C14.3912 36.8279 14.995 36.91 15.545 37.1665C16.1137 36.7381 16.679 36.3007 17.2588 35.8521C17.3012 35.8193 17.3436 35.7865 17.3862 35.7535C17.1312 35.5536 16.8759 35.3568 16.6195 35.1592L16.5988 35.1432C16.2613 34.8831 15.9219 34.6214 15.5837 34.3523L15.5752 34.3455L15.5669 34.3382C15.5655 34.337 15.5639 34.3362 15.5621 34.336C15.5603 34.3358 15.5585 34.3361 15.5569 34.337L15.5427 34.3448L15.5279 34.3513C15.1058 34.5369 14.6534 34.6238 14.1994 34.6066C13.7453 34.5893 13.2994 34.4682 12.8898 34.251C12.4802 34.0337 12.1157 33.725 11.8194 33.3443C11.5231 32.9636 11.3013 32.5191 11.1681 32.0389C11.0349 31.5588 10.9932 31.0533 11.0455 30.5544C11.0978 30.0555 11.2431 29.574 11.4721 29.1402C11.7012 28.7065 12.009 28.3299 12.3763 28.0342C12.7418 27.7399 13.1584 27.5321 13.5999 27.4238ZM18.0664 35.2257C18.1258 35.2727 18.1868 35.3291 18.2434 35.3815C18.2628 35.3995 18.2817 35.417 18.2999 35.4335L18.6994 35.7963L18.2754 36.1235C18.0861 36.2696 17.8982 36.415 17.7113 36.5596C17.1114 37.0238 16.522 37.4798 15.9296 37.9252L15.8994 37.9479L15.8659 37.9641C15.767 38.0118 15.6603 38.0364 15.5524 38.0364C15.4454 38.0364 15.3396 38.0122 15.2414 37.9653C14.8252 37.771 14.3683 37.7088 13.922 37.7857C13.4751 37.8626 13.0565 38.076 12.7133 38.4017L12.7062 38.4085L12.6988 38.4148C12.3394 38.7242 12.0677 39.1409 11.916 39.6156C11.7643 40.0904 11.7388 40.6032 11.8426 41.0935L11.8441 41.1006L11.8454 41.1078C11.9636 41.7657 12.2938 42.3537 12.7746 42.7628C13.2554 43.1718 13.8541 43.3741 14.4597 43.332C15.0652 43.2899 15.6363 43.0063 16.0669 42.5338C16.497 42.062 16.7578 41.4338 16.801 40.7657C16.8305 40.2023 16.7202 39.6408 16.4818 39.1417L16.3206 38.8042L18.8375 36.851L20.2793 37.9642C20.6397 38.2433 20.9995 38.5225 21.359 38.8013C22.4206 39.6249 23.4795 40.4464 24.544 41.2585L24.5482 41.2617L24.5523 41.265C24.7654 41.4367 25.0077 41.5592 25.2646 41.6251C25.5216 41.691 25.7879 41.699 26.0477 41.6486C26.3075 41.5982 26.5554 41.4904 26.7767 41.3316C26.8893 41.2508 26.9938 41.1577 27.0887 41.0538L20.2495 35.7692L27.0766 30.4654C26.9802 30.3618 26.8743 30.2691 26.7603 30.1887C26.5363 30.0308 26.2859 29.9241 26.0239 29.875C25.762 29.8259 25.4937 29.8353 25.2351 29.9028C24.9765 29.9702 24.7327 30.0943 24.5183 30.2677L24.5143 30.2709L24.5103 30.2739C23.8486 30.7814 23.1857 31.2939 22.5229 31.8063C21.6859 32.4535 20.8489 33.1005 20.0145 33.7374L18.8418 34.6786L18.6128 34.5008C18.3739 34.3153 18.1382 34.1313 17.9041 33.9486C17.4746 33.6134 17.0503 33.2823 16.6208 32.9531L16.3508 32.7461L16.488 32.4162C16.4922 32.406 16.4963 32.3961 16.5004 32.3863C16.5489 32.2697 16.5843 32.1846 16.6174 32.0917L16.6208 32.0821L16.6246 32.0728C16.815 31.6047 16.8801 31.086 16.8122 30.5783C16.7442 30.0705 16.5461 29.5949 16.2412 29.2077L16.2343 29.199L16.2279 29.1898C15.946 28.7904 15.565 28.4903 15.1315 28.3261C14.698 28.162 14.2306 28.1409 13.7864 28.2654L13.7804 28.2671L13.7743 28.2685C13.4363 28.3507 13.1174 28.5094 12.8377 28.7346C12.558 28.9598 12.3235 29.2467 12.149 29.577C11.9746 29.9074 11.8639 30.2742 11.8241 30.6542C11.7842 31.0342 11.816 31.4192 11.9175 31.7849C12.0189 32.1507 12.1878 32.4892 12.4135 32.7792C12.6392 33.0692 12.9168 33.3043 13.2288 33.4698C13.5408 33.6352 13.8804 33.7275 14.2263 33.7406C14.5679 33.7536 14.9083 33.6891 15.2265 33.5513C15.3577 33.4838 15.5033 33.4572 15.6474 33.4747C15.7937 33.4924 15.9326 33.5548 16.0486 33.6547C16.379 33.9174 16.7113 34.1737 17.047 34.4325L17.0696 34.4499C17.3996 34.7042 17.7329 34.9611 18.0664 35.2257ZM14.326 29.7689C14.0316 29.7659 13.7483 29.8922 13.5382 30.1201C13.3281 30.3481 13.2085 30.6589 13.2057 30.9843C13.2029 31.3097 13.3172 31.623 13.5234 31.8552C13.7296 32.0875 14.0108 32.2197 14.3051 32.2228C14.4509 32.2243 14.5955 32.194 14.7307 32.1338C14.8658 32.0735 14.989 31.9844 15.093 31.8715C15.197 31.7587 15.2799 31.6243 15.337 31.476C15.394 31.3277 15.4241 31.1685 15.4254 31.0074C15.4268 30.8462 15.3995 30.6864 15.3449 30.537C15.2904 30.3875 15.2098 30.2514 15.1077 30.1364C15.0056 30.0214 14.8841 29.9298 14.7499 29.8667C14.6158 29.8037 14.4718 29.7704 14.326 29.7689ZM12.9892 29.5017C13.3476 29.1128 13.8311 28.8973 14.3334 28.9025C14.582 28.9051 14.8278 28.9618 15.0567 29.0694C15.2855 29.177 15.493 29.3333 15.6671 29.5295C15.8413 29.7258 15.9789 29.958 16.0719 30.2129C16.1649 30.4679 16.2115 30.7406 16.2092 31.0155C16.2069 31.2904 16.1556 31.5621 16.0582 31.8151C15.9609 32.0681 15.8195 32.2974 15.642 32.49C15.4645 32.6825 15.2544 32.8345 15.0238 32.9373C14.7932 33.0402 14.5465 33.0918 14.2978 33.0892C13.7956 33.084 13.3158 32.8584 12.964 32.4621C12.6122 32.0659 12.4172 31.5314 12.422 30.9762C12.4267 30.421 12.6307 29.8906 12.9892 29.5017ZM14.7143 39.3968C14.5104 39.3036 14.2861 39.2795 14.0698 39.3275C13.8535 39.3755 13.655 39.4935 13.4995 39.6665C13.344 39.8395 13.2385 40.0597 13.1964 40.2991C13.1543 40.5385 13.1775 40.7864 13.2631 41.0111C13.3487 41.2359 13.4928 41.4275 13.6771 41.5616C13.8614 41.6956 14.0776 41.7661 14.2982 41.7641L14.3015 41.7641L14.3088 41.7641C14.5988 41.7549 14.8744 41.6222 15.0782 41.3937C15.2826 41.1644 15.3986 40.8564 15.4019 40.5346C15.4021 40.2913 15.3369 40.0534 15.2148 39.851C15.0924 39.6481 14.9182 39.49 14.7143 39.3968ZM13.9155 38.478C14.2841 38.3962 14.6664 38.4373 15.0138 38.5962C15.3613 38.755 15.6582 39.0244 15.8668 39.3702C16.0755 39.7159 16.1865 40.1225 16.1857 40.5381L16.1857 40.5415C16.1807 41.0886 15.9838 41.6121 15.6364 42.0018C15.2891 42.3915 14.8184 42.6169 14.3237 42.6304L14.3189 42.6305H14.3031C13.9277 42.6336 13.5599 42.5135 13.2463 42.2854C12.9322 42.0569 12.6866 41.7304 12.5407 41.3473C12.3949 40.9642 12.3553 40.5419 12.427 40.1339C12.4987 39.7259 12.6785 39.3506 12.9435 39.0558C13.2085 38.761 13.5468 38.5599 13.9155 38.478Z" fill="#282828"/>
<path d="M15.8062 40.5372C15.8062 40.9775 15.648 41.3998 15.3664 41.7111C15.0847 42.0224 14.7028 42.1973 14.3045 42.1973C13.9062 42.1973 13.5242 42.0224 13.2426 41.7111C12.961 41.3998 12.8027 40.9775 12.8027 40.5372C12.8044 40.0932 12.9642 39.6677 13.2477 39.3531C13.5311 39.0384 13.9153 38.8599 14.317 38.8563C14.5146 38.8586 14.7099 38.9038 14.8917 38.9895C15.0735 39.0752 15.2383 39.1997 15.3766 39.3558C15.5148 39.5119 15.624 39.6965 15.6977 39.8992C15.7714 40.102 15.8083 40.3187 15.8062 40.5372Z" fill="#3D4EEA"/>
<path fill-rule="evenodd" clip-rule="evenodd" d="M14.3172 38.423L14.3209 38.4231C14.57 38.4259 14.8161 38.483 15.0453 38.591C15.2744 38.699 15.482 38.8559 15.6563 39.0526C15.8306 39.2494 15.9682 39.4821 16.0611 39.7376C16.1538 39.9924 16.2002 40.2649 16.1979 40.5395C16.1974 41.0938 15.9979 41.6254 15.6433 42.0174C15.2882 42.41 14.8065 42.6305 14.3043 42.6305C13.8021 42.6305 13.3204 42.41 12.9653 42.0174C12.6102 41.6248 12.4106 41.0924 12.4106 40.5372V40.5354H12.4106C12.4127 39.9774 12.6136 39.4428 12.9698 39.0474C13.326 38.652 13.8088 38.4277 14.3136 38.4231L14.3172 38.423ZM15.806 40.5372L15.4141 40.5327C15.4157 40.3711 15.3884 40.2108 15.3339 40.0608C15.2794 39.9109 15.1986 39.7743 15.0964 39.6589C14.9941 39.5435 14.8723 39.4514 14.7378 39.388C14.6045 39.3252 14.4613 39.2917 14.3164 39.2895C14.0191 39.2933 13.735 39.4258 13.5252 39.6588C13.3147 39.8924 13.1959 40.2083 13.1944 40.5381C13.1946 40.8632 13.3116 41.1749 13.5195 41.4047C13.7276 41.6348 14.0099 41.7641 14.3043 41.7641C14.5986 41.7641 14.8809 41.6348 15.0891 41.4047C15.2972 41.1747 15.4141 40.8626 15.4141 40.5372H15.806Z" fill="#282828"/>
<path d="M15.8062 31.0062C15.8043 31.3353 15.7139 31.6563 15.5467 31.9285C15.3794 32.2007 15.1427 32.4118 14.8667 32.535C14.5907 32.6582 14.2878 32.6879 13.9964 32.6204C13.7051 32.5529 13.4384 32.3912 13.2304 32.1559C13.0224 31.9205 12.8823 31.6221 12.828 31.2986C12.7736 30.975 12.8075 30.6409 12.9253 30.3387C13.0431 30.0365 13.2395 29.7798 13.4895 29.6012C13.7395 29.4226 14.0319 29.3302 14.3295 29.3357C14.7246 29.3448 15.1006 29.5249 15.3767 29.8373C15.6529 30.1497 15.8071 30.5695 15.8062 31.0062Z" fill="#3D4EEA"/>
<path fill-rule="evenodd" clip-rule="evenodd" d="M14.322 29.7689C14.1023 29.765 13.8865 29.8333 13.702 29.9651C13.5172 30.0971 13.3721 30.2868 13.285 30.5101C13.198 30.7335 13.1729 30.9804 13.2131 31.2195C13.2532 31.4586 13.3567 31.6791 13.5105 31.8531C13.6642 32.027 13.8613 32.1465 14.0766 32.1964C14.2919 32.2463 14.5158 32.2243 14.7198 32.1333C14.9238 32.0422 15.0987 31.8862 15.2223 31.6851C15.3458 31.4842 15.4125 31.2473 15.4141 31.0044C15.4146 30.6814 15.3005 30.3711 15.0962 30.1401C14.8921 29.9091 14.6141 29.7758 14.322 29.7689ZM13.2766 29.2374C13.5919 29.0122 13.9606 28.8956 14.3359 28.9026L14.3375 28.9026V28.9026C14.8352 28.914 15.3089 29.1409 15.6568 29.5345C16.0047 29.9281 16.199 30.4569 16.1979 31.0072L16.1979 31.009C16.1955 31.4239 16.0816 31.8287 15.8706 32.172C15.6597 32.5152 15.3613 32.7814 15.0132 32.9367C14.6652 33.0921 14.2832 33.1296 13.9158 33.0444C13.5484 32.9593 13.2122 32.7554 12.9499 32.4586C12.6876 32.1619 12.5109 31.7856 12.4424 31.3776C12.3739 30.9697 12.4167 30.5484 12.5652 30.1673C12.7137 29.7862 12.9613 29.4625 13.2766 29.2374Z" fill="#282828"/>
<path d="M19.4493 36.4753C19.7506 36.4753 19.9948 36.2053 19.9948 35.8722C19.9948 35.5392 19.7506 35.2692 19.4493 35.2692C19.148 35.2692 18.9038 35.5392 18.9038 35.8722C18.9038 36.2053 19.148 36.4753 19.4493 36.4753Z" fill="#3D4EEA"/>
<path fill-rule="evenodd" clip-rule="evenodd" d="M19.4493 35.4425C19.2346 35.4425 19.0606 35.6349 19.0606 35.8722C19.0606 36.1096 19.2346 36.302 19.4493 36.302C19.6641 36.302 19.8381 36.1096 19.8381 35.8722C19.8381 35.6349 19.6641 35.4425 19.4493 35.4425ZM18.7471 35.8722C18.7471 35.4435 19.0615 35.0959 19.4493 35.0959C19.8372 35.0959 20.1516 35.4435 20.1516 35.8722C20.1516 36.301 19.8372 36.6486 19.4493 36.6486C19.0615 36.6486 18.7471 36.301 18.7471 35.8722Z" fill="#282828"/>
</g>
<defs>
<clipPath id="clip0_750_9919">
<rect width="55" height="45" fill="white" transform="translate(11 10)"/>
</clipPath>
</defs>
</svg>
