<svg width="78" height="90" viewBox="0 0 78 90" fill="none" xmlns="http://www.w3.org/2000/svg">
<path d="M12.3511 78C12.2844 78 12.2277 77.9767 12.1811 77.93C12.1344 77.8833 12.1111 77.8267 12.1111 77.76V71.25C12.1111 71.1767 12.1344 71.1167 12.1811 71.07C12.2277 71.0233 12.2844 71 12.3511 71H16.9311C17.0044 71 17.0611 71.0233 17.1011 71.07C17.1477 71.1167 17.1711 71.1767 17.1711 71.25V71.95C17.1711 72.0167 17.1477 72.0733 17.1011 72.12C17.0611 72.1667 17.0044 72.19 16.9311 72.19H13.5011V73.79H15.1911C15.9444 73.79 16.5344 73.9767 16.9611 74.35C17.3877 74.7233 17.6011 75.23 17.6011 75.87C17.6011 76.1433 17.5477 76.41 17.4411 76.67C17.3411 76.9233 17.1911 77.15 16.9911 77.35C16.7911 77.55 16.5411 77.71 16.2411 77.83C15.9411 77.9433 15.5911 78 15.1911 78H12.3511ZM13.5011 76.94H15.0511C15.2911 76.94 15.4944 76.89 15.6611 76.79C15.8277 76.69 15.9544 76.5567 16.0411 76.39C16.1277 76.2233 16.1711 76.0433 16.1711 75.85C16.1711 75.5567 16.0777 75.3133 15.8911 75.12C15.7044 74.9267 15.4244 74.83 15.0511 74.83H13.5011V76.94ZM19.9854 78.1C19.6388 78.1 19.3254 78.0333 19.0454 77.9C18.7654 77.76 18.5421 77.5767 18.3754 77.35C18.2154 77.1167 18.1354 76.8567 18.1354 76.57C18.1354 76.1033 18.3221 75.7333 18.6954 75.46C19.0754 75.18 19.5754 74.9933 20.1954 74.9L21.5654 74.7V74.49C21.5654 74.21 21.4954 73.9933 21.3554 73.84C21.2154 73.6867 20.9754 73.61 20.6354 73.61C20.3954 73.61 20.1988 73.66 20.0454 73.76C19.8988 73.8533 19.7888 73.98 19.7154 74.14C19.6621 74.2267 19.5854 74.27 19.4854 74.27H18.6954C18.6221 74.27 18.5654 74.25 18.5254 74.21C18.4921 74.17 18.4754 74.1167 18.4754 74.05C18.4821 73.9433 18.5254 73.8133 18.6054 73.66C18.6854 73.5067 18.8121 73.36 18.9854 73.22C19.1588 73.0733 19.3821 72.95 19.6554 72.85C19.9288 72.75 20.2588 72.7 20.6454 72.7C21.0654 72.7 21.4188 72.7533 21.7054 72.86C21.9988 72.96 22.2321 73.0967 22.4054 73.27C22.5788 73.4433 22.7054 73.6467 22.7854 73.88C22.8654 74.1133 22.9054 74.36 22.9054 74.62V77.76C22.9054 77.8267 22.8821 77.8833 22.8354 77.93C22.7888 77.9767 22.7321 78 22.6654 78H21.8554C21.7821 78 21.7221 77.9767 21.6754 77.93C21.6354 77.8833 21.6154 77.8267 21.6154 77.76V77.37C21.5288 77.4967 21.4121 77.6167 21.2654 77.73C21.1188 77.8367 20.9388 77.9267 20.7254 78C20.5188 78.0667 20.2721 78.1 19.9854 78.1ZM20.3254 77.15C20.5588 77.15 20.7688 77.1 20.9554 77C21.1488 76.9 21.2988 76.7467 21.4054 76.54C21.5188 76.3267 21.5754 76.06 21.5754 75.74V75.53L20.5754 75.69C20.1821 75.75 19.8888 75.8467 19.6954 75.98C19.5021 76.1133 19.4054 76.2767 19.4054 76.47C19.4054 76.6167 19.4488 76.7433 19.5354 76.85C19.6288 76.95 19.7454 77.0267 19.8854 77.08C20.0254 77.1267 20.1721 77.15 20.3254 77.15ZM24.4383 79.9C24.3717 79.9 24.315 79.8767 24.2683 79.83C24.2217 79.7833 24.1983 79.7267 24.1983 79.66V73.04C24.1983 72.9733 24.2217 72.9167 24.2683 72.87C24.315 72.8233 24.3717 72.8 24.4383 72.8H25.2283C25.3017 72.8 25.3583 72.8233 25.3983 72.87C25.445 72.9167 25.4683 72.9733 25.4683 73.04V73.44C25.6283 73.2267 25.8383 73.05 26.0983 72.91C26.3583 72.77 26.6817 72.7 27.0683 72.7C27.4217 72.7 27.7283 72.7567 27.9883 72.87C28.2483 72.9833 28.465 73.1467 28.6383 73.36C28.8117 73.5667 28.945 73.8133 29.0383 74.1C29.1317 74.3867 29.185 74.7033 29.1983 75.05C29.205 75.1633 29.2083 75.28 29.2083 75.4C29.2083 75.52 29.205 75.64 29.1983 75.76C29.1917 76.0933 29.1417 76.4033 29.0483 76.69C28.955 76.97 28.8183 77.2167 28.6383 77.43C28.465 77.6367 28.2483 77.8 27.9883 77.92C27.7283 78.04 27.4217 78.1 27.0683 78.1C26.7083 78.1 26.4017 78.0367 26.1483 77.91C25.895 77.7767 25.6883 77.6033 25.5283 77.39V79.66C25.5283 79.7267 25.505 79.7833 25.4583 79.83C25.4183 79.8767 25.3617 79.9 25.2883 79.9H24.4383ZM26.6983 77.03C26.985 77.03 27.2083 76.97 27.3683 76.85C27.5283 76.7233 27.6417 76.56 27.7083 76.36C27.7817 76.16 27.825 75.94 27.8383 75.7C27.8517 75.5 27.8517 75.3 27.8383 75.1C27.825 74.86 27.7817 74.64 27.7083 74.44C27.6417 74.24 27.5283 74.08 27.3683 73.96C27.2083 73.8333 26.985 73.77 26.6983 73.77C26.425 73.77 26.2017 73.8333 26.0283 73.96C25.8617 74.0867 25.7383 74.25 25.6583 74.45C25.585 74.6433 25.5417 74.8433 25.5283 75.05C25.5217 75.17 25.5183 75.2967 25.5183 75.43C25.5183 75.5633 25.5217 75.6933 25.5283 75.82C25.535 76.02 25.5817 76.2133 25.6683 76.4C25.755 76.58 25.8817 76.73 26.0483 76.85C26.215 76.97 26.4317 77.03 26.6983 77.03ZM32.6809 78.1C32.1276 78.1 31.6676 78.0033 31.3009 77.81C30.9409 77.61 30.6709 77.32 30.4909 76.94C30.3109 76.56 30.2076 76.0967 30.1809 75.55C30.1809 75.3567 30.1809 75.1567 30.1809 74.95C30.1809 74.7433 30.1809 74.5433 30.1809 74.35C30.1942 73.7633 30.2509 73.2767 30.3509 72.89C30.4576 72.4967 30.6142 72.1733 30.8209 71.92C31.0276 71.66 31.2942 71.4467 31.6209 71.28C31.9476 71.1067 32.3342 70.9567 32.7809 70.83C33.2276 70.7033 33.7442 70.57 34.3309 70.43C34.3976 70.4167 34.4576 70.4267 34.5109 70.46C34.5709 70.4933 34.6042 70.5467 34.6109 70.62L34.7409 71.28C34.7542 71.3467 34.7442 71.4067 34.7109 71.46C34.6776 71.5067 34.6309 71.5367 34.5709 71.55C34.0642 71.6633 33.6276 71.7667 33.2609 71.86C32.8942 71.9467 32.5909 72.0467 32.3509 72.16C32.1109 72.2733 31.9209 72.4233 31.7809 72.61C31.6476 72.79 31.5542 73.0267 31.5009 73.32C31.4476 73.6133 31.4309 73.99 31.4509 74.45L31.2209 74.26C31.2609 74.0533 31.3642 73.8633 31.5309 73.69C31.6976 73.5167 31.9009 73.38 32.1409 73.28C32.3876 73.1733 32.6476 73.12 32.9209 73.12C33.4009 73.12 33.8042 73.21 34.1309 73.39C34.4576 73.57 34.7076 73.8233 34.8809 74.15C35.0609 74.47 35.1609 74.8467 35.1809 75.28C35.1942 75.52 35.1942 75.74 35.1809 75.94C35.1609 76.3667 35.0542 76.7433 34.8609 77.07C34.6676 77.3967 34.3909 77.65 34.0309 77.83C33.6709 78.01 33.2209 78.1 32.6809 78.1ZM32.6809 77.18C33.0409 77.18 33.3176 77.07 33.5109 76.85C33.7042 76.63 33.8076 76.31 33.8209 75.89C33.8276 75.8167 33.8309 75.73 33.8309 75.63C33.8309 75.5233 33.8276 75.4233 33.8209 75.33C33.8076 74.91 33.7042 74.59 33.5109 74.37C33.3242 74.15 33.0742 74.04 32.7609 74.04C32.4009 74.04 32.1109 74.15 31.8909 74.37C31.6776 74.59 31.5642 74.91 31.5509 75.33C31.5442 75.4233 31.5409 75.5233 31.5409 75.63C31.5409 75.73 31.5442 75.8167 31.5509 75.89C31.5642 76.31 31.6676 76.63 31.8609 76.85C32.0542 77.07 32.3276 77.18 32.6809 77.18ZM38.5377 78.1C37.7977 78.1 37.211 77.8867 36.7777 77.46C36.3444 77.0333 36.111 76.4267 36.0777 75.64C36.071 75.5733 36.0677 75.49 36.0677 75.39C36.0677 75.2833 36.071 75.2 36.0777 75.14C36.1044 74.64 36.2177 74.2067 36.4177 73.84C36.6244 73.4733 36.9077 73.1933 37.2677 73C37.6277 72.8 38.051 72.7 38.5377 72.7C39.0777 72.7 39.531 72.8133 39.8977 73.04C40.2644 73.26 40.541 73.57 40.7277 73.97C40.9144 74.3633 41.0077 74.82 41.0077 75.34V75.55C41.0077 75.6167 40.9844 75.6733 40.9377 75.72C40.891 75.7667 40.831 75.79 40.7577 75.79H37.4377C37.4377 75.79 37.4377 75.8 37.4377 75.82C37.4377 75.84 37.4377 75.8567 37.4377 75.87C37.4444 76.1033 37.4877 76.32 37.5677 76.52C37.6544 76.7133 37.7777 76.87 37.9377 76.99C38.1044 77.11 38.301 77.17 38.5277 77.17C38.7144 77.17 38.871 77.1433 38.9977 77.09C39.1244 77.03 39.2277 76.9633 39.3077 76.89C39.3877 76.8167 39.4444 76.7567 39.4777 76.71C39.5377 76.63 39.5844 76.5833 39.6177 76.57C39.6577 76.55 39.7144 76.54 39.7877 76.54H40.6477C40.7144 76.54 40.7677 76.56 40.8077 76.6C40.8544 76.64 40.8744 76.69 40.8677 76.75C40.861 76.8567 40.8044 76.9867 40.6977 77.14C40.5977 77.2933 40.451 77.4433 40.2577 77.59C40.0644 77.7367 39.821 77.86 39.5277 77.96C39.241 78.0533 38.911 78.1 38.5377 78.1ZM37.4377 74.95H39.6477V74.92C39.6477 74.66 39.6044 74.4333 39.5177 74.24C39.431 74.0467 39.3044 73.8933 39.1377 73.78C38.971 73.6667 38.771 73.61 38.5377 73.61C38.3044 73.61 38.1044 73.6667 37.9377 73.78C37.771 73.8933 37.6444 74.0467 37.5577 74.24C37.4777 74.4333 37.4377 74.66 37.4377 74.92V74.95ZM42.3192 79.9C42.2525 79.9 42.1958 79.8767 42.1492 79.83C42.1025 79.7833 42.0792 79.7267 42.0792 79.66V73.04C42.0792 72.9733 42.1025 72.9167 42.1492 72.87C42.1958 72.8233 42.2525 72.8 42.3192 72.8H43.1092C43.1825 72.8 43.2392 72.8233 43.2792 72.87C43.3258 72.9167 43.3492 72.9733 43.3492 73.04V73.44C43.5092 73.2267 43.7192 73.05 43.9792 72.91C44.2392 72.77 44.5625 72.7 44.9492 72.7C45.3025 72.7 45.6092 72.7567 45.8692 72.87C46.1292 72.9833 46.3458 73.1467 46.5192 73.36C46.6925 73.5667 46.8258 73.8133 46.9192 74.1C47.0125 74.3867 47.0658 74.7033 47.0792 75.05C47.0858 75.1633 47.0892 75.28 47.0892 75.4C47.0892 75.52 47.0858 75.64 47.0792 75.76C47.0725 76.0933 47.0225 76.4033 46.9292 76.69C46.8358 76.97 46.6992 77.2167 46.5192 77.43C46.3458 77.6367 46.1292 77.8 45.8692 77.92C45.6092 78.04 45.3025 78.1 44.9492 78.1C44.5892 78.1 44.2825 78.0367 44.0292 77.91C43.7758 77.7767 43.5692 77.6033 43.4092 77.39V79.66C43.4092 79.7267 43.3858 79.7833 43.3392 79.83C43.2992 79.8767 43.2425 79.9 43.1692 79.9H42.3192ZM44.5792 77.03C44.8658 77.03 45.0892 76.97 45.2492 76.85C45.4092 76.7233 45.5225 76.56 45.5892 76.36C45.6625 76.16 45.7058 75.94 45.7192 75.7C45.7325 75.5 45.7325 75.3 45.7192 75.1C45.7058 74.86 45.6625 74.64 45.5892 74.44C45.5225 74.24 45.4092 74.08 45.2492 73.96C45.0892 73.8333 44.8658 73.77 44.5792 73.77C44.3058 73.77 44.0825 73.8333 43.9092 73.96C43.7425 74.0867 43.6192 74.25 43.5392 74.45C43.4658 74.6433 43.4225 74.8433 43.4092 75.05C43.4025 75.17 43.3992 75.2967 43.3992 75.43C43.3992 75.5633 43.4025 75.6933 43.4092 75.82C43.4158 76.02 43.4625 76.2133 43.5492 76.4C43.6358 76.58 43.7625 76.73 43.9292 76.85C44.0958 76.97 44.3125 77.03 44.5792 77.03ZM48.4518 78C48.3851 78 48.3284 77.9767 48.2818 77.93C48.2351 77.8833 48.2118 77.8267 48.2118 77.76V73.04C48.2118 72.9733 48.2351 72.9167 48.2818 72.87C48.3284 72.8233 48.3851 72.8 48.4518 72.8H49.2418C49.3151 72.8 49.3718 72.8233 49.4118 72.87C49.4584 72.9167 49.4818 72.9733 49.4818 73.04V76.94H50.9818V73.04C50.9818 72.9733 51.0018 72.9167 51.0418 72.87C51.0884 72.8233 51.1484 72.8 51.2218 72.8H51.9418C52.0151 72.8 52.0718 72.8233 52.1118 72.87C52.1584 72.9167 52.1818 72.9733 52.1818 73.04V76.94H53.6818V73.04C53.6818 72.9733 53.7018 72.9167 53.7418 72.87C53.7884 72.8233 53.8484 72.8 53.9218 72.8H54.7118C54.7784 72.8 54.8351 72.8233 54.8818 72.87C54.9284 72.9167 54.9518 72.9733 54.9518 73.04V77.76C54.9518 77.8267 54.9284 77.8833 54.8818 77.93C54.8351 77.9767 54.7784 78 54.7118 78H48.4518ZM58.5977 78.1C58.0644 78.1 57.6144 78.0067 57.2477 77.82C56.8877 77.6333 56.611 77.37 56.4177 77.03C56.231 76.69 56.1244 76.2933 56.0977 75.84C56.091 75.72 56.0877 75.5733 56.0877 75.4C56.0877 75.2267 56.091 75.08 56.0977 74.96C56.1244 74.5 56.2344 74.1033 56.4277 73.77C56.6277 73.43 56.9077 73.1667 57.2677 72.98C57.6344 72.7933 58.0777 72.7 58.5977 72.7C59.1177 72.7 59.5577 72.7933 59.9177 72.98C60.2844 73.1667 60.5644 73.43 60.7577 73.77C60.9577 74.1033 61.071 74.5 61.0977 74.96C61.1044 75.08 61.1077 75.2267 61.1077 75.4C61.1077 75.5733 61.1044 75.72 61.0977 75.84C61.071 76.2933 60.961 76.69 60.7677 77.03C60.581 77.37 60.3044 77.6333 59.9377 77.82C59.5777 78.0067 59.131 78.1 58.5977 78.1ZM58.5977 77.11C58.951 77.11 59.2244 77 59.4177 76.78C59.611 76.5533 59.7177 76.2233 59.7377 75.79C59.7444 75.69 59.7477 75.56 59.7477 75.4C59.7477 75.24 59.7444 75.11 59.7377 75.01C59.7177 74.5833 59.611 74.2567 59.4177 74.03C59.2244 73.8033 58.951 73.69 58.5977 73.69C58.2444 73.69 57.971 73.8033 57.7777 74.03C57.5844 74.2567 57.4777 74.5833 57.4577 75.01C57.451 75.11 57.4477 75.24 57.4477 75.4C57.4477 75.56 57.451 75.69 57.4577 75.79C57.4777 76.2233 57.5844 76.5533 57.7777 76.78C57.971 77 58.2444 77.11 58.5977 77.11ZM62.4557 78C62.389 78 62.3323 77.9767 62.2857 77.93C62.239 77.8833 62.2157 77.8267 62.2157 77.76V73.04C62.2157 72.9733 62.239 72.9167 62.2857 72.87C62.3323 72.8233 62.389 72.8 62.4557 72.8H66.7357C66.809 72.8 66.8657 72.8233 66.9057 72.87C66.9523 72.9167 66.9757 72.9733 66.9757 73.04V77.76C66.9757 77.8267 66.9523 77.8833 66.9057 77.93C66.8657 77.9767 66.809 78 66.7357 78H65.9057C65.839 78 65.7823 77.9767 65.7357 77.93C65.689 77.8833 65.6657 77.8267 65.6657 77.76V73.86H63.5257V77.76C63.5257 77.8267 63.5023 77.8833 63.4557 77.93C63.4157 77.9767 63.359 78 63.2857 78H62.4557Z" fill="#282828"/>
<g clip-path="url(#clip0_750_9928)">
<path d="M27.4188 54.9895C25.7642 54.9023 24.1172 54.6846 22.4903 54.3383C20.2248 53.9422 18.0129 53.232 15.9065 52.2243C14.0912 51.3083 12.2133 49.957 11.3981 47.8465C10.4357 45.3494 11.3825 42.6225 12.6177 40.4841C20.5058 26.7727 28.8453 29.8201 32.2751 29.8201C35.705 29.8201 32.6169 13.4514 45.6466 13.9529C51.1895 14.1688 57.2466 15.4992 61.9682 18.9053C65.5736 21.5138 67.5519 25.6965 64.492 29.8166C62.7175 32.2022 60.6984 34.3162 58.9302 36.7123C57.1738 39.0923 55.2227 41.2865 53.102 43.2668C49.727 46.4309 45.9768 49.0653 41.9565 51.0959C37.9027 53.1368 33.3913 54.7388 28.9174 54.9861C28.4189 55.0035 27.9298 55.007 27.4188 54.9895Z" fill="#ECEEFD"/>
<path d="M53.5376 46.8365C53.5239 45.8209 53.4579 44.8069 53.3401 43.7996C52.9576 41.1458 51.5813 39.3731 49.2644 38.5756C48.5465 38.3283 47.8097 38.1298 47.051 37.9278C45.9725 37.5795 45.9757 37.3009 45.9663 35.5491C45.9438 35.242 46.012 34.9351 46.1606 34.6749C47.6622 33.8327 48.9341 32.5604 49.8449 30.9893C50.7556 29.4183 51.2722 27.6056 51.3413 25.7386C51.4103 23.8715 51.0293 22.0179 50.2376 20.3692C49.4459 18.7205 48.2723 17.3365 46.8379 16.3603C45.4036 15.3841 43.7606 14.8511 42.0787 14.8163C40.3969 14.7815 38.7372 15.2463 37.2712 16.1626C35.8051 17.0788 34.5859 18.4133 33.7396 20.0282C32.8932 21.643 32.4504 23.4797 32.4569 25.3483C32.4562 26.9786 32.793 28.5873 33.4413 30.0499C33.4999 30.22 33.5734 30.3833 33.6608 30.5375C33.6984 30.6106 33.7423 30.6803 33.783 30.7534C34.6006 32.288 35.7547 33.5676 37.1377 34.4729C37.2945 34.6019 37.4055 34.7881 37.4512 34.9988C37.5107 35.873 37.4731 36.7402 37.4731 37.6387C36.3507 37.9591 35.2785 38.2064 34.2502 38.5651C31.927 39.3627 30.5507 41.1319 30.1745 43.7892C30.053 44.8288 29.986 45.8754 29.9738 46.9236C29.9738 47.1709 29.9738 47.1361 29.9738 47.3833C29.9738 47.547 29.9049 47.8779 30.5476 47.8674C31.1903 47.857 31.1558 47.5192 31.1746 47.3555C31.1746 47.1186 31.1746 47.15 31.1903 46.9132C31.1903 46.9132 31.2373 45.1091 31.3282 44.2698C31.5916 41.8598 32.7735 40.3622 34.8803 39.7423C35.8209 39.4567 36.7614 39.185 37.7302 38.9447C38.0234 38.9046 38.2906 38.7376 38.4737 38.4801C38.6568 38.2226 38.7411 37.8952 38.7084 37.5691C38.7084 36.8482 38.7084 36.1307 38.7084 35.2983C40.5052 36.1296 42.5153 36.1928 44.3516 35.476C44.4927 35.4342 44.6307 35.3854 44.7686 35.3332C44.7686 36.1586 44.7686 36.8586 44.7686 37.5586C44.7335 37.8397 44.7896 38.1255 44.9269 38.3648C45.0642 38.6041 45.2737 38.7813 45.5179 38.8646C45.6046 38.902 45.6937 38.9323 45.7844 38.9552L46.0415 39.0248C47.0259 39.3 48.0041 39.6099 48.9917 39.8711C50.8728 40.5677 51.9387 42.0165 52.1864 44.2872C52.2648 45.0081 52.2773 45.7465 52.3087 46.5231H52.2742C52.2742 46.7704 52.2742 47.0176 52.2742 47.2649C52.2742 47.4286 52.2052 47.7595 52.8667 47.749C53.5282 47.7386 53.5157 47.4007 53.5251 47.244C53.5471 47.0072 53.5314 47.0734 53.5376 46.8365ZM45.3141 33.6023C44.1253 34.2493 42.8098 34.5564 41.4871 34.4956C40.1644 34.4347 38.8762 34.008 37.7396 33.254C37.4513 33.0499 37.173 32.829 36.9057 32.5923C36.1676 31.8587 35.5004 31.0417 34.9148 30.1544C34.1254 28.7112 33.7089 27.0544 33.7109 25.3657C33.7109 22.9808 34.5638 20.6935 36.0819 19.0071C37.6 17.3207 39.659 16.3733 41.8059 16.3733C43.9528 16.3733 46.0118 17.3207 47.5299 19.0071C49.048 20.6935 49.9009 22.9808 49.9009 25.3657C49.9042 26.8172 49.5991 28.249 49.0105 29.5449L48.8788 29.74C48.3255 30.6349 47.7023 31.474 47.0165 32.2475C46.4956 32.7632 45.9246 33.2129 45.3141 33.5883V33.6023Z" fill="#282828"/>
<path fill-rule="evenodd" clip-rule="evenodd" d="M25.1324 27.3968C25.4047 27.1624 25.7339 27.0339 26.13 27.0339C26.7594 27.0339 27.2882 27.3723 27.5688 27.9156C27.8489 28.4581 27.8547 29.1506 27.5473 29.8072C26.9783 31.0427 26.322 32.2262 25.5847 33.3465C23.6471 36.3178 21.0406 38.6712 18.0265 40.171C17.5478 40.4335 17.0279 40.5903 16.4955 40.6327L16.4685 40.6349L16.4415 40.6329C16.0609 40.6049 15.7022 40.4249 15.4317 40.1261C15.1639 39.8302 15.0004 39.4376 14.9707 39.0195C14.8732 38.1333 15.3492 37.4595 16.0465 37.0602L16.0558 37.0549L16.0653 37.0501C16.9732 36.5967 17.8566 36.0851 18.7111 35.5179C21.1926 33.7107 23.1988 31.2053 24.5253 28.2567L24.5274 28.2521L24.5296 28.2476C24.6812 27.9297 24.8695 27.6231 25.1324 27.3968ZM25.2243 28.6507C23.8346 31.7376 21.7331 34.3602 19.1338 36.2511L19.1271 36.256L19.1202 36.2606C18.2406 36.8449 17.3313 37.372 16.3967 37.8393C15.8873 38.134 15.7023 38.5127 15.7494 38.9207L15.7508 38.9327L15.7516 38.9449C15.7654 39.1579 15.8481 39.3582 15.9844 39.5087C16.1148 39.6528 16.2858 39.742 16.4683 39.7618C16.8916 39.724 17.3047 39.5968 17.6853 39.3871L17.6923 39.3833L17.6994 39.3797C20.5913 37.9423 23.092 35.6852 24.9504 32.835L24.9514 32.8334C25.6648 31.7496 26.2997 30.6046 26.8502 29.4093L26.8515 29.4065L26.8515 29.4065C27.0513 28.9804 27.0208 28.6044 26.8889 28.3489C26.7572 28.0938 26.4975 27.9046 26.13 27.9046C25.899 27.9046 25.7407 27.9746 25.6125 28.085C25.4756 28.2028 25.351 28.3859 25.2243 28.6507Z" fill="#282828"/>
<path d="M25.9703 30.0534C26.3703 30.0534 26.6945 29.6932 26.6945 29.2489C26.6945 28.8046 26.3703 28.4444 25.9703 28.4444C25.5703 28.4444 25.2461 28.8046 25.2461 29.2489C25.2461 29.6932 25.5703 30.0534 25.9703 30.0534Z" fill="#3D4EEA"/>
<path d="M21.1922 30.4052L11.5673 30.3947L11.3447 29.5449L21.7848 29.4648L21.1922 30.4052Z" fill="#3D4EEA"/>
<path fill-rule="evenodd" clip-rule="evenodd" d="M11.9024 29.9594H20.1261C20.2095 29.9594 20.3104 29.9639 20.3987 29.9678C20.4491 29.9701 20.4953 29.9722 20.5318 29.9731C20.6543 29.9762 20.7486 29.9718 20.8277 29.9541C20.902 29.9374 20.9571 29.9101 21.0039 29.8688C21.0504 29.8277 21.1077 29.7559 21.1642 29.6204C21.2303 29.4437 21.361 29.3502 21.4364 29.3058C21.5246 29.254 21.6207 29.2211 21.7025 29.199C21.8685 29.1541 22.0513 29.1338 22.179 29.1245L22.1808 29.1243C22.7171 29.0878 23.0476 28.9374 23.2617 28.7029C23.4186 28.531 23.5444 28.2795 23.6249 27.9046H13.6082C13.0249 27.9046 12.6143 27.9161 12.3193 27.9688C12.0239 28.0215 11.9245 28.1026 11.8801 28.1661C11.8299 28.2378 11.777 28.3899 11.7845 28.7657C11.7905 29.066 11.8328 29.4521 11.9024 29.9594ZM12.195 27.1091C12.5618 27.0437 13.0346 27.0339 13.6082 27.0339H24.5205L24.4756 27.5141C24.405 28.2708 24.2094 28.8877 23.8119 29.3229C23.4125 29.7605 22.8686 29.9496 22.2297 29.9933C22.1193 30.0014 21.9889 30.0177 21.8879 30.045C21.8703 30.0497 21.8557 30.0543 21.8438 30.0584C21.7504 30.2606 21.6337 30.4249 21.4916 30.5504C21.3292 30.6938 21.153 30.7693 20.9828 30.8075C20.8173 30.8446 20.6538 30.8471 20.5137 30.8435C20.4438 30.8417 20.3868 30.839 20.3339 30.8364C20.2641 30.8331 20.2015 30.83 20.1261 30.83H11.2332L11.1802 30.4637C11.0813 29.7793 11.0097 29.2231 11.0009 28.7851C10.9923 28.3541 11.0407 27.947 11.2613 27.6317C11.4877 27.3082 11.8286 27.1745 12.195 27.1091ZM21.803 30.0754C21.8034 30.0752 21.8037 30.075 21.8041 30.0747C21.7999 30.0777 21.7989 30.0778 21.803 30.0754Z" fill="#282828"/>
<path d="M53.9298 16.1365C52.7792 15.9972 51.8669 15.6455 51.1082 14.7818L53.1554 14.5972C51.4844 12.5981 49.5406 11.9364 47.3052 12.1314C47.5076 11.9885 47.7169 11.8583 47.9323 11.7414C48.1267 11.6229 48.3116 11.4871 48.5781 11.3025C45.3897 9.77014 42.3078 9.2756 39.1538 11.5707C39.3169 11.2747 39.3984 11.1354 39.4674 10.9891C39.5363 10.8428 39.6241 10.6582 39.737 10.4179C36.6457 10.4144 34.4229 11.9329 32.8585 14.8758C32.8334 14.4753 32.8177 14.2141 32.7989 13.8971C30.529 15.0081 30.3347 17.2231 30.2218 19.6123L29.8362 18.7764C28.8956 21.0854 30.6733 24.7876 32.94 25.3483C33.7582 23.297 33.4353 20.4934 33.8398 21.1029C34.3038 20.2844 35.1659 19.5948 36.0814 19.7516C36.1723 19.7516 38.5394 20.4481 39.5301 20.7093C40.0314 20.8375 40.5459 20.8914 41.06 20.8695C44.5087 21.0645 47.3303 19.6575 47.3303 19.7167C47.8688 19.7366 48.3883 19.942 48.8169 20.3046C49.2456 20.6671 49.562 21.1689 49.7225 21.7402C49.9035 22.3837 50.0223 23.0469 50.0767 23.7184C50.1051 24.2566 50.1051 24.7961 50.0767 25.3343C51.7258 24.5577 53.5254 21.9735 53.4595 20.4586L52.4218 21.277C52.9454 19.5774 53.4282 17.8883 53.9298 16.1365Z" fill="#3D4EEA"/>
<path d="M49.7568 17.1256C49.7066 17.056 44.5367 21.075 41.0724 20.88C42.2606 17.7804 44.3737 15.8475 46.979 14.4648C46.1332 14.7451 45.3174 15.1269 44.5461 15.6037C42.8275 16.8012 41.3897 18.4354 40.3513 20.3715C40.2829 20.5342 40.1605 20.6612 40.0098 20.7261C39.8591 20.791 39.6917 20.7887 39.5424 20.7198C38.5486 20.462 37.5861 20.1799 36.5233 19.8804C37.0907 17.6062 38.2507 16.0495 39.6584 14.4892C39.3449 14.7469 39.0314 14.9907 38.7179 15.2624C37.506 16.3151 36.591 17.7316 36.0812 19.3441C36.0373 19.4834 35.9276 19.7342 35.8335 19.7376C34.9243 19.7725 34.3757 20.2984 33.8396 21.1029C33.4409 20.4932 32.994 19.9244 32.504 19.4033C33.0412 20.2638 33.3648 21.2663 33.4424 22.31C33.52 23.3536 33.3488 24.4015 32.9461 25.3483C30.6793 24.7876 28.9143 21.0854 29.8423 18.7764L30.2279 19.6192C30.3408 17.2301 30.5414 15.0151 32.805 13.9041L32.8583 14.8758C34.4227 11.9329 36.6455 10.4144 39.7337 10.4179C39.6208 10.6582 39.5456 10.8254 39.4641 10.9891C39.3825 11.1528 39.3104 11.2747 39.1505 11.5707C42.3108 9.2756 45.3864 9.77014 48.5748 11.3025C48.3083 11.4871 48.1233 11.6229 47.929 11.7414C47.7136 11.8583 47.5042 11.9885 47.3019 12.1314C49.5373 11.9364 51.4811 12.5981 53.1521 14.5972L51.1049 14.7818C51.8604 15.6455 52.7728 15.9972 53.9265 16.1365C53.4249 17.8779 52.9421 19.5774 52.453 21.2979L53.4907 20.4795C53.5472 21.984 51.7068 24.7283 50.0577 25.505C50.0844 24.9377 50.0844 24.3692 50.0577 23.802C50.0027 23.1265 49.8818 22.4598 49.6972 21.8133C49.55 21.237 49.2447 20.726 48.8238 20.3514C48.403 19.9769 47.8874 19.7575 47.349 19.7237C47.3364 19.668 48.9354 17.9371 49.7568 17.1256Z" fill="#282828"/>
<path d="M48.5179 36.2944C48.2765 35.4899 48.0382 34.6924 47.7968 33.8983C47.3328 36.883 45.8499 39.0039 43.9061 40.8881C43.2969 41.4433 42.8148 42.151 42.4993 42.9531C42.1838 43.7552 42.0438 44.6289 42.0909 45.5027C39.5294 42.8175 37.0997 40.0488 36.2375 35.7929C36.0526 36.378 35.924 36.7924 35.7923 37.186C33.9551 35.7023 33.0961 31.8296 34.0617 29.2802C34.5351 29.942 34.9678 30.6211 35.4694 31.2271C36.0263 31.9396 36.7327 32.4887 37.5261 32.8256C37.6201 32.8639 37.7173 32.8953 37.8145 32.9231C37.9637 32.9688 38.1156 33.0026 38.2691 33.0241C38.3304 33.0346 38.3921 33.0415 38.4541 33.045C38.8843 33.0855 39.3176 33.0467 39.7364 32.9301C39.9421 32.8759 40.1443 32.8061 40.3414 32.7212C40.6727 32.5838 40.9926 32.4148 41.2977 32.2162C41.6739 31.9724 41.956 31.7634 42.4608 32.0803C42.702 32.2323 42.95 32.3706 43.2038 32.4948C45.5834 33.665 47.383 32.8779 48.8252 30.1231L49.3017 29.2245C50.421 31.3942 50.0416 34.6088 48.5179 36.2944Z" fill="#282828"/>
<path d="M42.9381 38.4815C42.6559 38.189 42.3612 37.9034 42.0916 37.5969C41.3428 36.7677 40.7343 35.7956 40.2952 34.7272C40.158 34.3576 40.0397 33.9797 39.9409 33.5953C39.8876 33.4072 39.8343 33.2157 39.7747 33.0276L39.7402 32.944C39.946 32.8899 40.1482 32.82 40.3453 32.7351C40.7027 35.0163 41.706 36.7924 42.9381 38.4815Z" fill="#3D4EEA"/>
<path d="M41.1726 41.5394C40.8151 41.0553 40.4389 40.5781 40.1035 40.0766C39.1675 38.719 38.4592 37.1854 38.0123 35.5491C37.8796 34.9848 37.7749 34.4127 37.6988 33.8356C37.6549 33.55 37.6142 33.261 37.5609 32.9754C37.5609 32.951 37.542 32.9023 37.5264 32.85C37.6204 32.8883 37.7176 32.9197 37.8148 32.9475C37.964 32.9932 38.1159 33.027 38.2694 33.0485C38.3307 33.0589 38.3924 33.0659 38.4544 33.0694C38.6393 36.2596 39.7429 38.9343 41.1726 41.5394Z" fill="#3D4EEA"/>
<path d="M45.8003 38.1646C45.5119 37.8581 45.2141 37.5656 44.9382 37.2452C44.1739 36.3804 43.5549 35.3708 43.1104 34.264C42.9707 33.8809 42.8513 33.489 42.753 33.0903C42.6965 32.8953 42.6432 32.6968 42.5805 32.5017C42.5586 32.4286 42.4269 32.1918 42.4708 32.1082C42.712 32.2602 42.96 32.3985 43.2138 32.5226C43.6277 34.7272 44.609 36.4894 45.8003 38.1646Z" fill="#3D4EEA"/>
</g>
<defs>
<clipPath id="clip0_750_9928">
<rect width="55" height="45" fill="white" transform="translate(11 10)"/>
</clipPath>
</defs>
</svg>
