<svg width="27" height="11" viewBox="0 0 27 11" fill="none" xmlns="http://www.w3.org/2000/svg">
<path d="M0.428 10.5C0.334667 10.5 0.255333 10.4673 0.19 10.402C0.124667 10.3367 0.092 10.2573 0.092 10.164V1.05C0.092 0.947333 0.124667 0.863333 0.19 0.798C0.255333 0.732666 0.334667 0.699999 0.428 0.699999H4.488C5.244 0.699999 5.86 0.816666 6.336 1.05C6.812 1.274 7.162 1.58667 7.386 1.988C7.61933 2.38933 7.736 2.856 7.736 3.388C7.736 3.74267 7.67067 4.05533 7.54 4.326C7.41867 4.58733 7.26467 4.802 7.078 4.97C6.90067 5.138 6.72333 5.26867 6.546 5.362C6.91 5.53 7.232 5.81 7.512 6.202C7.792 6.594 7.932 7.06067 7.932 7.602C7.932 8.162 7.806 8.66133 7.554 9.1C7.302 9.53867 6.92867 9.884 6.434 10.136C5.93933 10.3787 5.328 10.5 4.6 10.5H0.428ZM2.038 9.016H4.376C4.88 9.016 5.26267 8.88067 5.524 8.61C5.78533 8.33 5.916 7.994 5.916 7.602C5.916 7.19133 5.78067 6.85067 5.51 6.58C5.24867 6.30933 4.87067 6.174 4.376 6.174H2.038V9.016ZM2.038 4.718H4.236C4.73067 4.718 5.09933 4.60133 5.342 4.368C5.594 4.12533 5.72 3.81267 5.72 3.43C5.72 3.038 5.594 2.73467 5.342 2.52C5.09933 2.296 4.73067 2.184 4.236 2.184H2.038V4.718ZM12.3009 10.5C12.2075 10.5 12.1282 10.4673 12.0629 10.402C11.9975 10.3367 11.9649 10.2573 11.9649 10.164V7L8.66088 1.148C8.65154 1.12933 8.64221 1.106 8.63288 1.078C8.62354 1.05 8.61888 1.022 8.61888 0.994C8.61888 0.91 8.64688 0.84 8.70288 0.784C8.75888 0.728 8.82421 0.699999 8.89888 0.699999H10.1449C10.2569 0.699999 10.3455 0.728 10.4109 0.784C10.4855 0.84 10.5369 0.900666 10.5649 0.965999L12.9449 5.04L15.3109 0.965999C15.3482 0.900666 15.3995 0.84 15.4649 0.784C15.5395 0.728 15.6329 0.699999 15.7449 0.699999H16.9769C17.0609 0.699999 17.1309 0.728 17.1869 0.784C17.2429 0.84 17.2709 0.91 17.2709 0.994C17.2709 1.022 17.2662 1.05 17.2569 1.078C17.2569 1.106 17.2475 1.12933 17.2289 1.148L13.9249 7V10.164C13.9249 10.2573 13.8922 10.3367 13.8269 10.402C13.7615 10.4673 13.6775 10.5 13.5749 10.5H12.3009ZM19.0218 10.5C18.9284 10.5 18.8491 10.4673 18.7838 10.402C18.7184 10.3367 18.6858 10.2573 18.6858 10.164V1.05C18.6858 0.947333 18.7184 0.863333 18.7838 0.798C18.8491 0.732666 18.9284 0.699999 19.0218 0.699999H20.0998C20.2304 0.699999 20.3238 0.732666 20.3798 0.798C20.4451 0.854 20.4871 0.896 20.5058 0.924L24.5378 7.196V1.05C24.5378 0.947333 24.5658 0.863333 24.6218 0.798C24.6871 0.732666 24.7711 0.699999 24.8738 0.699999H26.0498C26.1524 0.699999 26.2364 0.732666 26.3018 0.798C26.3671 0.863333 26.3998 0.947333 26.3998 1.05V10.15C26.3998 10.2527 26.3671 10.3367 26.3018 10.402C26.2364 10.4673 26.1571 10.5 26.0638 10.5H24.9718C24.8411 10.5 24.7478 10.4673 24.6918 10.402C24.6358 10.3367 24.5938 10.2947 24.5658 10.276L20.5478 4.144V10.164C20.5478 10.2573 20.5151 10.3367 20.4498 10.402C20.3844 10.4673 20.3004 10.5 20.1978 10.5H19.0218Z" fill="#282828"/>
</svg>
