<svg width="78" height="90" viewBox="0 0 78 90" fill="none" xmlns="http://www.w3.org/2000/svg">
<path d="M11.6631 79.39C11.5964 79.39 11.5398 79.3667 11.4931 79.32C11.4464 79.28 11.4231 79.2233 11.4231 79.15V76.99C11.4231 76.9233 11.4464 76.8667 11.4931 76.82C11.5398 76.7733 11.5964 76.75 11.6631 76.75H11.8631C12.0231 76.75 12.1598 76.6767 12.2731 76.53C12.3864 76.3767 12.4798 76.1567 12.5531 75.87C12.6264 75.5767 12.6798 75.2167 12.7131 74.79C12.7464 74.3633 12.7631 73.8767 12.7631 73.33V71.24C12.7631 71.1733 12.7864 71.1167 12.8331 71.07C12.8798 71.0233 12.9398 71 13.0131 71H17.3031C17.3764 71 17.4364 71.0233 17.4831 71.07C17.5298 71.1167 17.5531 71.1767 17.5531 71.25V76.75H18.0331C18.1064 76.75 18.1664 76.7733 18.2131 76.82C18.2598 76.8667 18.2831 76.9233 18.2831 76.99V79.15C18.2831 79.2233 18.2598 79.28 18.2131 79.32C18.1664 79.3667 18.1064 79.39 18.0331 79.39H17.1331C17.0598 79.39 16.9998 79.3667 16.9531 79.32C16.9131 79.28 16.8931 79.2233 16.8931 79.15V78H12.8131V79.15C12.8131 79.2233 12.7898 79.28 12.7431 79.32C12.6964 79.3667 12.6364 79.39 12.5631 79.39H11.6631ZM13.5631 76.75H16.1631V72.25H14.1131V73.51C14.1131 74.3367 14.0664 75.0133 13.9731 75.54C13.8798 76.06 13.7431 76.4633 13.5631 76.75ZM21.5143 78.1C20.7743 78.1 20.1876 77.8867 19.7543 77.46C19.3209 77.0333 19.0876 76.4267 19.0543 75.64C19.0476 75.5733 19.0443 75.49 19.0443 75.39C19.0443 75.2833 19.0476 75.2 19.0543 75.14C19.0809 74.64 19.1943 74.2067 19.3943 73.84C19.6009 73.4733 19.8843 73.1933 20.2443 73C20.6043 72.8 21.0276 72.7 21.5143 72.7C22.0543 72.7 22.5076 72.8133 22.8743 73.04C23.2409 73.26 23.5176 73.57 23.7043 73.97C23.8909 74.3633 23.9843 74.82 23.9843 75.34V75.55C23.9843 75.6167 23.9609 75.6733 23.9143 75.72C23.8676 75.7667 23.8076 75.79 23.7343 75.79H20.4143C20.4143 75.79 20.4143 75.8 20.4143 75.82C20.4143 75.84 20.4143 75.8567 20.4143 75.87C20.4209 76.1033 20.4643 76.32 20.5443 76.52C20.6309 76.7133 20.7543 76.87 20.9143 76.99C21.0809 77.11 21.2776 77.17 21.5043 77.17C21.6909 77.17 21.8476 77.1433 21.9743 77.09C22.1009 77.03 22.2043 76.9633 22.2843 76.89C22.3643 76.8167 22.4209 76.7567 22.4543 76.71C22.5143 76.63 22.5609 76.5833 22.5943 76.57C22.6343 76.55 22.6909 76.54 22.7643 76.54H23.6243C23.6909 76.54 23.7443 76.56 23.7843 76.6C23.8309 76.64 23.8509 76.69 23.8443 76.75C23.8376 76.8567 23.7809 76.9867 23.6743 77.14C23.5743 77.2933 23.4276 77.4433 23.2343 77.59C23.0409 77.7367 22.7976 77.86 22.5043 77.96C22.2176 78.0533 21.8876 78.1 21.5143 78.1ZM20.4143 74.95H22.6243V74.92C22.6243 74.66 22.5809 74.4333 22.4943 74.24C22.4076 74.0467 22.2809 73.8933 22.1143 73.78C21.9476 73.6667 21.7476 73.61 21.5143 73.61C21.2809 73.61 21.0809 73.6667 20.9143 73.78C20.7476 73.8933 20.6209 74.0467 20.5343 74.24C20.4543 74.4333 20.4143 74.66 20.4143 74.92V74.95ZM25.2857 78C25.2191 78 25.1624 77.9767 25.1157 77.93C25.0691 77.8833 25.0457 77.8267 25.0457 77.76V73.04C25.0457 72.9733 25.0691 72.9167 25.1157 72.87C25.1624 72.8233 25.2191 72.8 25.2857 72.8H29.5657C29.6391 72.8 29.6957 72.8233 29.7357 72.87C29.7824 72.9167 29.8057 72.9733 29.8057 73.04V77.76C29.8057 77.8267 29.7824 77.8833 29.7357 77.93C29.6957 77.9767 29.6391 78 29.5657 78H28.7357C28.6691 78 28.6124 77.9767 28.5657 77.93C28.5191 77.8833 28.4957 77.8267 28.4957 77.76V73.86H26.3557V77.76C26.3557 77.8267 26.3324 77.8833 26.2857 77.93C26.2457 77.9767 26.1891 78 26.1157 78H25.2857ZM31.389 78C31.329 78 31.2757 77.9767 31.229 77.93C31.1824 77.8833 31.159 77.83 31.159 77.77V73.04C31.159 72.9733 31.1824 72.9167 31.229 72.87C31.2757 72.8233 31.3324 72.8 31.399 72.8H32.229C32.3024 72.8 32.359 72.8233 32.399 72.87C32.4457 72.9167 32.469 72.9733 32.469 73.04V76.99L32.119 76.74L34.869 72.96C34.9024 72.9133 34.939 72.8767 34.979 72.85C35.019 72.8167 35.0724 72.8 35.139 72.8H35.899C35.959 72.8 36.0124 72.8233 36.059 72.87C36.1057 72.91 36.129 72.96 36.129 73.02V77.76C36.129 77.8267 36.1057 77.8833 36.059 77.93C36.0124 77.9767 35.9557 78 35.889 78H35.059C34.9857 78 34.9257 77.9767 34.879 77.93C34.839 77.8833 34.819 77.8267 34.819 77.76V73.99L35.189 74.04L32.419 77.84C32.3924 77.88 32.3557 77.9167 32.309 77.95C32.269 77.9833 32.2157 78 32.149 78H31.389ZM37.2295 78C37.1562 78 37.0962 77.9767 37.0495 77.93C37.0028 77.8833 36.9795 77.8233 36.9795 77.75V77.13C36.9795 76.9833 37.0562 76.9033 37.2095 76.89C37.4095 76.8767 37.5695 76.7833 37.6895 76.61C37.8095 76.4367 37.8962 76.17 37.9495 75.81C38.0028 75.4433 38.0295 74.97 38.0295 74.39V73.04C38.0295 72.9733 38.0528 72.9167 38.0995 72.87C38.1462 72.8233 38.2062 72.8 38.2795 72.8H41.8295C41.8962 72.8 41.9528 72.8233 41.9995 72.87C42.0462 72.9167 42.0695 72.9733 42.0695 73.04V77.76C42.0695 77.8267 42.0462 77.8833 41.9995 77.93C41.9528 77.9767 41.8962 78 41.8295 78H40.9995C40.9262 78 40.8662 77.9767 40.8195 77.93C40.7795 77.8833 40.7595 77.8267 40.7595 77.76V73.86H39.2895V74.53C39.2895 75.17 39.2528 75.7133 39.1795 76.16C39.1128 76.6 38.9962 76.9567 38.8295 77.23C38.6695 77.4967 38.4562 77.6933 38.1895 77.82C37.9295 77.94 37.6095 78 37.2295 78ZM46.7149 78C46.6415 78 46.5815 77.9767 46.5349 77.93C46.4949 77.8833 46.4749 77.8267 46.4749 77.76V76.23H45.4849V76.18C44.8115 76.18 44.3049 76.0267 43.9649 75.72C43.6315 75.4067 43.4649 74.9967 43.4649 74.49C43.4649 73.93 43.6415 73.51 43.9949 73.23C44.3482 72.9433 44.8582 72.8 45.5249 72.8H47.5649C47.6315 72.8 47.6882 72.8233 47.7349 72.87C47.7815 72.9167 47.8049 72.9733 47.8049 73.04V77.76C47.8049 77.8267 47.7815 77.8833 47.7349 77.93C47.6882 77.9767 47.6315 78 47.5649 78H46.7149ZM43.5149 78C43.4549 78 43.4049 77.98 43.3649 77.94C43.3249 77.9 43.3049 77.8533 43.3049 77.8C43.3049 77.78 43.3082 77.7567 43.3149 77.73C43.3215 77.6967 43.3382 77.6667 43.3649 77.64L44.4849 75.88L45.7049 76.04L44.5949 77.85C44.5749 77.89 44.5415 77.9267 44.4949 77.96C44.4482 77.9867 44.3982 78 44.3449 78H43.5149ZM45.4949 75.28H46.4949V73.75H45.5549C45.2482 73.75 45.0215 73.8067 44.8749 73.92C44.7282 74.0267 44.6549 74.2167 44.6549 74.49C44.6549 74.7233 44.7215 74.9133 44.8549 75.06C44.9949 75.2067 45.2082 75.28 45.4949 75.28ZM53.5371 79.22C53.4704 79.22 53.4137 79.1967 53.3671 79.15C53.3204 79.1033 53.2971 79.0467 53.2971 78.98V78H49.3971C49.3304 78 49.2737 77.9767 49.2271 77.93C49.1804 77.8833 49.1571 77.8267 49.1571 77.76V73.04C49.1571 72.9733 49.1804 72.9167 49.2271 72.87C49.2737 72.8233 49.3304 72.8 49.3971 72.8H50.2271C50.3004 72.8 50.3571 72.8233 50.3971 72.87C50.4437 72.9167 50.4671 72.9733 50.4671 73.04V76.94H52.6071V73.04C52.6071 72.9733 52.6304 72.9167 52.6771 72.87C52.7237 72.8233 52.7804 72.8 52.8471 72.8H53.6771C53.7504 72.8 53.8071 72.8233 53.8471 72.87C53.8937 72.9167 53.9171 72.9733 53.9171 73.04V76.94H54.3671C54.4337 76.94 54.4904 76.9633 54.5371 77.01C54.5837 77.0567 54.6071 77.1133 54.6071 77.18V78.98C54.6071 79.0467 54.5837 79.1033 54.5371 79.15C54.4904 79.1967 54.4337 79.22 54.3671 79.22H53.5371ZM55.7543 78C55.6943 78 55.6409 77.9767 55.5943 77.93C55.5476 77.8833 55.5243 77.83 55.5243 77.77V73.04C55.5243 72.9733 55.5476 72.9167 55.5943 72.87C55.6409 72.8233 55.6976 72.8 55.7643 72.8H56.5943C56.6676 72.8 56.7243 72.8233 56.7643 72.87C56.8109 72.9167 56.8343 72.9733 56.8343 73.04V76.99L56.4843 76.74L59.2343 72.96C59.2676 72.9133 59.3043 72.8767 59.3443 72.85C59.3843 72.8167 59.4376 72.8 59.5043 72.8H60.2643C60.3243 72.8 60.3776 72.8233 60.4243 72.87C60.4709 72.91 60.4943 72.96 60.4943 73.02V77.76C60.4943 77.8267 60.4709 77.8833 60.4243 77.93C60.3776 77.9767 60.3209 78 60.2543 78H59.4243C59.3509 78 59.2909 77.9767 59.2443 77.93C59.2043 77.8833 59.1843 77.8267 59.1843 77.76V73.99L59.5543 74.04L56.7843 77.84C56.7576 77.88 56.7209 77.9167 56.6743 77.95C56.6343 77.9833 56.5809 78 56.5143 78H55.7543ZM65.0547 78C64.9814 78 64.9214 77.9767 64.8747 77.93C64.8347 77.8833 64.8147 77.8267 64.8147 77.76V76.23H63.8247V76.18C63.1514 76.18 62.6447 76.0267 62.3047 75.72C61.9714 75.4067 61.8047 74.9967 61.8047 74.49C61.8047 73.93 61.9814 73.51 62.3347 73.23C62.6881 72.9433 63.1981 72.8 63.8647 72.8H65.9047C65.9714 72.8 66.0281 72.8233 66.0747 72.87C66.1214 72.9167 66.1447 72.9733 66.1447 73.04V77.76C66.1447 77.8267 66.1214 77.8833 66.0747 77.93C66.0281 77.9767 65.9714 78 65.9047 78H65.0547ZM61.8547 78C61.7947 78 61.7447 77.98 61.7047 77.94C61.6647 77.9 61.6447 77.8533 61.6447 77.8C61.6447 77.78 61.6481 77.7567 61.6547 77.73C61.6614 77.6967 61.6781 77.6667 61.7047 77.64L62.8247 75.88L64.0447 76.04L62.9347 77.85C62.9147 77.89 62.8814 77.9267 62.8347 77.96C62.7881 77.9867 62.7381 78 62.6847 78H61.8547ZM63.8347 75.28H64.8347V73.75H63.8947C63.5881 73.75 63.3614 73.8067 63.2147 73.92C63.0681 74.0267 62.9947 74.2167 62.9947 74.49C62.9947 74.7233 63.0614 74.9133 63.1947 75.06C63.3347 75.2067 63.5481 75.28 63.8347 75.28Z" fill="#282828"/>
<g clip-path="url(#clip0_750_9916)">
<path d="M27.4212 54.9842C26.6092 54.9496 25.8004 54.8518 24.9947 54.7541C23.6404 54.5902 22.2924 54.3726 20.9631 54.0794C19.4751 53.7678 18.0162 53.329 16.6024 52.768C15.2732 52.2666 14.0406 51.537 12.9595 50.6116C11.9913 49.7852 11.3286 48.6544 11.0786 47.4023C10.8121 45.8575 11.2917 44.2938 11.9971 42.9319C12.1883 42.5599 12.3984 42.1974 12.6241 41.8443C20.5086 29.4325 28.8507 32.191 32.2804 32.191C35.7101 32.191 32.6221 17.3739 45.6511 17.8247C51.1937 18.0202 57.2505 19.2245 61.9686 22.3108C65.577 24.669 67.5551 28.4552 64.4923 32.1879C62.721 34.3474 60.6989 36.261 58.934 38.4269C57.1759 40.5817 55.2239 42.5689 53.1029 44.3632C50.8711 46.2511 48.4746 47.933 45.9426 49.3884C43.372 50.8751 40.6643 52.1082 37.8575 53.0706C36.3339 53.5865 34.7802 54.0077 33.2052 54.3317C31.6386 54.6899 30.0444 54.9124 28.4401 54.9968C28.0983 55.0063 27.7598 55 27.4212 54.9842Z" fill="#ECEEFD"/>
<path d="M54.8047 37.9067C54.5416 37.3955 54.4001 36.8299 54.3914 36.2544C54.3827 35.6788 54.507 35.1091 54.7546 34.5902C55.1151 33.8178 55.4474 33.0296 55.833 32.2699C56.6042 30.7598 55.9082 29.0038 54.5947 28.5214C54.3188 28.4206 54.068 28.2503 53.7953 28.1494C52.3594 27.623 51.4597 26.674 51.2089 25.1103C50.9832 23.6822 50.6258 22.273 50.4095 20.8512C50.2966 20.104 50.1963 19.3537 50.096 18.6034V18.5593C49.9048 17.0996 49.6696 15.6305 49.5975 14.1457C49.5975 13.8304 49.5975 13.5151 49.3091 13.3102C49.2737 13.281 49.2323 13.2599 49.1879 13.2484C49.1435 13.237 49.0971 13.2355 49.052 13.244C48.9741 13.263 48.9039 13.306 48.8514 13.367C48.5191 13.7074 48.6194 14.1551 48.657 14.5776C48.6853 14.9464 48.7135 15.3153 48.7448 15.6841C48.8044 16.4218 48.8734 17.1564 48.9925 17.8909C49.4314 20.5706 49.9142 23.2503 50.4628 25.9079C50.6603 26.8758 51.0898 27.7995 52.0522 28.3134C52.6353 28.6286 53.2216 28.9218 53.8235 29.1929C55.1903 29.8235 55.5195 30.7062 54.8674 32.0681C54.5006 32.8373 54.1401 33.6129 53.8078 34.3979C53.5709 34.9343 53.4428 35.5128 53.431 36.0996C53.4191 36.6864 53.5238 37.2696 53.7388 37.8153C53.9363 38.3354 54.1871 38.8335 54.4285 39.338C55.0712 40.6747 55.2781 41.9641 54.0492 43.1211C53.2247 43.8934 52.4096 44.6974 51.281 45.0126C50.8891 45.123 50.7293 44.9716 50.8703 44.5933C50.9965 44.29 51.1655 44.0065 51.3719 43.7516C51.7304 43.3308 51.9697 42.8207 52.0646 42.2749C52.1595 41.729 52.1065 41.1676 51.9111 40.6494C51.6305 39.901 51.3028 39.1713 50.9299 38.4647C49.9343 36.6464 49.2097 34.6909 48.7793 32.6608C48.5316 31.3493 48.3435 30.0032 47.8921 28.7579C47.3341 27.2131 46.5347 25.7566 45.8262 24.2655C44.359 21.1696 42.8636 18.0832 41.4184 14.9748C40.8259 13.698 40.3494 12.3707 39.8007 11.075C39.7225 10.8551 39.5662 10.6721 39.3618 10.5612C38.901 10.3972 38.6533 10.8228 38.901 11.3714C39.7537 13.3733 40.5813 15.3846 41.5312 17.3392C41.8949 18.0927 41.9451 18.575 41.4811 19.3411C40.3023 21.2516 39.2647 23.2409 38.274 25.2522C37.5404 26.7245 36.9103 28.2535 36.3052 29.7856C36.1284 30.1983 36.0445 30.6453 36.0597 31.0944C36.0749 31.5435 36.1887 31.9837 36.393 32.3834C36.7065 32.9697 36.9604 33.575 37.2739 34.1551C37.8759 35.268 37.6188 36.1728 36.5184 36.7812C35.6971 37.2331 34.8809 37.6944 34.07 38.1652C33.1671 38.6422 32.4846 39.4541 32.1671 40.4288C31.9539 41.1255 31.8348 41.8506 31.678 42.5631C31.4304 43.6822 31.1231 44.8235 29.8472 45.1166C28.8791 45.2953 27.8971 45.3871 26.9129 45.3909C26.5493 45.3864 26.1895 45.317 25.8501 45.186C25.4833 45.0662 25.4488 44.7509 25.7874 44.5555C26.0682 44.3831 26.3738 44.2555 26.6934 44.1772C27.1078 44.0785 27.4965 43.8919 27.8334 43.6298C28.1702 43.3677 28.4475 43.0363 28.6465 42.6576C29.2014 41.6929 29.2923 40.6021 29.4396 39.5397C29.7751 37.1343 30.4021 34.8329 31.6341 32.7207C32.2673 31.5955 32.7031 30.3691 32.9226 29.0952C33.2863 27.128 33.6907 25.1671 34.07 23.1999C34.4431 21.2863 34.7879 19.3632 35.1704 17.4496C35.5434 15.5895 35.9416 13.7358 36.3366 11.8789C36.3867 11.6299 36.462 11.3903 36.5184 11.1444C36.5936 10.9433 36.6226 10.7278 36.6031 10.5139C36.5748 10.4392 36.5309 10.3715 36.4745 10.3153C36.4335 10.2608 36.3796 10.2175 36.3178 10.1892C36.2702 10.175 36.2203 10.1711 36.1711 10.1776C36.122 10.1841 36.0748 10.201 36.0325 10.227C35.9252 10.2809 35.8321 10.3596 35.7607 10.4565C35.6893 10.5535 35.6417 10.666 35.6218 10.785C34.7973 13.3859 34.4399 16.0876 33.9289 18.7547C33.628 20.3289 33.3228 21.9052 33.0135 23.4836C32.7 25.0599 32.3646 26.6362 32.073 28.2125C31.8692 29.6488 31.4217 31.0393 30.7501 32.3235C30.1985 33.2507 29.7656 34.2443 29.4616 35.2806C28.96 37.1721 28.6371 39.1236 28.2076 41.0435C27.9976 42.0177 27.6057 42.8657 26.5492 43.1999C26.1506 43.3155 25.7634 43.4674 25.3924 43.6539C24.7466 43.9943 24.43 44.5555 24.5522 45.1356C24.6116 45.4218 24.7645 45.6797 24.9867 45.8683C25.2089 46.0569 25.4875 46.1652 25.778 46.1759C26.7534 46.308 27.7383 46.3555 28.7217 46.3178C30.029 46.2327 31.3175 45.8985 31.957 44.5807C32.319 43.8308 32.5674 43.0307 32.6937 42.2068C32.9445 40.5233 33.7001 39.2844 35.2738 38.5624C35.9739 38.2213 36.6552 37.8424 37.3147 37.4275C37.7981 37.1323 38.1711 36.685 38.3757 36.1548C38.5803 35.6247 38.6052 35.0414 38.4464 34.4956C38.2715 34.004 38.0389 33.5352 37.7536 33.099C37.0858 32.0397 36.6752 30.9521 37.2112 29.7037C37.4276 29.1898 37.6094 28.6602 37.8382 28.1589C38.5311 26.7371 39.2239 25.3216 39.9575 23.9155C40.6503 22.6103 41.3839 21.3493 42.0987 20.0694C42.2283 19.8718 42.3696 19.6823 42.5219 19.5019C42.6222 19.6564 42.6567 19.6974 42.6786 19.7415C43.9326 22.4527 45.2305 25.1545 46.4688 27.8783C46.9975 28.9186 47.3774 30.0288 47.5974 31.1759C47.7769 32.5913 48.0918 33.986 48.5379 35.3405C49.1398 37.0019 49.9769 38.5782 50.7324 40.1829C51.2528 41.28 51.328 42.314 50.4753 43.2945C50.2973 43.5095 50.1496 43.7482 50.0364 44.0038C49.7762 44.5776 49.7229 45.1482 50.1994 45.6589C50.5756 46.0593 51.1713 46.1381 51.8359 45.8449C53.2676 45.2377 54.4976 44.2327 55.3816 42.9477C55.902 42.1879 56.1434 41.3399 55.7954 40.4256C55.4819 39.5776 55.2029 38.7232 54.8047 37.9067Z" fill="#282828" stroke="#282828" stroke-miterlimit="10"/>
<path d="M12.6553 28.6665L17.0975 29.36C18.1872 29.5304 19.2975 29.5176 20.383 29.3222L24.935 28.4962C24.935 28.4962 23.2578 31.9641 18.7434 31.8569C14.229 31.7497 12.6553 28.6665 12.6553 28.6665Z" fill="#3D4EEA"/>
<path d="M26.1923 25.6747V25.6557V25.5864V25.5107C26.1868 25.4829 26.1795 25.4555 26.1704 25.4288C26.1655 25.4042 26.1593 25.38 26.1516 25.3562L26.1234 25.2774C26.1142 25.2537 26.1037 25.2306 26.092 25.2081C26.0799 25.1815 26.0652 25.1561 26.0481 25.1324L26.0136 25.0631C25.998 25.0378 25.9791 25.0158 25.9603 24.9905C25.9415 24.9653 25.9321 24.9464 25.9164 24.9275L25.8537 24.8518L25.8005 24.7919L25.7283 24.7226L25.6688 24.6627L25.5904 24.5965L25.5214 24.5397L25.4211 24.4641L25.3459 24.4105L25.2487 24.3474L25.1672 24.297L25.0606 24.2371L24.9665 24.1866L24.8506 24.1299L24.7596 24.0826L24.6374 24.029L24.5371 23.9849L24.4117 23.9313L24.3051 23.8903L24.1671 23.8398L24.0543 23.7989L23.9195 23.7547L23.8003 23.7137L23.653 23.6728L23.5401 23.6349L23.3897 23.5939L23.258 23.5561C23.2078 23.5404 23.1577 23.5309 23.1044 23.5183L22.9727 23.4868L22.816 23.4521L22.678 23.4206L22.5213 23.389L22.3771 23.3607L22.2109 23.3323L22.0667 23.3071L21.9005 23.2818L21.7532 23.2598L21.5902 23.2409L21.4303 23.2219L21.261 23.1999L21.1074 23.181L20.9256 23.162H20.7751L20.5839 23.1431H20.4428H20.2735H20.1042H19.9412H19.7688H19.5681H19.427C19.1982 23.1431 18.9725 23.1431 18.7436 23.1431C18.5148 23.1431 18.2859 23.1431 18.0602 23.1431H17.7686H17.7185H17.4771H17.3799H17.2388H17.0413H17.0163C14.0067 23.3827 11.3733 24.2434 11.2949 25.6873V25.8323H11.3137C11.4329 29.4893 14.6995 32.3487 18.7593 32.3487C22.8191 32.3487 26.0889 29.4861 26.2049 25.8323V25.8134V25.6967L26.1923 25.6747ZM19.5148 24.0132C23.2454 24.1362 25.2268 25.1482 25.2518 25.7062V25.744C25.1609 26.4376 22.6059 27.4275 18.7436 27.4275C14.8813 27.4275 12.3263 26.4407 12.2354 25.7629V25.7219C12.2574 25.1261 14.5145 24.0164 18.7436 24.0164C19.007 24.0006 19.264 24.0038 19.5148 24.0132ZM18.7436 31.384C15.8218 31.384 13.3138 29.6248 12.5082 27.2352C13.9189 27.9887 16.3579 28.3764 18.7436 28.3764C21.1293 28.3764 23.5715 27.9887 24.9791 27.232C24.1671 29.6217 21.6592 31.384 18.7436 31.384Z" fill="#282828"/>
<path d="M19.2667 20.8102C18.9024 20.8097 18.5471 20.6961 18.2495 20.4848C17.9519 20.2736 17.7264 19.975 17.6039 19.63C17.4814 19.285 17.4679 18.9103 17.5652 18.5573C17.6625 18.2042 17.8659 17.89 18.1475 17.6576L23.571 13.1999C23.9366 12.9202 24.3959 12.7943 24.852 12.8486C25.3081 12.903 25.7254 13.1335 26.0158 13.4913C26.3062 13.8492 26.447 14.3065 26.4085 14.7668C26.37 15.2271 26.1552 15.6543 25.8094 15.9584L20.3827 20.4035C20.0683 20.6642 19.6741 20.8078 19.2667 20.8102ZM24.1667 13.9344L18.74 18.3827C18.585 18.5258 18.49 18.7229 18.4744 18.9339C18.4587 19.1449 18.5236 19.354 18.6558 19.5186C18.7879 19.6833 18.9775 19.7911 19.1859 19.8202C19.3943 19.8493 19.6059 19.7975 19.7777 19.6753L25.2137 15.227C25.2981 15.1579 25.3682 15.0727 25.4198 14.9763C25.4715 14.88 25.5038 14.7743 25.5148 14.6654C25.5259 14.5565 25.5155 14.4465 25.4843 14.3416C25.4531 14.2368 25.4016 14.1391 25.3329 14.0542C25.2641 13.9694 25.1794 13.8989 25.0836 13.847C24.9878 13.795 24.8827 13.7626 24.7744 13.7514C24.6661 13.7403 24.5567 13.7508 24.4524 13.7821C24.3482 13.8135 24.2511 13.8653 24.1667 13.9344Z" fill="#282828"/>
<path d="M19.9532 20.7188C19.718 20.9708 19.5367 21.2688 19.4208 21.5941C19.3048 21.9195 19.2566 22.2654 19.2792 22.6103C19.345 23.5561 19.4108 24.8676 19.3105 25.2585C19.1381 25.889 18.1506 25.7913 18.0095 25.3121C17.8684 24.8329 18.1506 24.0921 18.0095 22.9697C17.8722 21.8841 17.5363 20.8335 17.0189 19.8707C16.5925 19.1772 16.6458 18.6444 17.0189 18.4048C17.3919 18.1652 19.7557 16.9357 19.7557 16.9357C19.7116 17.1343 19.7439 17.3423 19.8463 17.5179C19.9487 17.6934 20.1135 17.8233 20.3075 17.8815C20.9216 18.102 21.5629 18.2367 22.2135 18.2818C22.2135 18.2818 20.8843 19.7068 19.9532 20.7188Z" fill="#3D4EEA"/>
<path d="M18.668 26.1791C18.4297 26.1916 18.1937 26.1275 17.9941 25.9959C17.7945 25.8644 17.6418 25.6724 17.5582 25.4477C17.4846 25.1088 17.4761 24.7589 17.5331 24.4168C17.5873 23.9549 17.5873 23.4883 17.5331 23.0265C17.4056 22.0085 17.0921 21.0231 16.6083 20.1198C15.9562 19.0511 16.2791 18.3134 16.7556 18.0076C17.135 17.7617 19.2856 16.6456 19.5301 16.5195L20.5176 16.012L20.2041 17.0776C20.1822 17.1816 20.2041 17.3424 20.4925 17.4622C21.0576 17.6626 21.6471 17.7846 22.245 17.8247L23.2262 17.8815L22.5428 18.6097C22.5428 18.6097 21.2136 20.0189 20.2856 21.0151C20.0928 21.2217 19.9446 21.4661 19.8501 21.733C19.7557 21.9999 19.7172 22.2836 19.737 22.5662C19.8937 24.8266 19.7872 25.2333 19.737 25.3688C19.672 25.6034 19.5308 25.8094 19.336 25.9539C19.1411 26.0985 18.9037 26.1733 18.6617 26.1665L18.668 26.1791ZM19.3827 17.6671C18.5018 18.1274 17.483 18.6665 17.2729 18.802C17.1224 18.8997 17.182 19.2371 17.4203 19.6248C17.9748 20.6486 18.3322 21.7685 18.4736 22.9256C18.5357 23.4555 18.5357 23.9909 18.4736 24.5208C18.4412 24.7435 18.4412 24.9697 18.4736 25.1923C18.5579 25.2414 18.6566 25.2592 18.7526 25.2427C18.8529 25.2238 18.8623 25.1797 18.8717 25.1513C18.8812 25.1229 18.9658 24.6627 18.8247 22.6608C18.7971 22.2478 18.8541 21.8336 18.9921 21.4437C19.1302 21.0538 19.3463 20.6965 19.6273 20.3941L21.2543 18.6633C20.8718 18.6002 20.4975 18.4945 20.1383 18.348C19.8097 18.2255 19.5397 17.9822 19.3827 17.6671Z" fill="#282828"/>
</g>
<defs>
<clipPath id="clip0_750_9916">
<rect width="55" height="45" fill="white" transform="translate(11 10)"/>
</clipPath>
</defs>
</svg>
