<svg width="9" height="22" viewBox="0 0 9 22" fill="none" xmlns="http://www.w3.org/2000/svg">
<path d="M3.584 15.5C3.49067 15.5 3.41133 15.4673 3.346 15.402C3.28067 15.3367 3.248 15.2573 3.248 15.164V9.172H0.658C0.564667 9.172 0.485333 9.144 0.42 9.088C0.354667 9.02267 0.322 8.93867 0.322 8.836V8.08C0.322 7.97733 0.354667 7.898 0.42 7.842C0.485333 7.77667 0.564667 7.744 0.658 7.744H7.798C7.90067 7.744 7.98467 7.77667 8.05 7.842C8.11533 7.898 8.148 7.97733 8.148 8.08V8.836C8.148 8.93867 8.11533 9.02267 8.05 9.088C7.98467 9.144 7.90067 9.172 7.798 9.172H5.222V15.164C5.222 15.2573 5.18933 15.3367 5.124 15.402C5.05867 15.4673 4.97467 15.5 4.872 15.5H3.584ZM0.658 6.904C0.564667 6.904 0.485333 6.87133 0.42 6.806C0.354667 6.74067 0.322 6.66133 0.322 6.568V6.05C0.322 5.94733 0.354667 5.86333 0.42 5.798C0.485333 5.73267 0.564667 5.7 0.658 5.7H7.798C7.90067 5.7 7.98467 5.73267 8.05 5.798C8.11533 5.86333 8.148 5.94733 8.148 6.05V6.568C8.148 6.66133 8.11533 6.74067 8.05 6.806C7.98467 6.87133 7.90067 6.904 7.798 6.904H0.658Z" fill="#282828"/>
</svg>
