<svg width="79" height="90" viewBox="0 0 79 90" fill="none" xmlns="http://www.w3.org/2000/svg">
<path d="M17.4726 78C17.406 78 17.3493 77.98 17.3026 77.94C17.256 77.8933 17.2326 77.8333 17.2326 77.76V71.25C17.2326 71.1767 17.256 71.1167 17.3026 71.07C17.3493 71.0233 17.406 71 17.4726 71H22.7126C22.786 71 22.846 71.0233 22.8926 71.07C22.9393 71.1167 22.9626 71.1767 22.9626 71.25V77.76C22.9626 77.8267 22.9393 77.8833 22.8926 77.93C22.846 77.9767 22.786 78 22.7126 78H21.8126C21.746 78 21.6893 77.9767 21.6426 77.93C21.596 77.8833 21.5726 77.8267 21.5726 77.76V72.25H18.6226V77.76C18.6226 77.8267 18.5993 77.8833 18.5526 77.93C18.5126 77.9767 18.456 78 18.3826 78H17.4726ZM26.6378 78.1C25.8978 78.1 25.3111 77.8867 24.8778 77.46C24.4445 77.0333 24.2111 76.4267 24.1778 75.64C24.1711 75.5733 24.1678 75.49 24.1678 75.39C24.1678 75.2833 24.1711 75.2 24.1778 75.14C24.2045 74.64 24.3178 74.2067 24.5178 73.84C24.7245 73.4733 25.0078 73.1933 25.3678 73C25.7278 72.8 26.1511 72.7 26.6378 72.7C27.1778 72.7 27.6311 72.8133 27.9978 73.04C28.3645 73.26 28.6411 73.57 28.8278 73.97C29.0145 74.3633 29.1078 74.82 29.1078 75.34V75.55C29.1078 75.6167 29.0845 75.6733 29.0378 75.72C28.9911 75.7667 28.9311 75.79 28.8578 75.79H25.5378C25.5378 75.79 25.5378 75.8 25.5378 75.82C25.5378 75.84 25.5378 75.8567 25.5378 75.87C25.5445 76.1033 25.5878 76.32 25.6678 76.52C25.7545 76.7133 25.8778 76.87 26.0378 76.99C26.2045 77.11 26.4011 77.17 26.6278 77.17C26.8145 77.17 26.9711 77.1433 27.0978 77.09C27.2245 77.03 27.3278 76.9633 27.4078 76.89C27.4878 76.8167 27.5445 76.7567 27.5778 76.71C27.6378 76.63 27.6845 76.5833 27.7178 76.57C27.7578 76.55 27.8145 76.54 27.8878 76.54H28.7478C28.8145 76.54 28.8678 76.56 28.9078 76.6C28.9545 76.64 28.9745 76.69 28.9678 76.75C28.9611 76.8567 28.9045 76.9867 28.7978 77.14C28.6978 77.2933 28.5511 77.4433 28.3578 77.59C28.1645 77.7367 27.9211 77.86 27.6278 77.96C27.3411 78.0533 27.0111 78.1 26.6378 78.1ZM25.5378 74.95H27.7478V74.92C27.7478 74.66 27.7045 74.4333 27.6178 74.24C27.5311 74.0467 27.4045 73.8933 27.2378 73.78C27.0711 73.6667 26.8711 73.61 26.6378 73.61C26.4045 73.61 26.2045 73.6667 26.0378 73.78C25.8711 73.8933 25.7445 74.0467 25.6578 74.24C25.5778 74.4333 25.5378 74.66 25.5378 74.92V74.95ZM29.9693 79.1C29.9026 79.1 29.8459 79.0767 29.7993 79.03C29.7526 78.9833 29.7293 78.9267 29.7293 78.86V77.18C29.7293 77.1133 29.7526 77.0567 29.7993 77.01C29.8459 76.9633 29.9026 76.94 29.9693 76.94H30.0493C30.2226 76.94 30.3626 76.85 30.4693 76.67C30.5826 76.4833 30.6659 76.2033 30.7193 75.83C30.7726 75.45 30.7993 74.97 30.7993 74.39V73.04C30.7993 72.9733 30.8226 72.9167 30.8693 72.87C30.9159 72.8233 30.9726 72.8 31.0393 72.8H34.5993C34.6726 72.8 34.7293 72.8233 34.7693 72.87C34.8159 72.9167 34.8393 72.9733 34.8393 73.04V76.93H35.2893C35.3626 76.93 35.4193 76.9533 35.4593 77C35.5059 77.0467 35.5293 77.1033 35.5293 77.17V78.86C35.5293 78.9267 35.5059 78.9833 35.4593 79.03C35.4193 79.0767 35.3626 79.1 35.2893 79.1H34.4593C34.3926 79.1 34.3359 79.0767 34.2893 79.03C34.2426 78.9833 34.2193 78.9267 34.2193 78.86V78H31.0393V78.86C31.0393 78.9267 31.0159 78.9833 30.9693 79.03C30.9226 79.0767 30.8659 79.1 30.7993 79.1H29.9693ZM31.5893 76.94L33.5293 76.93V73.86H32.0593V74.53C32.0593 75.13 32.0193 75.6267 31.9393 76.02C31.8593 76.4133 31.7426 76.72 31.5893 76.94ZM36.6786 78C36.6186 78 36.5652 77.9767 36.5186 77.93C36.4719 77.8833 36.4486 77.83 36.4486 77.77V73.04C36.4486 72.9733 36.4719 72.9167 36.5186 72.87C36.5652 72.8233 36.6219 72.8 36.6886 72.8H37.5186C37.5919 72.8 37.6486 72.8233 37.6886 72.87C37.7352 72.9167 37.7586 72.9733 37.7586 73.04V76.99L37.4086 76.74L40.1586 72.96C40.1919 72.9133 40.2286 72.8767 40.2686 72.85C40.3086 72.8167 40.3619 72.8 40.4286 72.8H41.1886C41.2486 72.8 41.3019 72.8233 41.3486 72.87C41.3952 72.91 41.4186 72.96 41.4186 73.02V77.76C41.4186 77.8267 41.3952 77.8833 41.3486 77.93C41.3019 77.9767 41.2452 78 41.1786 78H40.3486C40.2752 78 40.2152 77.9767 40.1686 77.93C40.1286 77.8833 40.1086 77.8267 40.1086 77.76V73.99L40.4786 74.04L37.7086 77.84C37.6819 77.88 37.6452 77.9167 37.5986 77.95C37.5586 77.9833 37.5052 78 37.4386 78H36.6786ZM42.919 78C42.8524 78 42.7957 77.9767 42.749 77.93C42.7024 77.8833 42.679 77.8267 42.679 77.76V73.04C42.679 72.9733 42.7024 72.9167 42.749 72.87C42.7957 72.8233 42.8524 72.8 42.919 72.8H43.739C43.8057 72.8 43.8624 72.8233 43.909 72.87C43.9557 72.9167 43.979 72.9733 43.979 73.04V74.83H44.699L45.919 72.96C45.9457 72.9133 45.979 72.8767 46.019 72.85C46.0657 72.8167 46.1257 72.8 46.199 72.8H47.089C47.1557 72.8 47.209 72.8167 47.249 72.85C47.289 72.8833 47.309 72.9267 47.309 72.98C47.309 73 47.3024 73.0233 47.289 73.05C47.2824 73.07 47.2724 73.09 47.259 73.11L45.819 75.3L47.469 77.69C47.5024 77.73 47.519 77.7733 47.519 77.82C47.519 77.8733 47.499 77.9167 47.459 77.95C47.419 77.9833 47.369 78 47.309 78H46.299C46.2324 78 46.1757 77.9867 46.129 77.96C46.089 77.9333 46.0524 77.8967 46.019 77.85L44.699 75.89H43.979V77.76C43.979 77.8267 43.9557 77.8833 43.909 77.93C43.8624 77.9767 43.8057 78 43.739 78H42.919ZM51.2719 75.88H49.7019V77.76C49.7019 77.8267 49.6786 77.8833 49.6319 77.93C49.5919 77.9767 49.5353 78 49.4619 78H48.6319C48.5653 78 48.5086 77.9767 48.4619 77.93C48.4153 77.8833 48.3919 77.8267 48.3919 77.76V73.04C48.3919 72.9733 48.4153 72.9167 48.4619 72.87C48.5086 72.8233 48.5653 72.8 48.6319 72.8H49.4619C49.5353 72.8 49.5919 72.8233 49.6319 72.87C49.6786 72.9167 49.7019 72.9733 49.7019 73.04V74.83H51.2719V75.88ZM53.1119 78.1C52.5786 78.1 52.1286 78.0067 51.7619 77.82C51.4019 77.6333 51.1253 77.37 50.9319 77.03C50.7386 76.69 50.6319 76.2933 50.6119 75.84C50.6053 75.72 50.6019 75.5733 50.6019 75.4C50.6019 75.2267 50.6053 75.08 50.6119 74.96C50.6319 74.5 50.7419 74.1033 50.9419 73.77C51.1419 73.43 51.4219 73.1667 51.7819 72.98C52.1486 72.7933 52.5919 72.7 53.1119 72.7C53.6319 72.7 54.0719 72.7933 54.4319 72.98C54.7986 73.1667 55.0786 73.43 55.2719 73.77C55.4719 74.1033 55.5819 74.5 55.6019 74.96C55.6153 75.08 55.6219 75.2267 55.6219 75.4C55.6219 75.5733 55.6153 75.72 55.6019 75.84C55.5819 76.2933 55.4753 76.69 55.2819 77.03C55.0953 77.37 54.8186 77.6333 54.4519 77.82C54.0919 78.0067 53.6453 78.1 53.1119 78.1ZM53.1119 77.11C53.4653 77.11 53.7386 77 53.9319 76.78C54.1253 76.5533 54.2319 76.2233 54.2519 75.79C54.2586 75.69 54.2619 75.56 54.2619 75.4C54.2619 75.24 54.2586 75.11 54.2519 75.01C54.2319 74.5833 54.1253 74.2567 53.9319 74.03C53.7386 73.8033 53.4653 73.69 53.1119 73.69C52.7586 73.69 52.4819 73.8033 52.2819 74.03C52.0886 74.2567 51.9853 74.5833 51.9719 75.01C51.9653 75.11 51.9619 75.24 51.9619 75.4C51.9619 75.56 51.9653 75.69 51.9719 75.79C51.9853 76.2233 52.0886 76.5533 52.2819 76.78C52.4819 77 52.7586 77.11 53.1119 77.11ZM56.9818 79.9C56.9151 79.9 56.8584 79.8767 56.8118 79.83C56.7651 79.7833 56.7418 79.7267 56.7418 79.66V73.04C56.7418 72.9733 56.7651 72.9167 56.8118 72.87C56.8584 72.8233 56.9151 72.8 56.9818 72.8H57.7718C57.8451 72.8 57.9018 72.8233 57.9418 72.87C57.9884 72.9167 58.0118 72.9733 58.0118 73.04V73.44C58.1718 73.2267 58.3818 73.05 58.6418 72.91C58.9018 72.77 59.2251 72.7 59.6118 72.7C59.9651 72.7 60.2718 72.7567 60.5318 72.87C60.7918 72.9833 61.0084 73.1467 61.1818 73.36C61.3551 73.5667 61.4884 73.8133 61.5818 74.1C61.6751 74.3867 61.7284 74.7033 61.7418 75.05C61.7484 75.1633 61.7518 75.28 61.7518 75.4C61.7518 75.52 61.7484 75.64 61.7418 75.76C61.7351 76.0933 61.6851 76.4033 61.5918 76.69C61.4984 76.97 61.3618 77.2167 61.1818 77.43C61.0084 77.6367 60.7918 77.8 60.5318 77.92C60.2718 78.04 59.9651 78.1 59.6118 78.1C59.2518 78.1 58.9451 78.0367 58.6918 77.91C58.4384 77.7767 58.2318 77.6033 58.0718 77.39V79.66C58.0718 79.7267 58.0484 79.7833 58.0018 79.83C57.9618 79.8767 57.9051 79.9 57.8318 79.9H56.9818ZM59.2418 77.03C59.5284 77.03 59.7518 76.97 59.9118 76.85C60.0718 76.7233 60.1851 76.56 60.2518 76.36C60.3251 76.16 60.3684 75.94 60.3818 75.7C60.3951 75.5 60.3951 75.3 60.3818 75.1C60.3684 74.86 60.3251 74.64 60.2518 74.44C60.1851 74.24 60.0718 74.08 59.9118 73.96C59.7518 73.8333 59.5284 73.77 59.2418 73.77C58.9684 73.77 58.7451 73.8333 58.5718 73.96C58.4051 74.0867 58.2818 74.25 58.2018 74.45C58.1284 74.6433 58.0851 74.8433 58.0718 75.05C58.0651 75.17 58.0618 75.2967 58.0618 75.43C58.0618 75.5633 58.0651 75.6933 58.0718 75.82C58.0784 76.02 58.1251 76.2133 58.2118 76.4C58.2984 76.58 58.4251 76.73 58.5918 76.85C58.7584 76.97 58.9751 77.03 59.2418 77.03Z" fill="#282828"/>
<g clip-path="url(#clip0_750_9898)">
<path d="M27.7413 55.0061C26.4804 54.9523 25.2238 54.8264 23.9781 54.629C20.9424 54.1911 17.7844 53.5191 15.0843 52.0472C12.5409 50.6606 10.7597 48.3981 11.4841 45.4453C11.7837 44.3418 12.2713 43.2944 12.9267 42.3466C20.8264 30.3744 29.1714 33.02 32.5991 33.02C36.0268 33.02 32.9441 18.7275 45.9743 19.1654C51.5189 19.354 57.5777 20.5156 62.3006 23.4927C65.907 25.7673 67.8859 29.4195 64.8094 33.02C63.0376 35.1 61.0148 36.9489 59.2461 39.038C57.4892 41.1172 55.5376 43.034 53.4162 44.7642C48.8995 48.4723 43.7066 51.3273 38.106 53.1815C35.0828 54.1668 31.9374 54.8997 28.7386 54.9878C28.4062 55.0061 28.0738 55.0061 27.7413 55.0061Z" fill="#ECEEFD"/>
<path d="M26.2801 38.6701C26.6807 38.2713 27.1304 37.922 27.6192 37.6301C32.386 34.4462 35.8544 29.7662 38.7804 24.9007C41.7063 20.0351 44.1932 14.9507 47.5299 10.3649C47.6711 10.1703 47.8686 9.95134 48.1101 9.99696C48.5147 10.0699 48.4237 10.6599 48.2073 11.0066L41.0822 23.0761C37.6326 28.936 33.9352 35.0362 28.0206 38.6001C27.4937 38.9042 26.8948 39.2904 26.8007 39.8834C26.7816 40.0578 26.7996 40.2341 26.8535 40.4015C26.9075 40.5688 26.9962 40.7237 27.1143 40.8565C27.3332 41.13 27.6299 41.3355 27.9677 41.4477C28.3055 41.5598 28.6697 41.5738 29.0156 41.4878C29.3615 41.4019 29.6739 41.2198 29.9145 40.9639C30.155 40.708 30.3132 40.3895 30.3695 40.0476C30.4573 39.5276 30.3099 38.9711 30.5075 38.4816C30.7051 37.992 31.5549 37.7517 31.7431 38.2474C31.7924 38.4722 31.7592 38.7068 31.649 38.9103C31.3561 39.6884 31.2302 40.5162 31.2789 41.3431C31.3134 41.9513 31.6333 42.6902 32.2511 42.6507C32.4427 42.6149 32.6181 42.5221 32.7529 42.3854C32.8878 42.2486 32.9754 42.0746 33.0038 41.8874C33.0492 41.5109 33.0397 41.1301 32.9756 40.7562C32.9198 40.033 33.0268 39.3067 33.2892 38.6275C33.4554 38.1927 33.9383 37.7152 34.3241 37.9798C34.6377 38.2079 34.4903 38.7005 34.346 39.0685C34.113 39.6647 34.0146 40.3024 34.0575 40.9386C34.0983 41.5255 34.4558 42.2463 35.0579 42.155C35.2406 42.1128 35.4056 42.0173 35.5307 41.8814C35.6557 41.7454 35.7348 41.5756 35.7572 41.3948C35.7948 41.0324 35.7885 40.667 35.7384 40.3061C35.7021 39.6598 35.8291 39.0147 36.1085 38.4268C36.2433 38.1531 36.4879 37.8582 36.7984 37.9068C37.181 37.9646 37.2688 38.4694 37.1841 38.8191C37.0587 39.3573 36.7702 39.8591 36.7294 40.4095C36.6886 40.9599 37.043 41.6076 37.5981 41.6259C38.1532 41.6441 38.5201 41.0633 38.5797 40.5342C38.6393 40.0051 38.5013 39.4638 38.6016 38.9407C38.702 38.4177 39.1818 37.8855 39.7118 38.0284C39.8165 38.0487 39.9107 38.1035 39.9783 38.1835C40.1759 38.4238 39.9972 38.7704 39.8466 39.0411C39.6134 39.4047 39.5037 39.8302 39.533 40.2575C39.5536 40.4689 39.6398 40.6693 39.7804 40.8322C39.9209 40.9951 40.1092 41.1128 40.3202 41.1698C40.9944 41.3005 41.0697 40.7592 41.2234 40.2757C41.446 39.5793 42.1297 39.2996 42.7757 39.0076C44.5784 38.2305 46.2186 37.1389 47.6146 35.7873C48.2826 35.1122 48.7467 34.285 49.4116 33.616C50.0763 32.9393 50.9087 32.4389 51.8295 32.1625C52.855 31.8584 53.9306 31.7702 54.9812 31.5725C56.3171 31.3201 57.5967 30.8184 58.4308 29.7479C58.8351 29.2385 59.1205 28.6499 59.2673 28.023C59.414 27.3962 59.4186 26.7458 59.2807 26.117C58.8385 24.2925 57.258 22.9666 56.1854 21.4036C56.0477 21.2376 55.9646 21.0352 55.9471 20.8227C55.9675 20.6339 56.0365 20.453 56.1478 20.2967L60.6543 12.7369C60.7557 12.5337 60.9012 12.3543 61.0808 12.2108C61.1724 12.1402 61.2849 12.1001 61.4018 12.0963C61.5186 12.0924 61.6337 12.1251 61.73 12.1895C62.0185 12.4206 61.8523 12.8707 61.6641 13.1839L57.5308 20.0899C57.3725 20.3084 57.2802 20.5653 57.2642 20.8319C57.3188 21.1457 57.4786 21.4332 57.719 21.6499C58.7507 22.8024 59.7637 24.0279 60.2278 25.4815C60.6136 26.6099 60.6136 27.8289 60.2278 28.9573C59.3058 31.5086 56.8346 32.3692 54.3634 32.7007C53.109 32.871 51.7291 32.874 50.8416 33.7468C50.2144 34.3823 49.9008 35.246 49.3175 35.9332C48.7001 36.6392 47.9795 37.2539 47.1787 37.7578C46.3472 38.2829 45.4772 38.7484 44.5758 39.1506C43.8106 39.5033 43.036 39.8257 42.5342 40.5281C42.2896 40.8657 42.1391 41.2579 41.8694 41.5742C41.5598 41.9187 41.1337 42.145 40.6676 42.2124C40.2015 42.2799 39.7259 42.184 39.326 41.9422C38.9887 42.3189 38.5293 42.5732 38.0232 42.6633C37.5172 42.7534 36.9945 42.6739 36.5412 42.4378C36.3407 42.7024 36.0702 42.9095 35.7583 43.0374C35.4465 43.1653 35.1048 43.2093 34.7694 43.1646C34.5157 43.0973 34.2546 43.0595 33.9916 43.0521C33.6462 43.132 33.3167 43.2666 33.0163 43.4505C32.7508 43.5522 32.4666 43.6004 32.1812 43.5919C31.8958 43.5834 31.6151 43.5186 31.3565 43.4013C31.0978 43.284 30.8666 43.1167 30.6769 42.9098C30.4873 42.7028 30.3432 42.4605 30.2535 42.1976C29.206 42.6325 27.9359 42.6781 26.9575 42.1033C25.979 41.5286 25.4271 40.2605 25.8849 39.2448C25.9863 39.0352 26.1195 38.8414 26.2801 38.6701Z" fill="#282828"/>
<path d="M52.7076 25.895C52.649 25.9317 52.5834 25.9568 52.5148 25.9689C52.4461 25.9809 52.3756 25.9797 52.3075 25.9653C52.2393 25.9509 52.1747 25.9236 52.1174 25.8849C52.0602 25.8462 52.0114 25.797 51.9738 25.74C51.8949 25.6268 51.8646 25.4883 51.8892 25.3538C51.9138 25.2193 51.9913 25.0993 52.1055 25.0193C52.1651 24.9706 52.2341 24.9341 52.2968 24.8915C52.7738 24.5786 53.1269 24.1176 53.2978 23.5842C53.4688 23.0509 53.4476 22.4771 53.2376 21.957C53.1367 21.7417 53.0226 21.5325 52.8958 21.3306C52.6825 20.9444 52.9209 20.5217 53.4665 20.5186C53.6075 20.5929 53.7339 20.6907 53.8397 20.8075C54.204 21.2863 54.433 21.8491 54.5039 22.4401C54.5749 23.0311 54.4854 23.6298 54.2443 24.1769C53.9575 24.9077 53.4131 25.5164 52.7076 25.895Z" fill="#282828"/>
<path d="M29.5227 40.1054L28.4627 40.8261C28.4185 40.854 28.3648 40.8638 28.3131 40.8536C28.2615 40.8433 28.2161 40.8138 28.1867 40.7714L26.9323 39.5793C26.9036 39.5365 26.8934 39.4844 26.904 39.4343C26.9145 39.3842 26.945 39.3402 26.9887 39.3117L28.0362 38.6427C28.0578 38.6281 28.0823 38.6179 28.1081 38.6128C28.1339 38.6076 28.1605 38.6076 28.1863 38.6127C28.2121 38.6178 28.2365 38.628 28.2582 38.6425C28.2798 38.6571 28.2982 38.6758 28.3122 38.6975L29.5666 39.8378C29.5966 39.8792 29.6087 39.9303 29.6005 39.9802C29.5923 40.0302 29.5644 40.0751 29.5227 40.1054Z" fill="#3D4EEA"/>
<path fill-rule="evenodd" clip-rule="evenodd" d="M28.1372 38.8512L27.1593 39.4758L28.3603 40.6171L29.344 39.9483L28.1372 38.8512ZM29.5225 40.1054L29.6636 40.2879C29.7542 40.2221 29.8149 40.1246 29.8327 40.0161C29.8505 39.9076 29.824 39.7966 29.7589 39.7067L29.745 39.6875L28.4908 38.5474C28.4633 38.5118 28.43 38.4807 28.3922 38.4552C28.3443 38.423 28.2903 38.4006 28.2333 38.3893C28.1762 38.378 28.1174 38.378 28.0604 38.3894C28.0046 38.4006 27.9516 38.4224 27.9046 38.4536L26.8592 39.1213L26.8575 39.1224C26.7625 39.1842 26.6963 39.2799 26.6734 39.3886C26.6505 39.4974 26.6726 39.6105 26.7349 39.7036L26.749 39.7246L28.008 40.9211C28.0717 41.0011 28.1631 41.0567 28.2659 41.077C28.378 41.0993 28.4947 41.0779 28.5907 41.0174L28.5942 41.0152L29.6576 40.2922L29.5225 40.1054Z" fill="#282828"/>
<path d="M20.5505 32.5243C20.4616 32.506 20.3837 32.4547 20.3333 32.3814C20.2829 32.3081 20.2641 32.2186 20.2808 32.1321C20.2808 31.4509 20.2808 30.7697 20.2808 30.0885C20.2808 29.7084 20.1428 29.526 19.7288 29.529C18.3803 29.529 17.0329 29.529 15.6865 29.529C15.2819 29.529 15.1314 29.7023 15.1408 30.0885C15.1596 30.7697 15.1408 31.4509 15.1408 32.1321C15.1574 32.2187 15.138 32.3082 15.0869 32.3811C15.0358 32.454 14.9571 32.5043 14.868 32.5213C12.7041 33.2633 11.6472 34.8932 11.8636 37.1223C12.0486 39.0502 12.657 40.8687 13.3595 42.6598C13.4837 42.9983 13.717 43.289 14.0248 43.4889C14.3326 43.6888 14.6986 43.7873 15.0687 43.7698C15.9405 43.7698 16.8154 43.7698 17.6904 43.7698C18.5654 43.7698 19.4685 43.7698 20.356 43.7698C20.7259 43.7889 21.0923 43.6918 21.4008 43.4929C21.7092 43.2941 21.9433 43.004 22.0683 42.6659C22.8145 40.9062 23.3175 39.0585 23.5642 37.1709C23.8088 34.9358 22.7363 33.2542 20.5505 32.5243ZM19.5313 30.2923C19.5313 30.4991 19.5313 32.1168 19.5313 32.3419H15.8997C15.8997 32.1321 15.8997 30.5173 15.8997 30.2923H19.5313ZM15.2631 33.1599C15.4444 33.1226 15.6297 33.1062 15.815 33.1112C17.0475 33.1112 18.28 33.1112 19.5156 33.1112C20.3323 33.1158 21.1186 33.412 21.7243 33.9432C22.3301 34.4745 22.7127 35.2035 22.799 35.991C22.7979 36.0578 22.7816 36.1235 22.7512 36.1834C22.7209 36.2433 22.6772 36.296 22.6234 36.3377C22.1404 36.66 21.6481 36.9702 21.14 37.25C20.7613 37.4809 20.3258 37.6095 19.8786 37.6223C19.4314 37.6351 18.9889 37.5318 18.5967 37.323C17.9946 37.0189 17.4082 36.7148 16.8186 36.4107C16.311 36.1169 15.7322 35.9588 15.1412 35.9524C14.5501 35.946 13.9678 36.0915 13.4536 36.3742C13.1902 36.508 12.9205 36.6327 12.6131 36.7786C12.5096 34.9358 13.5289 33.5674 15.2631 33.1599ZM20.24 43.0552C18.5528 43.0552 16.8656 43.0552 15.1784 43.0552C14.4446 43.0552 14.0839 42.7511 13.9397 42.0243H21.507C21.2937 42.7906 20.977 43.0521 20.24 43.0552ZM22.6234 38.4055C22.4143 39.2671 22.1739 40.1216 21.9021 40.9691C21.8722 41.0439 21.824 41.1106 21.7618 41.1636C21.6995 41.2165 21.625 41.2541 21.5446 41.2732C18.9939 41.2873 16.4443 41.2873 13.8958 41.2732C13.8199 41.2623 13.7481 41.2332 13.6868 41.1886C13.6255 41.144 13.5766 41.0853 13.5445 41.0177C13.2309 39.9777 12.9706 38.9316 12.6947 37.8855C12.6741 37.8381 12.6645 37.7869 12.6665 37.7355C12.6685 37.6841 12.6821 37.6337 12.7063 37.588C12.7305 37.5422 12.7648 37.5021 12.8066 37.4705C12.8485 37.4389 12.897 37.4166 12.9487 37.4051C13.2623 37.2713 13.5759 37.101 13.9083 36.9428C14.2851 36.7526 14.7047 36.6561 15.1295 36.6619C15.5542 36.6677 15.9708 36.7758 16.3419 36.9763C16.9503 37.2804 17.5493 37.6118 18.1577 37.922C18.6888 38.2186 19.2949 38.3649 19.9074 38.3445C20.5198 38.3241 21.1142 38.1377 21.623 37.8065C21.9962 37.5754 22.3913 37.3382 22.8586 37.0645C22.7739 37.5662 22.7394 37.995 22.6234 38.4055Z" fill="#282828"/>
<path d="M21.5069 42.0243C21.2936 42.7906 20.9769 43.0521 20.2525 43.0551C18.5653 43.0551 16.8781 43.0551 15.1909 43.0551C14.4571 43.0551 14.0964 42.751 13.9521 42.0243H21.5069Z" fill="#3D4EEA"/>
<path d="M22.8584 37.0645C22.7737 37.5784 22.7392 38.0072 22.6326 38.4177C22.4172 39.2712 22.1736 40.1216 21.9019 40.969C21.8719 41.0439 21.8238 41.1106 21.7615 41.1636C21.6993 41.2165 21.6248 41.2541 21.5443 41.2731C18.9937 41.2873 16.4441 41.2873 13.8955 41.2731C13.8197 41.2622 13.7479 41.2332 13.6865 41.1886C13.6252 41.144 13.5763 41.0852 13.5443 41.0177C13.2307 39.9777 12.9704 38.9316 12.6944 37.8855C12.6739 37.8381 12.6643 37.7869 12.6663 37.7355C12.6683 37.6841 12.6819 37.6337 12.7061 37.5879C12.7303 37.5422 12.7645 37.5021 12.8064 37.4705C12.8482 37.4389 12.8967 37.4166 12.9484 37.4051C13.262 37.2713 13.5757 37.101 13.9081 36.9428C14.2849 36.7526 14.7045 36.656 15.1292 36.6619C15.554 36.6677 15.9706 36.7758 16.3416 36.9763C16.95 37.2804 17.549 37.6118 18.1574 37.922C18.6885 38.2186 19.2946 38.3649 19.9071 38.3445C20.5196 38.3241 21.1139 38.1377 21.6227 37.8065C21.9959 37.5753 22.3911 37.3382 22.8584 37.0645Z" fill="#3D4EEA"/>
<path d="M20.6852 29.6233C20.6381 29.0546 20.6068 28.4859 20.566 27.9173C20.3904 25.5089 20.2179 23.0974 20.0329 20.6859C20.0328 20.5399 20.0018 20.3955 19.9418 20.2616C19.8818 20.1276 19.7942 20.0071 19.6843 19.9073C19.5743 19.8076 19.4445 19.7307 19.3027 19.6816C19.1609 19.6324 19.0102 19.612 18.86 19.6216C18.1732 19.6216 17.4833 19.6216 16.7965 19.6216C15.9968 19.6216 15.5765 20.0017 15.517 20.7771C15.2891 23.7674 15.0675 26.7638 14.8521 29.7662C14.8239 30.1889 14.9399 30.3044 15.3915 30.3105C15.8431 30.3166 16.2163 30.3105 16.6773 30.3105C16.6773 32.4635 16.6773 34.5466 16.6773 36.6296C16.6719 36.6984 16.6604 36.7665 16.6428 36.8334C16.4233 38.0224 16.2006 39.2114 15.9842 40.4004C15.9027 40.8413 16.0187 40.9812 16.4891 40.9843H18.5966C19.7005 40.9843 19.6722 40.9843 19.4966 39.9443C19.2551 38.4816 18.8224 37.0493 18.8694 35.541C18.9102 33.9597 18.8694 32.3753 18.8694 30.791V30.2953H20.0329C20.6569 30.2953 20.7416 30.2071 20.6852 29.6233ZM16.7588 40.2149C16.9533 39.1658 17.1446 38.1349 17.3453 37.0675H18.2014C18.3959 38.1075 18.5903 39.1384 18.7941 40.2149H16.7588ZM17.43 36.3134V30.3166H18.1262V36.3134H17.43ZM15.6142 29.5564C15.6142 29.383 15.633 29.2371 15.6424 29.0911C15.8462 26.3542 16.0532 23.6174 16.2445 20.8623C16.2696 20.467 16.4358 20.324 16.8278 20.3332C17.4895 20.3484 18.1481 20.3332 18.8067 20.3332C19.0889 20.3332 19.2677 20.4305 19.2896 20.7376C19.506 23.6569 19.7255 26.5793 19.9482 29.5564H15.6142Z" fill="#282828"/>
<path d="M19.9483 29.5564H15.6143C15.6143 29.383 15.6331 29.2371 15.6425 29.0911C15.8463 26.3542 16.0533 23.6174 16.2446 20.8623C16.2697 20.467 16.4359 20.324 16.8279 20.3332C17.4896 20.3484 18.1482 20.3332 18.8068 20.3332C19.089 20.3332 19.2678 20.4305 19.2897 20.7376C19.5061 23.66 19.7256 26.5823 19.9483 29.5564Z" fill="#3D4EEA"/>
<path d="M18.7941 40.2149H16.7588C16.9532 39.1658 17.1445 38.1349 17.3452 37.0675H18.2014C18.3958 38.1075 18.5902 39.1384 18.7941 40.2149Z" fill="#3D4EEA"/>
</g>
<defs>
<clipPath id="clip0_750_9898">
<rect width="55" height="45" fill="white" transform="translate(11.3335 10)"/>
</clipPath>
</defs>
</svg>
