<svg width="79" height="90" viewBox="0 0 79 90" fill="none" xmlns="http://www.w3.org/2000/svg">
<path d="M16.6787 78C16.612 78 16.5554 77.98 16.5087 77.94C16.462 77.8933 16.4387 77.8333 16.4387 77.76V71.25C16.4387 71.1767 16.462 71.1167 16.5087 71.07C16.5554 71.0233 16.612 71 16.6787 71H21.9187C21.992 71 22.052 71.0233 22.0987 71.07C22.1454 71.1167 22.1687 71.1767 22.1687 71.25V77.76C22.1687 77.8267 22.1454 77.8833 22.0987 77.93C22.052 77.9767 21.992 78 21.9187 78H21.0187C20.952 78 20.8954 77.9767 20.8487 77.93C20.802 77.8833 20.7787 77.8267 20.7787 77.76V72.25H17.8287V77.76C17.8287 77.8267 17.8054 77.8833 17.7587 77.93C17.7187 77.9767 17.662 78 17.5887 78H16.6787ZM23.8538 79.9C23.7872 79.9 23.7305 79.8767 23.6838 79.83C23.6372 79.7833 23.6138 79.7267 23.6138 79.66V73.04C23.6138 72.9733 23.6372 72.9167 23.6838 72.87C23.7305 72.8233 23.7872 72.8 23.8538 72.8H24.6438C24.7172 72.8 24.7738 72.8233 24.8138 72.87C24.8605 72.9167 24.8838 72.9733 24.8838 73.04V73.44C25.0438 73.2267 25.2538 73.05 25.5138 72.91C25.7738 72.77 26.0972 72.7 26.4838 72.7C26.8372 72.7 27.1438 72.7567 27.4038 72.87C27.6638 72.9833 27.8805 73.1467 28.0538 73.36C28.2272 73.5667 28.3605 73.8133 28.4538 74.1C28.5472 74.3867 28.6005 74.7033 28.6138 75.05C28.6205 75.1633 28.6238 75.28 28.6238 75.4C28.6238 75.52 28.6205 75.64 28.6138 75.76C28.6072 76.0933 28.5572 76.4033 28.4638 76.69C28.3705 76.97 28.2338 77.2167 28.0538 77.43C27.8805 77.6367 27.6638 77.8 27.4038 77.92C27.1438 78.04 26.8372 78.1 26.4838 78.1C26.1238 78.1 25.8172 78.0367 25.5638 77.91C25.3105 77.7767 25.1038 77.6033 24.9438 77.39V79.66C24.9438 79.7267 24.9205 79.7833 24.8738 79.83C24.8338 79.8767 24.7772 79.9 24.7038 79.9H23.8538ZM26.1138 77.03C26.4005 77.03 26.6238 76.97 26.7838 76.85C26.9438 76.7233 27.0572 76.56 27.1238 76.36C27.1972 76.16 27.2405 75.94 27.2538 75.7C27.2672 75.5 27.2672 75.3 27.2538 75.1C27.2405 74.86 27.1972 74.64 27.1238 74.44C27.0572 74.24 26.9438 74.08 26.7838 73.96C26.6238 73.8333 26.4005 73.77 26.1138 73.77C25.8405 73.77 25.6172 73.8333 25.4438 73.96C25.2772 74.0867 25.1538 74.25 25.0738 74.45C25.0005 74.6433 24.9572 74.8433 24.9438 75.05C24.9372 75.17 24.9338 75.2967 24.9338 75.43C24.9338 75.5633 24.9372 75.6933 24.9438 75.82C24.9505 76.02 24.9972 76.2133 25.0838 76.4C25.1705 76.58 25.2972 76.73 25.4638 76.85C25.6305 76.97 25.8472 77.03 26.1138 77.03ZM29.9764 78C29.9164 78 29.8631 77.9767 29.8164 77.93C29.7698 77.8833 29.7464 77.83 29.7464 77.77V73.04C29.7464 72.9733 29.7698 72.9167 29.8164 72.87C29.8631 72.8233 29.9198 72.8 29.9864 72.8H30.8164C30.8898 72.8 30.9464 72.8233 30.9864 72.87C31.0331 72.9167 31.0564 72.9733 31.0564 73.04V76.99L30.7064 76.74L33.4564 72.96C33.4898 72.9133 33.5264 72.8767 33.5664 72.85C33.6064 72.8167 33.6598 72.8 33.7264 72.8H34.4864C34.5464 72.8 34.5998 72.8233 34.6464 72.87C34.6931 72.91 34.7164 72.96 34.7164 73.02V77.76C34.7164 77.8267 34.6931 77.8833 34.6464 77.93C34.5998 77.9767 34.5431 78 34.4764 78H33.6464C33.5731 78 33.5131 77.9767 33.4664 77.93C33.4264 77.8833 33.4064 77.8267 33.4064 77.76V73.99L33.7764 74.04L31.0064 77.84C30.9798 77.88 30.9431 77.9167 30.8964 77.95C30.8564 77.9833 30.8031 78 30.7364 78H29.9764ZM39.2669 78C39.2002 78 39.1436 77.9767 39.0969 77.93C39.0502 77.8833 39.0269 77.8267 39.0269 77.76V76.06C38.8602 76.2067 38.6536 76.3167 38.4069 76.39C38.1669 76.4567 37.8936 76.49 37.5869 76.49C36.9802 76.49 36.5102 76.3467 36.1769 76.06C35.8502 75.7667 35.6869 75.2967 35.6869 74.65V73.04C35.6869 72.9733 35.7069 72.9167 35.7469 72.87C35.7936 72.8233 35.8536 72.8 35.9269 72.8H36.7869C36.8536 72.8 36.9102 72.8233 36.9569 72.87C37.0036 72.9167 37.0269 72.9733 37.0269 73.04V74.58C37.0269 74.8467 37.0969 75.04 37.2369 75.16C37.3836 75.2733 37.6169 75.33 37.9369 75.33C38.2636 75.33 38.5269 75.2867 38.7269 75.2C38.9269 75.1133 39.0269 74.96 39.0269 74.74V73.04C39.0269 72.9733 39.0502 72.9167 39.0969 72.87C39.1436 72.8233 39.2002 72.8 39.2669 72.8H40.1669C40.2336 72.8 40.2902 72.8233 40.3369 72.87C40.3836 72.9167 40.4069 72.9733 40.4069 73.04V77.76C40.4069 77.8267 40.3836 77.8833 40.3369 77.93C40.2902 77.9767 40.2336 78 40.1669 78H39.2669ZM43.9981 78.1C43.2581 78.1 42.6715 77.8867 42.2381 77.46C41.8048 77.0333 41.5715 76.4267 41.5381 75.64C41.5315 75.5733 41.5281 75.49 41.5281 75.39C41.5281 75.2833 41.5315 75.2 41.5381 75.14C41.5648 74.64 41.6781 74.2067 41.8781 73.84C42.0848 73.4733 42.3681 73.1933 42.7281 73C43.0881 72.8 43.5115 72.7 43.9981 72.7C44.5381 72.7 44.9915 72.8133 45.3581 73.04C45.7248 73.26 46.0015 73.57 46.1881 73.97C46.3748 74.3633 46.4681 74.82 46.4681 75.34V75.55C46.4681 75.6167 46.4448 75.6733 46.3981 75.72C46.3515 75.7667 46.2915 75.79 46.2181 75.79H42.8981C42.8981 75.79 42.8981 75.8 42.8981 75.82C42.8981 75.84 42.8981 75.8567 42.8981 75.87C42.9048 76.1033 42.9481 76.32 43.0281 76.52C43.1148 76.7133 43.2381 76.87 43.3981 76.99C43.5648 77.11 43.7615 77.17 43.9881 77.17C44.1748 77.17 44.3315 77.1433 44.4581 77.09C44.5848 77.03 44.6881 76.9633 44.7681 76.89C44.8481 76.8167 44.9048 76.7567 44.9381 76.71C44.9981 76.63 45.0448 76.5833 45.0781 76.57C45.1181 76.55 45.1748 76.54 45.2481 76.54H46.1081C46.1748 76.54 46.2281 76.56 46.2681 76.6C46.3148 76.64 46.3348 76.69 46.3281 76.75C46.3215 76.8567 46.2648 76.9867 46.1581 77.14C46.0581 77.2933 45.9115 77.4433 45.7181 77.59C45.5248 77.7367 45.2815 77.86 44.9881 77.96C44.7015 78.0533 44.3715 78.1 43.9981 78.1ZM42.8981 74.95H45.1081V74.92C45.1081 74.66 45.0648 74.4333 44.9781 74.24C44.8915 74.0467 44.7648 73.8933 44.5981 73.78C44.4315 73.6667 44.2315 73.61 43.9981 73.61C43.7648 73.61 43.5648 73.6667 43.3981 73.78C43.2315 73.8933 43.1048 74.0467 43.0181 74.24C42.9381 74.4333 42.8981 74.66 42.8981 74.92V74.95ZM49.7796 78.1C49.2996 78.1 48.8763 78.01 48.5096 77.83C48.1496 77.65 47.8663 77.39 47.6596 77.05C47.4596 76.7033 47.3496 76.2867 47.3296 75.8C47.323 75.7 47.3196 75.57 47.3196 75.41C47.3196 75.2433 47.323 75.1067 47.3296 75C47.3496 74.5133 47.4596 74.1 47.6596 73.76C47.8663 73.4133 48.1496 73.15 48.5096 72.97C48.8763 72.79 49.2996 72.7 49.7796 72.7C50.2063 72.7 50.5696 72.76 50.8696 72.88C51.1696 73 51.4163 73.15 51.6096 73.33C51.803 73.51 51.9463 73.7 52.0396 73.9C52.1396 74.0933 52.193 74.27 52.1996 74.43C52.2063 74.5033 52.183 74.5633 52.1296 74.61C52.083 74.65 52.0263 74.67 51.9596 74.67H51.0796C51.013 74.67 50.9596 74.6533 50.9196 74.62C50.8863 74.5867 50.853 74.5367 50.8196 74.47C50.7196 74.2033 50.5863 74.0167 50.4196 73.91C50.2596 73.7967 50.053 73.74 49.7996 73.74C49.4663 73.74 49.1996 73.8467 48.9996 74.06C48.8063 74.2667 48.703 74.5967 48.6896 75.05C48.6763 75.3033 48.6763 75.5367 48.6896 75.75C48.703 76.21 48.8063 76.5433 48.9996 76.75C49.1996 76.9567 49.4663 77.06 49.7996 77.06C50.0596 77.06 50.2696 77.0067 50.4296 76.9C50.5896 76.7867 50.7196 76.5967 50.8196 76.33C50.853 76.2633 50.8863 76.2133 50.9196 76.18C50.9596 76.1467 51.013 76.13 51.0796 76.13H51.9596C52.0263 76.13 52.083 76.1533 52.1296 76.2C52.183 76.24 52.2063 76.2967 52.1996 76.37C52.193 76.49 52.1596 76.6267 52.0996 76.78C52.0463 76.9267 51.9563 77.08 51.8296 77.24C51.7096 77.3933 51.5563 77.5367 51.3696 77.67C51.183 77.7967 50.9563 77.9 50.6896 77.98C50.4296 78.06 50.1263 78.1 49.7796 78.1ZM53.4825 78C53.4159 78 53.3592 77.9767 53.3125 77.93C53.2659 77.8833 53.2425 77.8267 53.2425 77.76V73.04C53.2425 72.9733 53.2659 72.9167 53.3125 72.87C53.3592 72.8233 53.4159 72.8 53.4825 72.8H54.3025C54.3692 72.8 54.4259 72.8233 54.4725 72.87C54.5192 72.9167 54.5425 72.9733 54.5425 73.04V74.83H55.2625L56.4825 72.96C56.5092 72.9133 56.5425 72.8767 56.5825 72.85C56.6292 72.8167 56.6892 72.8 56.7625 72.8H57.6525C57.7192 72.8 57.7725 72.8167 57.8125 72.85C57.8525 72.8833 57.8725 72.9267 57.8725 72.98C57.8725 73 57.8659 73.0233 57.8525 73.05C57.8459 73.07 57.8359 73.09 57.8225 73.11L56.3825 75.3L58.0325 77.69C58.0659 77.73 58.0825 77.7733 58.0825 77.82C58.0825 77.8733 58.0625 77.9167 58.0225 77.95C57.9825 77.9833 57.9325 78 57.8725 78H56.8625C56.7959 78 56.7392 77.9867 56.6925 77.96C56.6525 77.9333 56.6159 77.8967 56.5825 77.85L55.2625 75.89H54.5425V77.76C54.5425 77.8267 54.5192 77.8833 54.4725 77.93C54.4259 77.9767 54.3692 78 54.3025 78H53.4825ZM60.4654 78.1C60.1187 78.1 59.8054 78.0333 59.5254 77.9C59.2454 77.76 59.0221 77.5767 58.8554 77.35C58.6954 77.1167 58.6154 76.8567 58.6154 76.57C58.6154 76.1033 58.8021 75.7333 59.1754 75.46C59.5554 75.18 60.0554 74.9933 60.6754 74.9L62.0454 74.7V74.49C62.0454 74.21 61.9754 73.9933 61.8354 73.84C61.6954 73.6867 61.4554 73.61 61.1154 73.61C60.8754 73.61 60.6787 73.66 60.5254 73.76C60.3787 73.8533 60.2687 73.98 60.1954 74.14C60.1421 74.2267 60.0654 74.27 59.9654 74.27H59.1754C59.1021 74.27 59.0454 74.25 59.0054 74.21C58.9721 74.17 58.9554 74.1167 58.9554 74.05C58.9621 73.9433 59.0054 73.8133 59.0854 73.66C59.1654 73.5067 59.2921 73.36 59.4654 73.22C59.6387 73.0733 59.8621 72.95 60.1354 72.85C60.4087 72.75 60.7387 72.7 61.1254 72.7C61.5454 72.7 61.8987 72.7533 62.1854 72.86C62.4787 72.96 62.7121 73.0967 62.8854 73.27C63.0587 73.4433 63.1854 73.6467 63.2654 73.88C63.3454 74.1133 63.3854 74.36 63.3854 74.62V77.76C63.3854 77.8267 63.3621 77.8833 63.3154 77.93C63.2687 77.9767 63.2121 78 63.1454 78H62.3354C62.2621 78 62.2021 77.9767 62.1554 77.93C62.1154 77.8833 62.0954 77.8267 62.0954 77.76V77.37C62.0087 77.4967 61.8921 77.6167 61.7454 77.73C61.5987 77.8367 61.4187 77.9267 61.2054 78C60.9987 78.0667 60.7521 78.1 60.4654 78.1ZM60.8054 77.15C61.0387 77.15 61.2487 77.1 61.4354 77C61.6287 76.9 61.7787 76.7467 61.8854 76.54C61.9987 76.3267 62.0554 76.06 62.0554 75.74V75.53L61.0554 75.69C60.6621 75.75 60.3687 75.8467 60.1754 75.98C59.9821 76.1133 59.8854 76.2767 59.8854 76.47C59.8854 76.6167 59.9287 76.7433 60.0154 76.85C60.1087 76.95 60.2254 77.0267 60.3654 77.08C60.5054 77.1267 60.6521 77.15 60.8054 77.15Z" fill="#282828"/>
<g clip-path="url(#clip0_750_9922)">
<path d="M27.7481 54.9833C26.5723 54.93 25.3965 54.7699 24.2364 54.5931C21.22 54.1328 18.1033 53.4191 15.3911 51.8882C12.9015 50.474 10.8854 48.1159 11.4215 44.9074C11.6903 43.5392 12.2091 42.2405 12.9485 41.0851C20.8343 27.954 29.1779 30.8724 32.605 30.8724C36.0322 30.8724 32.9468 15.1964 45.978 15.6767C51.5216 15.8835 57.5794 17.1576 62.3015 20.4228C65.9073 22.9177 67.8858 26.9234 64.8099 30.869C63.0383 33.1537 61.0159 35.1783 59.2475 37.4729C57.4917 39.753 55.5403 41.8544 53.4186 43.75C48.9215 47.8016 43.7537 50.9257 38.18 52.9621C35.2044 54.0328 32.1065 54.9066 28.949 54.9933C28.5602 55.0067 28.1557 55 27.7481 54.9833Z" fill="#ECEEFD"/>
<path d="M52.6939 46.0213C52.6817 45.0486 52.6157 44.0775 52.4964 43.113C52.1138 40.5715 50.7374 38.8738 48.4202 38.11C47.699 37.8732 46.9622 37.6831 46.2034 37.4896C45.1248 37.1561 45.1279 36.8893 45.1185 35.2116C45.0965 34.9175 45.1647 34.6238 45.3129 34.3744C46.4697 33.7084 47.4847 32.7954 48.2943 31.6927C49.1038 30.5899 49.6905 29.3211 50.0176 27.9659C50.3446 26.6106 50.405 25.1981 50.1949 23.8169C49.9847 22.4357 49.5087 21.1156 48.7965 19.9392C48.7361 20.171 48.6247 20.3842 48.4715 20.5611C48.3183 20.738 48.1277 20.8736 47.9154 20.9565C48.6213 22.2336 49.0145 23.6788 49.0589 25.1595C49.1032 26.6403 48.7974 28.1092 48.1694 29.4315L48.0408 29.6216C47.4805 30.4777 46.851 31.2801 46.1595 32.0197C45.6409 32.5311 45.0698 32.9786 44.4569 33.3538C43.2676 33.9723 41.9522 34.2657 40.6295 34.2075C39.3068 34.1493 38.0187 33.7412 36.8815 33.0203C36.5925 32.826 36.314 32.6144 36.0475 32.3866C35.2856 31.7362 34.6867 30.8624 34.0564 30.0519C33.2673 28.6708 32.8508 27.0853 32.8524 25.4692C32.8425 24.326 33.0445 23.192 33.4469 22.132C33.8493 21.0719 34.4442 20.1066 35.1975 19.2913C35.9509 18.476 36.8479 17.8267 37.8374 17.3804C38.8268 16.9342 39.8893 16.6998 40.964 16.6906C42.8018 16.6914 44.583 17.3677 46.0059 18.6051C46.0975 18.3894 46.2365 18.2002 46.4111 18.0534C46.5856 17.9065 46.7908 17.8064 47.0092 17.7613C45.3322 16.2112 43.1856 15.3573 40.964 15.3565C38.4663 15.3785 36.0789 16.4535 34.3255 18.3456C32.572 20.2377 31.5957 22.7923 31.6107 25.4492C31.6099 27.0098 31.9479 28.5496 32.5984 29.9485C32.6539 30.1122 32.7265 30.2688 32.8148 30.4154L32.9402 30.6222C33.7567 32.0916 34.9099 33.3171 36.2921 34.1843C36.4493 34.3074 36.5604 34.4859 36.6056 34.688C36.6683 35.5251 36.6307 36.3556 36.6307 37.2161C35.505 37.523 34.4358 37.7631 33.4042 38.1033C31.084 38.8671 29.7043 40.5648 29.3281 43.1063C29.2082 44.1021 29.1412 45.1043 29.1274 46.1081C29.1274 46.3449 29.1274 46.3149 29.1274 46.5517C29.1274 46.7051 29.0616 47.0219 29.7012 47.0153C30.3409 47.0086 30.3095 46.6817 30.3283 46.5216C30.3283 46.2948 30.3283 46.3249 30.3283 46.1014C30.3283 46.1014 30.3785 44.3704 30.4694 43.5666C30.7297 41.2585 31.9117 39.8277 34.0188 39.2307C34.9595 38.9605 35.9001 38.697 36.869 38.4702C37.1649 38.431 37.4342 38.2686 37.6176 38.0184C37.801 37.7683 37.8836 37.4509 37.8473 37.1361C37.8473 36.449 37.8473 35.7586 37.8473 34.9615C39.6437 35.7595 41.6544 35.8213 43.4912 35.1349C43.6323 35.0915 43.7734 35.0448 43.9113 34.9948C43.9113 35.7853 43.9113 36.4557 43.9113 37.1261C43.8762 37.3953 43.9324 37.669 44.0697 37.8981C44.207 38.1273 44.4165 38.297 44.6607 38.3768C44.747 38.4148 44.8362 38.4449 44.9272 38.4669L45.1844 38.5302C46.1689 38.7937 47.1472 39.0906 48.1349 39.3407C48.7186 39.5164 49.2614 39.8199 49.7284 40.2317C50.1955 40.6435 50.5765 41.1546 50.8471 41.7321L50.8847 41.8189C50.9067 41.8722 50.9286 41.9256 50.9474 41.979C51.3989 43.1563 51.3958 44.4171 51.4178 45.7112V45.7812C51.4178 45.8546 51.4178 45.928 51.4178 46.0013C51.4178 46.1414 51.4178 46.2815 51.4178 46.4183C51.4178 46.555 51.3488 46.8919 52.0104 46.8819C52.672 46.8719 52.6594 46.5483 52.6688 46.4016C52.7033 46.1914 52.6876 46.2548 52.6939 46.0213Z" fill="#282828"/>
<path d="M45.9434 32.2032C48.1758 28.2908 48.0441 23.8649 47.7337 19.2488C46.3594 19.1529 44.9809 19.3473 43.6775 19.8207C42.3741 20.2941 41.1717 21.0372 40.1395 22.0071C38.97 23.0644 38.0764 24.4686 36.9821 25.6359C36.0958 26.6458 35.1073 27.5485 34.0347 28.3275C32.9843 29.0313 33.3449 29.5483 33.8748 30.282C34.5301 31.1892 35.1102 32.1631 35.7561 33.0703L35.869 33.2204C36.1083 33.5469 36.2616 33.9351 36.3134 34.3453C36.3652 34.7556 36.3136 35.1731 36.1637 35.5551C35.9944 36.0288 36.054 36.6291 36.1041 37.2695C36.1597 38.1796 35.9482 39.0855 35.4989 39.8622C35.0495 40.6389 34.3845 41.248 33.5957 41.6054C31.7865 42.4326 30.1467 41.9723 28.6667 40.3713C28.2191 39.8557 27.6799 39.4397 27.0801 39.1473C26.0322 38.6686 25.2054 37.7676 24.781 36.6415C24.3567 35.5155 24.3694 34.2565 24.8163 33.1404C25.2326 32.2841 25.7074 31.4614 26.2367 30.6789C26.7007 29.9118 27.1773 29.1547 27.7417 28.2642C27.6038 28.0474 27.3435 27.6905 27.1366 27.3003C26.4185 25.9261 26.5345 23.9649 27.7825 23.2645C29.2656 22.434 29.3502 21.21 29.5823 19.7825C30.617 13.6688 35.5805 9.56641 41.2746 10.0367C47.1944 10.527 51.4274 15.3732 51.6563 21.8804C51.6845 22.3457 51.6845 22.8125 51.6563 23.2779C51.5497 24.5386 51.7127 25.3858 53.1049 25.9461C53.9358 26.2796 54.704 27.6138 54.9172 28.6577C55.1931 30.0152 55.0363 31.5294 54.8231 32.9336C54.731 33.6155 54.4923 34.2657 54.1255 34.8335C53.7586 35.4013 53.2736 35.8714 52.7082 36.2074C52.1427 36.5433 51.512 36.7359 50.8651 36.7703C50.2183 36.8047 49.5727 36.6799 48.9785 36.4056C48.1978 36.0488 47.5707 35.3117 46.7837 34.9414H46.7617C46.5264 34.8338 46.3156 34.6735 46.1436 34.4716C45.9716 34.2696 45.8424 34.0307 45.7648 33.7711C45.6872 33.5114 45.663 33.237 45.6938 32.9665C45.7246 32.6959 45.8097 32.4356 45.9434 32.2032Z" fill="#282828"/>
<path d="M13.8074 21.0065C13.6578 21.149 13.5591 21.3423 13.5284 21.5535C13.5064 21.8967 13.5064 22.241 13.5284 22.5841C13.1615 22.6708 12.6818 22.4907 12.641 23.0411C12.5971 23.7081 13.1584 23.4913 13.3842 23.5647C13.4186 23.9883 13.4469 24.3552 13.4751 24.7321C13.1082 24.7621 12.6599 24.6387 12.6222 25.1556C12.5815 25.7927 13.1333 25.6226 13.3842 25.6926C13.4092 26.1095 13.4343 26.4798 13.4594 26.85C13.0957 26.8867 12.6536 26.7566 12.6065 27.2769C12.5532 27.944 13.1176 27.7338 13.4751 27.8439C13.4751 28.1241 13.4751 28.3976 13.4531 28.6611C13.3665 29.2483 13.4309 29.8495 13.6396 30.4009C13.8483 30.9523 14.1934 31.4333 14.6384 31.7929C14.871 32.0118 15.0519 32.2859 15.1663 32.593C15.2807 32.9002 15.3254 33.2317 15.2968 33.5606C15.2686 36.1655 15.2529 38.7704 15.231 41.3719C15.231 42.5548 15.2205 43.7367 15.1996 44.9174C15.1794 45.1193 15.2109 45.3234 15.291 45.5078C15.3711 45.6922 15.4966 45.8501 15.6543 45.9646C15.907 46.1338 16.1966 46.2307 16.4948 46.2459C16.7931 46.2611 17.0901 46.1941 17.3568 46.0514C17.8899 45.7945 17.9495 45.2809 17.9526 44.7172C17.9777 41.0084 18.0184 37.3062 18.0373 33.6007C18.019 33.2513 18.0768 32.9022 18.2062 32.5805C18.3357 32.2588 18.5332 31.9733 18.7835 31.7462C18.8995 31.6428 18.9999 31.5194 19.1127 31.4127C19.3945 31.1523 19.6171 30.8273 19.7638 30.4622C19.9104 30.0971 19.9773 29.7014 19.9593 29.3048C19.9436 28.8245 19.9593 28.3475 19.9593 27.8773C20.693 27.8106 20.9 27.7005 20.8529 27.367C20.7934 26.8166 20.3638 26.9434 20.0502 26.9C20.0502 26.4898 20.0346 26.1196 20.022 25.7427C20.3732 25.7026 20.8373 25.8294 20.8655 25.2891C20.8906 24.6687 20.3575 24.8488 20.0565 24.7721V23.6247C20.3701 23.5714 20.8467 23.7348 20.8718 23.1745C20.8968 22.5508 20.3669 22.7242 19.975 22.6275C20.0118 22.2955 20.0233 21.9609 20.0095 21.6269C19.99 21.3956 19.8919 21.1797 19.7336 21.0199C18.8797 20.337 17.8409 19.9666 16.7726 19.9642C15.7043 19.9618 14.664 20.3275 13.8074 21.0065ZM15.209 21.2867C15.1871 21.7269 15.162 22.1605 15.14 22.6208L14.4189 22.5708C14.306 21.7003 14.4251 21.4968 15.209 21.27V21.2867ZM16.2249 20.8798L17.3443 20.9331C17.3224 23.6414 17.291 26.303 17.291 29.0113L16.1779 28.9946C16.1873 26.3197 16.2061 23.6481 16.2249 20.8631V20.8798ZM14.422 23.6481H15.1683C15.1683 24.015 15.1683 24.3852 15.1683 24.7621L14.4095 24.7287C14.4189 24.3418 14.422 23.9816 14.422 23.6314V23.6481ZM14.3907 25.716L15.1839 25.776C15.162 26.1095 15.1306 26.4664 15.1055 26.8633C14.9017 26.8633 14.6415 26.8633 14.3624 26.8833C14.3718 26.4731 14.3812 26.1029 14.3907 25.6993V25.716ZM14.375 27.8172L15.1777 27.8839C15.1777 28.2175 15.1557 28.591 15.1432 28.9812C14.9017 28.9812 14.6415 28.9412 14.3436 28.9145C14.3562 28.5843 14.3624 28.2241 14.375 27.8172ZM18.6236 30.5889C17.4196 31.5895 17.1185 32.9002 17.1374 34.4678C17.1813 37.8732 17.1029 41.2852 17.0746 44.6972C17.0746 45.2342 16.9618 45.3276 16.4758 45.2976C16.1371 45.2742 16.0807 45.0775 16.0838 44.7606C16.1152 42.0056 16.1309 39.2573 16.1528 36.5024C16.1528 35.5018 16.1528 34.5012 16.181 33.5239C16.2 33.0668 16.1257 32.6107 15.9633 32.187C15.801 31.7633 15.5543 31.3819 15.2404 31.0692C14.9268 30.7356 14.6603 30.4021 14.353 30.0285L18.9842 30.0719C18.8901 30.2632 18.7685 30.4377 18.6236 30.5889ZM19.0375 28.9846L18.2567 28.9679C18.2567 28.6344 18.2755 28.2675 18.2881 27.8973L19.0438 27.9373C19.0406 28.2608 19.0375 28.631 19.0375 28.9846ZM19.0814 26.89L18.2661 26.82C18.2661 26.4864 18.2818 26.1529 18.2881 25.736L19.1002 25.806C19.0939 26.1329 19.0876 26.4998 19.0814 26.89ZM19.0218 24.7621C18.8274 24.7621 18.5672 24.7621 18.2818 24.7854C18.3006 24.3852 18.3194 24.015 18.3383 23.6081L19.1127 23.6681L19.0218 24.7621ZM19.0939 22.6475C18.8337 22.6475 18.5766 22.6475 18.3884 22.6475C18.3696 22.1705 18.3508 21.7269 18.3289 21.27C19.1253 21.5635 19.2444 21.7803 19.0939 22.6475Z" fill="#282828"/>
<path d="M19.1002 25.806C19.1002 26.1396 19.1002 26.4998 19.0813 26.89L18.2661 26.82C18.2661 26.4864 18.2818 26.1529 18.2881 25.736L19.1002 25.806Z" fill="#3D4EEA"/>
<path d="M19.0937 22.6475C18.8334 22.6475 18.5763 22.6475 18.3882 22.6475C18.3694 22.1705 18.3506 21.7269 18.3286 21.27C19.125 21.5635 19.2442 21.7803 19.0937 22.6475Z" fill="#3D4EEA"/>
<path d="M15.1838 25.7593C15.1619 26.0929 15.1305 26.4497 15.1054 26.8466C14.9016 26.8466 14.6414 26.8466 14.3623 26.8667C14.3623 26.4731 14.3811 26.1029 14.3905 25.6993L15.1838 25.7593Z" fill="#3D4EEA"/>
<path d="M15.2089 21.27C15.187 21.7103 15.1619 22.1439 15.1399 22.6041L14.4188 22.5541C14.3059 21.7003 14.425 21.4968 15.2089 21.27Z" fill="#3D4EEA"/>
<path d="M18.981 30.0719C18.888 30.263 18.7673 30.4374 18.6236 30.5889C17.4196 31.5895 17.1185 32.9002 17.1374 34.4678C17.1813 37.8732 17.1029 41.2852 17.0747 44.6972C17.0747 45.2342 16.9618 45.3276 16.4758 45.2976C16.1371 45.2742 16.0807 45.0775 16.0838 44.7606C16.1152 42.0056 16.1309 39.2573 16.1528 36.5024C16.1528 35.5018 16.1528 34.5012 16.181 33.5239C16.2 33.0668 16.1257 32.6107 15.9633 32.187C15.801 31.7633 15.5543 31.3819 15.2404 31.0692C14.9268 30.7356 14.6603 30.4021 14.353 30.0285L18.981 30.0719Z" fill="#3D4EEA"/>
</g>
<defs>
<clipPath id="clip0_750_9922">
<rect width="55" height="45" fill="white" transform="translate(11.3335 10)"/>
</clipPath>
</defs>
</svg>
