<svg width="78" height="90" viewBox="0 0 78 90" fill="none" xmlns="http://www.w3.org/2000/svg">
<path d="M18.2446 78C18.1779 78 18.1213 77.9767 18.0746 77.93C18.0279 77.8833 18.0046 77.8267 18.0046 77.76V71.25C18.0046 71.1767 18.0279 71.1167 18.0746 71.07C18.1213 71.0233 18.1779 71 18.2446 71H20.9246C21.4446 71 21.8979 71.0833 22.2846 71.25C22.6713 71.41 22.9713 71.6567 23.1846 71.99C23.3979 72.3167 23.5046 72.7267 23.5046 73.22C23.5046 73.72 23.3979 74.1333 23.1846 74.46C22.9713 74.78 22.6713 75.02 22.2846 75.18C21.8979 75.34 21.4446 75.42 20.9246 75.42H19.4346V77.76C19.4346 77.8267 19.4113 77.8833 19.3646 77.93C19.3246 77.9767 19.2679 78 19.1946 78H18.2446ZM19.4146 74.31H20.8746C21.2613 74.31 21.5579 74.22 21.7646 74.04C21.9713 73.8533 22.0746 73.58 22.0746 73.22C22.0746 72.8867 21.9779 72.62 21.7846 72.42C21.5913 72.2133 21.2879 72.11 20.8746 72.11H19.4146V74.31ZM26.7164 78.1C25.9764 78.1 25.3897 77.8867 24.9564 77.46C24.5231 77.0333 24.2897 76.4267 24.2564 75.64C24.2497 75.5733 24.2464 75.49 24.2464 75.39C24.2464 75.2833 24.2497 75.2 24.2564 75.14C24.2831 74.64 24.3964 74.2067 24.5964 73.84C24.8031 73.4733 25.0864 73.1933 25.4464 73C25.8064 72.8 26.2297 72.7 26.7164 72.7C27.2564 72.7 27.7097 72.8133 28.0764 73.04C28.4431 73.26 28.7197 73.57 28.9064 73.97C29.0931 74.3633 29.1864 74.82 29.1864 75.34V75.55C29.1864 75.6167 29.1631 75.6733 29.1164 75.72C29.0697 75.7667 29.0097 75.79 28.9364 75.79H25.6164C25.6164 75.79 25.6164 75.8 25.6164 75.82C25.6164 75.84 25.6164 75.8567 25.6164 75.87C25.6231 76.1033 25.6664 76.32 25.7464 76.52C25.8331 76.7133 25.9564 76.87 26.1164 76.99C26.2831 77.11 26.4797 77.17 26.7064 77.17C26.8931 77.17 27.0497 77.1433 27.1764 77.09C27.3031 77.03 27.4064 76.9633 27.4864 76.89C27.5664 76.8167 27.6231 76.7567 27.6564 76.71C27.7164 76.63 27.7631 76.5833 27.7964 76.57C27.8364 76.55 27.8931 76.54 27.9664 76.54H28.8264C28.8931 76.54 28.9464 76.56 28.9864 76.6C29.0331 76.64 29.0531 76.69 29.0464 76.75C29.0397 76.8567 28.9831 76.9867 28.8764 77.14C28.7764 77.2933 28.6297 77.4433 28.4364 77.59C28.2431 77.7367 27.9997 77.86 27.7064 77.96C27.4197 78.0533 27.0897 78.1 26.7164 78.1ZM25.6164 74.95H27.8264V74.92C27.8264 74.66 27.7831 74.4333 27.6964 74.24C27.6097 74.0467 27.4831 73.8933 27.3164 73.78C27.1497 73.6667 26.9497 73.61 26.7164 73.61C26.4831 73.61 26.2831 73.6667 26.1164 73.78C25.9497 73.8933 25.8231 74.0467 25.7364 74.24C25.6564 74.4333 25.6164 74.66 25.6164 74.92V74.95ZM32.4979 78.1C32.0179 78.1 31.5946 78.01 31.2279 77.83C30.8679 77.65 30.5846 77.39 30.3779 77.05C30.1779 76.7033 30.0679 76.2867 30.0479 75.8C30.0412 75.7 30.0379 75.57 30.0379 75.41C30.0379 75.2433 30.0412 75.1067 30.0479 75C30.0679 74.5133 30.1779 74.1 30.3779 73.76C30.5846 73.4133 30.8679 73.15 31.2279 72.97C31.5946 72.79 32.0179 72.7 32.4979 72.7C32.9246 72.7 33.2879 72.76 33.5879 72.88C33.8879 73 34.1346 73.15 34.3279 73.33C34.5212 73.51 34.6646 73.7 34.7579 73.9C34.8579 74.0933 34.9112 74.27 34.9179 74.43C34.9246 74.5033 34.9012 74.5633 34.8479 74.61C34.8012 74.65 34.7446 74.67 34.6779 74.67H33.7979C33.7312 74.67 33.6779 74.6533 33.6379 74.62C33.6046 74.5867 33.5712 74.5367 33.5379 74.47C33.4379 74.2033 33.3046 74.0167 33.1379 73.91C32.9779 73.7967 32.7712 73.74 32.5179 73.74C32.1846 73.74 31.9179 73.8467 31.7179 74.06C31.5246 74.2667 31.4212 74.5967 31.4079 75.05C31.3946 75.3033 31.3946 75.5367 31.4079 75.75C31.4212 76.21 31.5246 76.5433 31.7179 76.75C31.9179 76.9567 32.1846 77.06 32.5179 77.06C32.7779 77.06 32.9879 77.0067 33.1479 76.9C33.3079 76.7867 33.4379 76.5967 33.5379 76.33C33.5712 76.2633 33.6046 76.2133 33.6379 76.18C33.6779 76.1467 33.7312 76.13 33.7979 76.13H34.6779C34.7446 76.13 34.8012 76.1533 34.8479 76.2C34.9012 76.24 34.9246 76.2967 34.9179 76.37C34.9112 76.49 34.8779 76.6267 34.8179 76.78C34.7646 76.9267 34.6746 77.08 34.5479 77.24C34.4279 77.3933 34.2746 77.5367 34.0879 77.67C33.9012 77.7967 33.6746 77.9 33.4079 77.98C33.1479 78.06 32.8446 78.1 32.4979 78.1ZM36.2008 78C36.1341 78 36.0774 77.9767 36.0308 77.93C35.9841 77.8833 35.9608 77.8267 35.9608 77.76V73.04C35.9608 72.9733 35.9841 72.9167 36.0308 72.87C36.0774 72.8233 36.1341 72.8 36.2008 72.8H37.0308C37.1041 72.8 37.1608 72.8233 37.2008 72.87C37.2474 72.9167 37.2708 72.9733 37.2708 73.04V74.83H39.5308V73.04C39.5308 72.9733 39.5541 72.9167 39.6008 72.87C39.6474 72.8233 39.7041 72.8 39.7708 72.8H40.6008C40.6674 72.8 40.7241 72.8233 40.7708 72.87C40.8174 72.9167 40.8408 72.9733 40.8408 73.04V77.76C40.8408 77.8267 40.8174 77.8833 40.7708 77.93C40.7241 77.9767 40.6674 78 40.6008 78H39.7708C39.7041 78 39.6474 77.9767 39.6008 77.93C39.5541 77.8833 39.5308 77.8267 39.5308 77.76V75.88H37.2708V77.76C37.2708 77.8267 37.2474 77.8833 37.2008 77.93C37.1608 77.9767 37.1041 78 37.0308 78H36.2008ZM42.4213 78C42.3613 78 42.3079 77.9767 42.2613 77.93C42.2146 77.8833 42.1912 77.83 42.1912 77.77V73.04C42.1912 72.9733 42.2146 72.9167 42.2613 72.87C42.3079 72.8233 42.3646 72.8 42.4313 72.8H43.2613C43.3346 72.8 43.3913 72.8233 43.4313 72.87C43.4779 72.9167 43.5013 72.9733 43.5013 73.04V76.99L43.1513 76.74L45.9013 72.96C45.9346 72.9133 45.9713 72.8767 46.0113 72.85C46.0513 72.8167 46.1046 72.8 46.1713 72.8H46.9313C46.9913 72.8 47.0446 72.8233 47.0913 72.87C47.1379 72.91 47.1613 72.96 47.1613 73.02V77.76C47.1613 77.8267 47.1379 77.8833 47.0913 77.93C47.0446 77.9767 46.9879 78 46.9213 78H46.0913C46.0179 78 45.9579 77.9767 45.9113 77.93C45.8713 77.8833 45.8513 77.8267 45.8513 77.76V73.99L46.2213 74.04L43.4513 77.84C43.4246 77.88 43.3879 77.9167 43.3413 77.95C43.3013 77.9833 43.2479 78 43.1813 78H42.4213ZM52.8017 79.22C52.7351 79.22 52.6784 79.1967 52.6317 79.15C52.5851 79.1033 52.5617 79.0467 52.5617 78.98V78H48.6617C48.5951 78 48.5384 77.9767 48.4917 77.93C48.4451 77.8833 48.4217 77.8267 48.4217 77.76V73.04C48.4217 72.9733 48.4451 72.9167 48.4917 72.87C48.5384 72.8233 48.5951 72.8 48.6617 72.8H49.4917C49.5651 72.8 49.6217 72.8233 49.6617 72.87C49.7084 72.9167 49.7317 72.9733 49.7317 73.04V76.94H51.8717V73.04C51.8717 72.9733 51.8951 72.9167 51.9417 72.87C51.9884 72.8233 52.0451 72.8 52.1117 72.8H52.9417C53.0151 72.8 53.0717 72.8233 53.1117 72.87C53.1584 72.9167 53.1817 72.9733 53.1817 73.04V76.94H53.6317C53.6984 76.94 53.7551 76.9633 53.8017 77.01C53.8484 77.0567 53.8717 77.1133 53.8717 77.18V78.98C53.8717 79.0467 53.8484 79.1033 53.8017 79.15C53.7551 79.1967 53.6984 79.22 53.6317 79.22H52.8017ZM55.0289 78C54.9622 78 54.9056 77.9767 54.8589 77.93C54.8122 77.8833 54.7889 77.8267 54.7889 77.76V73.04C54.7889 72.9733 54.8122 72.9167 54.8589 72.87C54.9056 72.8233 54.9622 72.8 55.0289 72.8H55.8689C55.9356 72.8 55.9922 72.8233 56.0389 72.87C56.0856 72.9167 56.1089 72.9733 56.1089 73.04V74.45H57.0789C57.7589 74.45 58.2689 74.61 58.6089 74.93C58.9489 75.25 59.1189 75.69 59.1189 76.25C59.1189 76.83 58.9356 77.2667 58.5689 77.56C58.2089 77.8533 57.6856 78 56.9989 78H55.0289ZM56.0889 77.05H56.9689C57.2956 77.05 57.5356 76.99 57.6889 76.87C57.8489 76.75 57.9289 76.5433 57.9289 76.25C57.9289 75.9633 57.8522 75.75 57.6989 75.61C57.5522 75.47 57.3089 75.4 56.9689 75.4H56.0889V77.05ZM60.0189 78C59.9522 78 59.8956 77.9767 59.8489 77.93C59.8022 77.8833 59.7789 77.8267 59.7789 77.76V73.04C59.7789 72.9733 59.8022 72.9167 59.8489 72.87C59.8956 72.8233 59.9522 72.8 60.0189 72.8H60.8489C60.9222 72.8 60.9789 72.8233 61.0189 72.87C61.0656 72.9167 61.0889 72.9733 61.0889 73.04V77.76C61.0889 77.8267 61.0656 77.8833 61.0189 77.93C60.9789 77.9767 60.9222 78 60.8489 78H60.0189Z" fill="#282828"/>
<g clip-path="url(#clip0_750_9904)">
<path d="M27.42 54.9796C26.7104 54.9456 25.9977 54.8639 25.2914 54.7754C24.6796 54.6972 24.0678 54.6087 23.4623 54.5066C22.7717 54.3875 22.0874 54.2548 21.4031 54.1017C20.7188 53.9486 19.9557 53.7614 19.243 53.53C18.5303 53.2987 17.8018 53.0605 17.0986 52.7713C16.4134 52.4925 15.7455 52.1663 15.0993 51.7947C14.4887 51.4456 13.9092 51.0367 13.368 50.5732C12.8623 50.141 12.4117 49.6388 12.0278 49.0794C11.6601 48.5371 11.3816 47.9305 11.2047 47.2862C11.0227 46.5979 10.9607 45.8791 11.0218 45.1663C11.0962 44.3156 11.2919 43.4823 11.6021 42.696C11.884 41.96 12.2248 41.2518 12.6206 40.5796C20.5044 26.969 28.8485 29.9939 32.2763 29.9939C35.7042 29.9939 32.6201 13.7429 45.6471 14.2465C51.191 14.4609 57.252 15.7811 61.9696 19.1633C65.574 21.7493 67.5513 25.9006 64.4924 29.9905C62.7201 32.3724 60.7082 34.4582 58.9328 36.8333C57.1788 39.1918 55.2281 41.3718 53.1051 43.3459C52.0014 44.3667 50.8588 45.3331 49.6773 46.245C48.4958 47.1569 47.2565 48.0234 45.9593 48.8446C44.6759 49.6544 43.3608 50.403 42.0112 51.0767C40.6673 51.7501 39.2927 52.3498 37.8927 52.8733C36.5046 53.3935 35.0907 53.8297 33.6576 54.18C32.2501 54.5098 30.8267 54.7551 29.394 54.9149C28.7386 54.9926 28.0785 55.0142 27.42 54.9796Z" fill="#ECEEFD"/>
<path d="M32.0682 35.5981L30.8068 37.034C30.4915 37.3743 30.1761 37.7146 29.8608 38.0548C29.7729 38.1711 29.6632 38.2662 29.539 38.3337C29.4148 38.4013 29.2788 38.4399 29.1399 38.4469C29.001 38.454 28.8622 38.4294 28.7327 38.3747C28.6031 38.3201 28.4857 38.2366 28.3881 38.1297C27.9844 37.6737 28.0191 37.0374 28.4732 36.5338C29.1418 35.7955 29.8071 35.0537 30.4851 34.3289C30.646 34.1554 30.6397 34.0499 30.5198 33.8424C30.2282 33.3659 29.9699 32.8666 29.7472 32.3486C29.6426 32.093 29.6355 31.8032 29.7276 31.542C29.8197 31.2808 30.0035 31.0694 30.2392 30.9535C30.3565 30.8935 30.4841 30.8601 30.6138 30.8556C30.7436 30.8511 30.8729 30.8754 30.9936 30.9271C31.1143 30.9788 31.2238 31.0568 31.3154 31.1562C31.407 31.2555 31.4786 31.3742 31.5258 31.5047C32.0903 32.9815 33.153 33.8866 34.4049 34.5399C36.7574 35.7887 39.2487 36.0711 41.8156 35.7274C43.5401 35.5505 45.1963 34.9119 46.6342 33.8696C47.4301 33.3034 48.0533 32.496 48.4253 31.549C48.4691 31.4183 48.5371 31.2986 48.6252 31.1972C48.7133 31.0959 48.8197 31.015 48.9378 30.9596C49.0559 30.9042 49.1832 30.8753 49.312 30.8749C49.4408 30.8744 49.5683 30.9023 49.6867 30.9569C49.8095 31.0125 49.9206 31.0944 50.0133 31.1976C50.106 31.3007 50.1784 31.4231 50.2262 31.5572C50.2739 31.6914 50.296 31.8346 50.2911 31.9782C50.2862 32.1218 50.2544 32.2628 50.1976 32.3928C49.9681 32.9077 49.709 33.4066 49.4218 33.8866C49.3209 34.0635 49.2989 34.1588 49.4471 34.3187C50.1314 35.0537 50.8031 35.8057 51.4811 36.5475C51.5847 36.646 51.6691 36.7657 51.7296 36.8996C51.79 37.0336 51.8252 37.1792 51.8331 37.3279C51.841 37.4766 51.8215 37.6256 51.7757 37.7662C51.7299 37.9067 51.6587 38.036 51.5662 38.1467C51.4706 38.2518 51.3557 38.3343 51.229 38.389C51.1022 38.4436 50.9662 38.4692 50.8298 38.4641C50.6934 38.459 50.5594 38.4233 50.4365 38.3592C50.3135 38.2952 50.2042 38.2043 50.1156 38.0923C49.4219 37.3369 48.7344 36.5747 48.0438 35.8159L47.8672 35.6321C47.1608 36.0303 46.4923 36.4182 45.8143 36.789C45.6408 36.8843 45.7007 37.0034 45.7354 37.1293C46.0098 38.1501 46.2841 39.1913 46.549 40.2257C46.5975 40.3633 46.6196 40.5101 46.6139 40.6571C46.6082 40.8042 46.5749 40.9485 46.5159 41.0812C46.4569 41.2139 46.3735 41.3323 46.2708 41.4292C46.168 41.526 46.0481 41.5993 45.9183 41.6446C45.3602 41.8318 44.843 41.4949 44.6569 40.8076C44.3889 39.8106 44.1271 38.8102 43.8654 37.8064C43.8244 37.6533 43.7992 37.524 43.5974 37.5614C42.727 37.735 41.8535 37.9017 40.939 38.0616C40.939 38.1297 40.939 38.2454 40.939 38.3611C40.939 39.3819 40.939 40.4027 40.939 41.4234C40.939 42.1448 40.5385 42.6246 39.9551 42.6212C39.8178 42.6163 39.683 42.5811 39.5588 42.5178C39.4346 42.4545 39.3238 42.3645 39.2331 42.2532C39.1424 42.142 39.0738 42.0119 39.0314 41.8709C38.9891 41.73 38.974 41.5812 38.987 41.4337C38.987 40.4129 38.987 39.3921 38.987 38.3713V38.0616C38.0787 37.8915 37.2052 37.7214 36.3349 37.5682C36.1393 37.5274 36.1267 37.6771 36.092 37.8098C35.8177 38.8306 35.5496 39.8514 35.2721 40.8722C35.2279 41.1063 35.109 41.3162 34.9362 41.4654C34.7633 41.6146 34.5474 41.6937 34.3261 41.6889C34.1656 41.6866 34.008 41.6426 33.8666 41.5605C33.7253 41.4784 33.6044 41.3606 33.5143 41.2173C33.4242 41.074 33.3675 40.9093 33.3491 40.7372C33.3307 40.5652 33.351 40.3909 33.4084 40.2291C33.6796 39.2083 33.9445 38.1875 34.2283 37.1667C34.2977 36.9251 34.2283 36.8265 34.0423 36.7278C33.4084 36.3841 32.7777 36.0064 32.0682 35.5981Z" fill="#282828"/>
<path d="M21.1322 34.0703H16.793C16.8939 33.6246 16.9885 33.206 17.0894 32.7671C17.1182 32.6375 17.1862 32.5219 17.2827 32.4387C17.3793 32.3555 17.4988 32.3094 17.6223 32.3077H19.5144C20.9367 32.2975 21.0344 32.403 21.1322 34.0703Z" fill="#8B95F2"/>
<path d="M21.4884 42.3251C21.4884 42.9172 21.3812 43.0329 20.8167 43.0329C19.6058 43.0329 18.3917 43.0329 17.1776 43.0329C16.7897 43.0329 16.5469 42.9104 16.5469 42.4681C16.5469 40.4696 16.5469 38.4722 16.5469 36.476C16.5541 36.4184 16.5657 36.3615 16.5816 36.3059H21.4505C21.4685 36.4253 21.4801 36.5457 21.4852 36.6665C21.4894 38.5561 21.4905 40.4423 21.4884 42.3251Z" fill="#3D4EEA"/>
<path d="M20.5428 26.9962H17.3799V30.5724H20.5428V26.9962Z" fill="#3D4EEA"/>
<path d="M51.3334 24.9716C50.2171 24.8423 44.298 22.8212 38.032 21.1913C36.4987 20.8143 34.9275 20.6463 33.3554 20.6911C31.4338 20.7411 29.5212 20.9918 27.6444 21.4397C26.9675 21.5962 26.2947 21.7754 25.6262 21.9773C25.4938 22.0182 25.3518 22.0692 25.2131 22.1202C25.1471 22.1391 25.0773 22.136 25.013 22.1112C24.9487 22.0865 24.8929 22.0412 24.8529 21.9815C24.813 21.9218 24.7907 21.8504 24.7892 21.7767C24.7876 21.7031 24.8067 21.6306 24.8441 21.569C25.2165 21.1018 25.6236 20.6683 26.0614 20.2726C26.6983 19.6676 27.3646 19.0997 28.0575 18.5713C29.2585 17.5809 30.5231 16.6838 31.8417 15.8866L32.2706 15.6484C33.2901 15.0814 34.406 14.7445 35.5502 14.6582C36.6697 14.6072 37.868 14.842 38.9812 14.9985C41.504 15.3388 44.0047 15.8832 46.4991 16.4412C48.0927 16.7951 49.6694 17.2 51.2294 17.656C52.1453 17.8681 53.0309 18.2114 53.8625 18.6768C55.6506 19.8166 55.228 21.4329 55.0924 22.1645C55.0514 22.372 54.9852 22.5694 54.9284 22.7735C54.4081 24.5906 52.4561 25.1112 51.3334 24.9716Z" fill="#282828"/>
<path d="M23.0531 35.5198C23.0422 35.0617 22.9894 34.6058 22.8954 34.1588C22.64 32.7977 22.1638 31.5081 22.23 30.0756C22.2868 28.9119 22.2521 27.7414 22.23 26.5743C22.2442 26.385 22.2207 26.1947 22.1611 26.0161C22.1015 25.8374 22.0071 25.6746 21.8843 25.5386C21.7616 25.4026 21.6132 25.2965 21.4493 25.2274C21.2854 25.1584 21.1096 25.128 20.9339 25.1384C20.5681 25.1384 20.2055 25.1384 19.8334 25.1384V21.5962C20.1046 21.5962 20.3348 21.5962 20.5618 21.5962C20.6749 21.5972 20.7871 21.5736 20.8916 21.5269C20.9961 21.4802 21.0909 21.4113 21.1703 21.3244C21.2497 21.2374 21.3121 21.1342 21.3539 21.0207C21.3956 20.9073 21.4158 20.7859 21.4133 20.6639C21.4108 20.5462 21.3867 20.4303 21.3422 20.3228C21.2977 20.2153 21.2338 20.1185 21.1543 20.038C21.0747 19.9575 20.981 19.895 20.8787 19.8541C20.7765 19.8131 20.6676 19.7946 20.5587 19.7996C20.319 19.7996 20.0762 19.7996 19.8365 19.7996V18.9013C20.3348 18.9013 20.7826 18.9013 21.2524 18.9013C21.8642 18.9013 22.2237 18.5611 22.2237 18.02C22.2237 17.479 21.8831 17.1456 21.2682 17.1456C20.7983 17.1456 20.3222 17.1456 19.8428 17.1456V16.2302C20.3417 16.2611 20.8418 16.2611 21.3407 16.2302C21.6223 16.1989 21.883 16.0558 22.0723 15.8287C22.1423 15.7053 22.1844 15.5659 22.1953 15.4217C22.2063 15.2775 22.1858 15.1326 22.1354 14.9985C21.9567 14.7249 21.6865 14.537 21.3817 14.4745C20.8664 14.4162 20.3478 14.3992 19.8302 14.4234V13.5728C20.4609 13.4605 21.407 13.7735 21.3912 12.6405C21.3754 11.5074 20.4767 11.8102 19.8144 11.7183C19.7419 11.0208 20.0068 10.017 19.0071 10C17.9539 10 18.2535 11.0208 18.1526 11.7592C17.8908 11.7592 17.6638 11.7592 17.4367 11.7592C17.3237 11.7516 17.2105 11.7692 17.104 11.8106C16.9975 11.8521 16.9 11.9167 16.8175 12.0004C16.735 12.084 16.6693 12.1851 16.6243 12.2972C16.5794 12.4093 16.5562 12.5302 16.5562 12.6524C16.5562 12.7745 16.5794 12.8954 16.6243 13.0075C16.6693 13.1197 16.735 13.2207 16.8175 13.3044C16.9 13.388 16.9975 13.4526 17.104 13.4941C17.2105 13.5356 17.3237 13.5531 17.4367 13.5456C17.6732 13.5456 17.9129 13.5456 18.162 13.5456V14.3554C18.1116 14.3826 18.0832 14.4098 18.0579 14.4098L16.7619 14.4234C16.1312 14.4234 15.7401 14.7637 15.7433 15.3149C15.7464 15.8662 16.1249 16.2166 16.7556 16.22H18.1557V17.1115C17.648 17.1115 17.1592 17.1115 16.6704 17.1115C16.0996 17.1115 15.7464 17.4518 15.7433 17.9928C15.7401 18.5338 16.1059 18.8741 16.6673 18.8809C17.1561 18.8809 17.6448 18.8809 18.1526 18.8809V19.7656C17.5061 19.8609 16.5758 19.5682 16.5758 20.6741C16.5758 21.78 17.5029 21.5384 18.1526 21.6268V25.1588H17.1434C16.1974 25.1588 15.7338 25.6964 15.7338 26.7342C15.7338 27.9183 15.7654 29.1161 15.7338 30.2866C15.697 31.0089 15.6127 31.7276 15.4815 32.4371C15.3302 33.3149 14.9896 34.1792 14.9675 35.0537C14.9486 35.6934 14.936 36.3331 14.9297 36.9694C14.9297 38.0684 14.9297 39.1709 14.9297 40.2699C14.9297 40.8178 14.9455 41.369 14.9549 41.9202C14.9646 42.3872 15.0271 42.8511 15.141 43.3017C15.1959 43.6354 15.3295 43.9483 15.5289 44.2102C15.565 44.2511 15.6052 44.2876 15.6487 44.3191C15.847 44.4884 16.0829 44.5986 16.333 44.6389C17.6228 44.7512 18.4111 44.741 19.1932 44.7989C19.7419 44.8431 20.3001 44.8193 20.8519 44.7989C22.2489 44.7785 23.0594 43.8904 23.0594 42.366C23.0657 40.0964 23.0688 37.8098 23.0531 35.5198ZM17.3799 27.0132H20.5334V30.5724H17.3799V27.0132ZM17.0646 32.9508C17.104 32.7738 17.197 32.616 17.329 32.5026C17.461 32.3892 17.6243 32.3266 17.7931 32.3248H19.5149C20.9245 32.3248 21.0222 32.42 21.12 34.0873H16.7934C16.8817 33.6824 16.9668 33.3115 17.052 32.9338L17.0646 32.9508ZM20.8173 43.0363C19.6063 43.0363 18.3922 43.0363 17.1781 43.0363C16.7902 43.0363 16.5474 42.9138 16.5474 42.4715C16.5474 40.473 16.5474 38.4756 16.5474 36.4794C16.5547 36.4218 16.5663 36.3649 16.5821 36.3093H21.4511C21.4691 36.4287 21.4806 36.5491 21.4858 36.6699C21.4858 38.555 21.4858 40.4401 21.4858 42.3251C21.4889 42.9206 21.3817 43.0363 20.8173 43.0363Z" fill="#282828"/>
</g>
<defs>
<clipPath id="clip0_750_9904">
<rect width="55" height="45" fill="white" transform="translate(11 10)"/>
</clipPath>
</defs>
</svg>
