<svg width="10" height="11" viewBox="0 0 10 11" fill="none" xmlns="http://www.w3.org/2000/svg">
<path d="M1.946 10.5C1.84333 10.5 1.75933 10.4673 1.694 10.402C1.638 10.3367 1.61 10.2573 1.61 10.164V8.624H0.546C0.452667 8.624 0.373333 8.59133 0.308 8.526C0.242667 8.46067 0.21 8.38133 0.21 8.288V7.854C0.21 7.76067 0.242667 7.68133 0.308 7.616C0.373333 7.55067 0.452667 7.518 0.546 7.518H1.61V6.776H0.546C0.452667 6.776 0.373333 6.74333 0.308 6.678C0.242667 6.61267 0.21 6.52867 0.21 6.426V5.67C0.21 5.56733 0.242667 5.488 0.308 5.432C0.373333 5.36667 0.452667 5.334 0.546 5.334H1.61V1.05C1.61 0.947333 1.638 0.863333 1.694 0.798C1.75933 0.732666 1.84333 0.699999 1.946 0.699999H5.684C6.42133 0.699999 7.06067 0.816666 7.602 1.05C8.14333 1.274 8.56333 1.61933 8.862 2.086C9.16067 2.54333 9.31 3.11733 9.31 3.808C9.31 4.48 9.16067 5.03533 8.862 5.474C8.56333 5.90333 8.14333 6.23 7.602 6.454C7.06067 6.66867 6.42133 6.776 5.684 6.776H3.612V7.518H5.894C5.99667 7.518 6.076 7.55067 6.132 7.616C6.19733 7.68133 6.23 7.76067 6.23 7.854V8.288C6.23 8.38133 6.19733 8.46067 6.132 8.526C6.076 8.59133 5.99667 8.624 5.894 8.624H3.612V10.164C3.612 10.2573 3.57933 10.3367 3.514 10.402C3.44867 10.4673 3.36467 10.5 3.262 10.5H1.946ZM3.584 5.334H5.614C6.15533 5.334 6.57067 5.208 6.86 4.956C7.15867 4.69467 7.308 4.312 7.308 3.808C7.308 3.34133 7.17267 2.968 6.902 2.688C6.63133 2.39867 6.202 2.254 5.614 2.254H3.584V5.334Z" fill="white"/>
</svg>
