<svg width="79" height="90" viewBox="0 0 79 90" fill="none" xmlns="http://www.w3.org/2000/svg">
<path d="M13.6081 78C13.5348 78 13.4748 77.9767 13.4281 77.93C13.3881 77.8833 13.3681 77.8267 13.3681 77.76V75.4C13.2614 75.5 13.1181 75.5833 12.9381 75.65C12.7648 75.7167 12.5714 75.7667 12.3581 75.8C12.1514 75.8333 11.9481 75.85 11.7481 75.85C10.9281 75.85 10.3181 75.6533 9.91811 75.26C9.51811 74.86 9.31811 74.27 9.31811 73.49V71.24C9.31811 71.1733 9.34144 71.1167 9.38811 71.07C9.43477 71.0233 9.49144 71 9.55811 71H10.4581C10.5314 71 10.5914 71.0233 10.6381 71.07C10.6848 71.1167 10.7081 71.1733 10.7081 71.24V73.42C10.7081 73.8133 10.8081 74.1033 11.0081 74.29C11.2081 74.4767 11.5448 74.57 12.0181 74.57C12.1514 74.57 12.2948 74.56 12.4481 74.54C12.6014 74.5133 12.7481 74.47 12.8881 74.41C13.0281 74.3433 13.1414 74.2567 13.2281 74.15C13.3214 74.0433 13.3681 73.91 13.3681 73.75V71.24C13.3681 71.1733 13.3881 71.1167 13.4281 71.07C13.4748 71.0233 13.5348 71 13.6081 71H14.5081C14.5814 71 14.6414 71.0233 14.6881 71.07C14.7348 71.1167 14.7581 71.1733 14.7581 71.24V77.76C14.7581 77.8267 14.7348 77.8833 14.6881 77.93C14.6414 77.9767 14.5814 78 14.5081 78H13.6081ZM16.4559 78C16.3959 78 16.3426 77.9767 16.2959 77.93C16.2493 77.8833 16.2259 77.83 16.2259 77.77V73.04C16.2259 72.9733 16.2493 72.9167 16.2959 72.87C16.3426 72.8233 16.3993 72.8 16.4659 72.8H17.2959C17.3693 72.8 17.4259 72.8233 17.4659 72.87C17.5126 72.9167 17.5359 72.9733 17.5359 73.04V76.99L17.1859 76.74L19.9359 72.96C19.9693 72.9133 20.0059 72.8767 20.0459 72.85C20.0859 72.8167 20.1393 72.8 20.2059 72.8H20.9659C21.0259 72.8 21.0793 72.8233 21.1259 72.87C21.1726 72.91 21.1959 72.96 21.1959 73.02V77.76C21.1959 77.8267 21.1726 77.8833 21.1259 77.93C21.0793 77.9767 21.0226 78 20.9559 78H20.1259C20.0526 78 19.9926 77.9767 19.9459 77.93C19.9059 77.8833 19.8859 77.8267 19.8859 77.76V73.99L20.2559 74.04L17.4859 77.84C17.4593 77.88 17.4226 77.9167 17.3759 77.95C17.3359 77.9833 17.2826 78 17.2159 78H16.4559ZM24.7064 78.1C24.2264 78.1 23.8031 78.01 23.4364 77.83C23.0764 77.65 22.7931 77.39 22.5864 77.05C22.3864 76.7033 22.2764 76.2867 22.2564 75.8C22.2497 75.7 22.2464 75.57 22.2464 75.41C22.2464 75.2433 22.2497 75.1067 22.2564 75C22.2764 74.5133 22.3864 74.1 22.5864 73.76C22.7931 73.4133 23.0764 73.15 23.4364 72.97C23.8031 72.79 24.2264 72.7 24.7064 72.7C25.1331 72.7 25.4964 72.76 25.7964 72.88C26.0964 73 26.3431 73.15 26.5364 73.33C26.7297 73.51 26.8731 73.7 26.9664 73.9C27.0664 74.0933 27.1197 74.27 27.1264 74.43C27.1331 74.5033 27.1097 74.5633 27.0564 74.61C27.0097 74.65 26.9531 74.67 26.8864 74.67H26.0064C25.9397 74.67 25.8864 74.6533 25.8464 74.62C25.8131 74.5867 25.7797 74.5367 25.7464 74.47C25.6464 74.2033 25.5131 74.0167 25.3464 73.91C25.1864 73.7967 24.9797 73.74 24.7264 73.74C24.3931 73.74 24.1264 73.8467 23.9264 74.06C23.7331 74.2667 23.6297 74.5967 23.6164 75.05C23.6031 75.3033 23.6031 75.5367 23.6164 75.75C23.6297 76.21 23.7331 76.5433 23.9264 76.75C24.1264 76.9567 24.3931 77.06 24.7264 77.06C24.9864 77.06 25.1964 77.0067 25.3564 76.9C25.5164 76.7867 25.6464 76.5967 25.7464 76.33C25.7797 76.2633 25.8131 76.2133 25.8464 76.18C25.8864 76.1467 25.9397 76.13 26.0064 76.13H26.8864C26.9531 76.13 27.0097 76.1533 27.0564 76.2C27.1097 76.24 27.1331 76.2967 27.1264 76.37C27.1197 76.49 27.0864 76.6267 27.0264 76.78C26.9731 76.9267 26.8831 77.08 26.7564 77.24C26.6364 77.3933 26.4831 77.5367 26.2964 77.67C26.1097 77.7967 25.8831 77.9 25.6164 77.98C25.3564 78.06 25.0531 78.1 24.7064 78.1ZM29.7593 78C29.6859 78 29.6259 77.9767 29.5793 77.93C29.5393 77.8833 29.5193 77.8267 29.5193 77.76V73.86H27.8893C27.8159 73.86 27.7559 73.8367 27.7093 73.79C27.6693 73.7433 27.6493 73.6867 27.6493 73.62V73.04C27.6493 72.9733 27.6693 72.9167 27.7093 72.87C27.7559 72.8233 27.8159 72.8 27.8893 72.8H32.4293C32.5026 72.8 32.5626 72.8233 32.6093 72.87C32.6559 72.9167 32.6793 72.9733 32.6793 73.04V73.62C32.6793 73.6867 32.6559 73.7433 32.6093 73.79C32.5626 73.8367 32.5026 73.86 32.4293 73.86H30.8093V77.76C30.8093 77.8267 30.7859 77.8833 30.7393 77.93C30.6926 77.9767 30.6359 78 30.5693 78H29.7593ZM33.712 78C33.6453 78 33.5887 77.9767 33.542 77.93C33.4953 77.8833 33.472 77.8267 33.472 77.76V73.04C33.472 72.9733 33.4953 72.9167 33.542 72.87C33.5887 72.8233 33.6453 72.8 33.712 72.8H34.532C34.5987 72.8 34.6553 72.8233 34.702 72.87C34.7487 72.9167 34.772 72.9733 34.772 73.04V74.83H35.492L36.712 72.96C36.7387 72.9133 36.772 72.8767 36.812 72.85C36.8587 72.8167 36.9187 72.8 36.992 72.8H37.882C37.9487 72.8 38.002 72.8167 38.042 72.85C38.082 72.8833 38.102 72.9267 38.102 72.98C38.102 73 38.0953 73.0233 38.082 73.05C38.0753 73.07 38.0653 73.09 38.052 73.11L36.612 75.3L38.262 77.69C38.2953 77.73 38.312 77.7733 38.312 77.82C38.312 77.8733 38.292 77.9167 38.252 77.95C38.212 77.9833 38.162 78 38.102 78H37.092C37.0253 78 36.9687 77.9867 36.922 77.96C36.882 77.9333 36.8453 77.8967 36.812 77.85L35.492 75.89H34.772V77.76C34.772 77.8267 34.7487 77.8833 34.702 77.93C34.6553 77.9767 34.5987 78 34.532 78H33.712ZM40.6949 78.1C40.3482 78.1 40.0349 78.0333 39.7549 77.9C39.4749 77.76 39.2516 77.5767 39.0849 77.35C38.9249 77.1167 38.8449 76.8567 38.8449 76.57C38.8449 76.1033 39.0316 75.7333 39.4049 75.46C39.7849 75.18 40.2849 74.9933 40.9049 74.9L42.2749 74.7V74.49C42.2749 74.21 42.2049 73.9933 42.0649 73.84C41.9249 73.6867 41.6849 73.61 41.3449 73.61C41.1049 73.61 40.9082 73.66 40.7549 73.76C40.6082 73.8533 40.4982 73.98 40.4249 74.14C40.3716 74.2267 40.2949 74.27 40.1949 74.27H39.4049C39.3316 74.27 39.2749 74.25 39.2349 74.21C39.2016 74.17 39.1849 74.1167 39.1849 74.05C39.1916 73.9433 39.2349 73.8133 39.3149 73.66C39.3949 73.5067 39.5216 73.36 39.6949 73.22C39.8682 73.0733 40.0916 72.95 40.3649 72.85C40.6382 72.75 40.9682 72.7 41.3549 72.7C41.7749 72.7 42.1282 72.7533 42.4149 72.86C42.7082 72.96 42.9416 73.0967 43.1149 73.27C43.2882 73.4433 43.4149 73.6467 43.4949 73.88C43.5749 74.1133 43.6149 74.36 43.6149 74.62V77.76C43.6149 77.8267 43.5916 77.8833 43.5449 77.93C43.4982 77.9767 43.4416 78 43.3749 78H42.5649C42.4916 78 42.4316 77.9767 42.3849 77.93C42.3449 77.8833 42.3249 77.8267 42.3249 77.76V77.37C42.2382 77.4967 42.1216 77.6167 41.9749 77.73C41.8282 77.8367 41.6482 77.9267 41.4349 78C41.2282 78.0667 40.9816 78.1 40.6949 78.1ZM41.0349 77.15C41.2682 77.15 41.4782 77.1 41.6649 77C41.8582 76.9 42.0082 76.7467 42.1149 76.54C42.2282 76.3267 42.2849 76.06 42.2849 75.74V75.53L41.2849 75.69C40.8916 75.75 40.5982 75.8467 40.4049 75.98C40.2116 76.1133 40.1149 76.2767 40.1149 76.47C40.1149 76.6167 40.1582 76.7433 40.2449 76.85C40.3382 76.95 40.4549 77.0267 40.5949 77.08C40.7349 77.1267 40.8816 77.15 41.0349 77.15ZM47.0229 78C46.9496 78 46.8896 77.9767 46.8429 77.93C46.7963 77.8833 46.7729 77.8233 46.7729 77.75V77.13C46.7729 76.9833 46.8496 76.9033 47.0029 76.89C47.2029 76.8767 47.3629 76.7833 47.4829 76.61C47.6029 76.4367 47.6896 76.17 47.7429 75.81C47.7963 75.4433 47.8229 74.97 47.8229 74.39V73.04C47.8229 72.9733 47.8463 72.9167 47.8929 72.87C47.9396 72.8233 47.9996 72.8 48.0729 72.8H51.6229C51.6896 72.8 51.7463 72.8233 51.7929 72.87C51.8396 72.9167 51.8629 72.9733 51.8629 73.04V77.76C51.8629 77.8267 51.8396 77.8833 51.7929 77.93C51.7463 77.9767 51.6896 78 51.6229 78H50.7929C50.7196 78 50.6596 77.9767 50.6129 77.93C50.5729 77.8833 50.5529 77.8267 50.5529 77.76V73.86H49.0829V74.53C49.0829 75.17 49.0463 75.7133 48.9729 76.16C48.9063 76.6 48.7896 76.9567 48.6229 77.23C48.4629 77.4967 48.2496 77.6933 47.9829 77.82C47.7229 77.94 47.4029 78 47.0229 78ZM53.4383 78C53.3783 78 53.325 77.9767 53.2783 77.93C53.2317 77.8833 53.2083 77.83 53.2083 77.77V73.04C53.2083 72.9733 53.2317 72.9167 53.2783 72.87C53.325 72.8233 53.3817 72.8 53.4483 72.8H54.2783C54.3517 72.8 54.4083 72.8233 54.4483 72.87C54.495 72.9167 54.5183 72.9733 54.5183 73.04V76.99L54.1683 76.74L56.9183 72.96C56.9517 72.9133 56.9883 72.8767 57.0283 72.85C57.0683 72.8167 57.1217 72.8 57.1883 72.8H57.9483C58.0083 72.8 58.0617 72.8233 58.1083 72.87C58.155 72.91 58.1783 72.96 58.1783 73.02V77.76C58.1783 77.8267 58.155 77.8833 58.1083 77.93C58.0617 77.9767 58.005 78 57.9383 78H57.1083C57.035 78 56.975 77.9767 56.9283 77.93C56.8883 77.8833 56.8683 77.8267 56.8683 77.76V73.99L57.2383 74.04L54.4683 77.84C54.4417 77.88 54.405 77.9167 54.3583 77.95C54.3183 77.9833 54.265 78 54.1983 78H53.4383ZM63.8188 79.22C63.7521 79.22 63.6955 79.1967 63.6488 79.15C63.6021 79.1033 63.5788 79.0467 63.5788 78.98V78H59.6788C59.6121 78 59.5555 77.9767 59.5088 77.93C59.4621 77.8833 59.4388 77.8267 59.4388 77.76V73.04C59.4388 72.9733 59.4621 72.9167 59.5088 72.87C59.5555 72.8233 59.6121 72.8 59.6788 72.8H60.5088C60.5821 72.8 60.6388 72.8233 60.6788 72.87C60.7255 72.9167 60.7488 72.9733 60.7488 73.04V76.94H62.8888V73.04C62.8888 72.9733 62.9121 72.9167 62.9588 72.87C63.0055 72.8233 63.0621 72.8 63.1288 72.8H63.9588C64.0321 72.8 64.0888 72.8233 64.1288 72.87C64.1755 72.9167 64.1988 72.9733 64.1988 73.04V76.94H64.6488C64.7155 76.94 64.7721 76.9633 64.8188 77.01C64.8655 77.0567 64.8888 77.1133 64.8888 77.18V78.98C64.8888 79.0467 64.8655 79.1033 64.8188 79.15C64.7721 79.1967 64.7155 79.22 64.6488 79.22H63.8188ZM67.316 78.1C66.9693 78.1 66.656 78.0333 66.376 77.9C66.096 77.76 65.8727 77.5767 65.706 77.35C65.546 77.1167 65.466 76.8567 65.466 76.57C65.466 76.1033 65.6527 75.7333 66.026 75.46C66.406 75.18 66.906 74.9933 67.526 74.9L68.896 74.7V74.49C68.896 74.21 68.826 73.9933 68.686 73.84C68.546 73.6867 68.306 73.61 67.966 73.61C67.726 73.61 67.5293 73.66 67.376 73.76C67.2293 73.8533 67.1193 73.98 67.046 74.14C66.9927 74.2267 66.916 74.27 66.816 74.27H66.026C65.9527 74.27 65.896 74.25 65.856 74.21C65.8227 74.17 65.806 74.1167 65.806 74.05C65.8127 73.9433 65.856 73.8133 65.936 73.66C66.016 73.5067 66.1427 73.36 66.316 73.22C66.4893 73.0733 66.7127 72.95 66.986 72.85C67.2593 72.75 67.5893 72.7 67.976 72.7C68.396 72.7 68.7493 72.7533 69.036 72.86C69.3293 72.96 69.5627 73.0967 69.736 73.27C69.9093 73.4433 70.036 73.6467 70.116 73.88C70.196 74.1133 70.236 74.36 70.236 74.62V77.76C70.236 77.8267 70.2127 77.8833 70.166 77.93C70.1193 77.9767 70.0627 78 69.996 78H69.186C69.1127 78 69.0527 77.9767 69.006 77.93C68.966 77.8833 68.946 77.8267 68.946 77.76V77.37C68.8593 77.4967 68.7427 77.6167 68.596 77.73C68.4493 77.8367 68.2693 77.9267 68.056 78C67.8493 78.0667 67.6027 78.1 67.316 78.1ZM67.656 77.15C67.8893 77.15 68.0993 77.1 68.286 77C68.4793 76.9 68.6293 76.7467 68.736 76.54C68.8493 76.3267 68.906 76.06 68.906 75.74V75.53L67.906 75.69C67.5127 75.75 67.2193 75.8467 67.026 75.98C66.8327 76.1133 66.736 76.2767 66.736 76.47C66.736 76.6167 66.7793 76.7433 66.866 76.85C66.9593 76.95 67.076 77.0267 67.216 77.08C67.356 77.1267 67.5027 77.15 67.656 77.15Z" fill="#282828"/>
<g clip-path="url(#clip0_750_9910)">
<path d="M27.7413 54.9811C26.506 54.9146 25.2749 54.7831 24.0533 54.5873C21.0082 54.1367 17.8439 53.4405 15.1312 51.9187C12.5879 50.4883 10.7721 48.1222 11.4934 45.0725C11.7934 43.9257 12.2821 42.8375 12.9391 41.8525C20.8263 29.4486 29.1713 32.2054 32.599 32.2054C36.0267 32.2054 32.944 17.3976 45.9743 17.8513C51.5188 18.0466 57.5776 19.2502 62.3005 22.3314C65.907 24.6912 67.8858 28.4751 64.8094 32.2023C63.0375 34.3604 61.0147 36.2728 59.2491 38.4405C57.4906 40.592 55.5391 42.5768 53.4192 44.3699C48.9264 48.1933 43.7643 51.1432 38.1969 53.0687C35.227 54.08 32.1317 54.9118 28.98 54.9937C28.5817 55.0063 28.1552 55 27.7413 54.9811Z" fill="#ECEEFD"/>
<path d="M28.7164 29.0926C28.8897 30.6539 29.2143 32.1945 29.6854 33.6925C29.7889 34.0076 29.6854 34.1682 29.3718 34.1997C27.9293 34.3478 26.2734 33.4279 25.6932 32.1014C25.532 31.6699 25.4133 31.2236 25.3389 30.7687C24.9312 28.9351 25.7967 27.3031 27.5341 26.7013C27.6027 26.6904 27.6683 26.6656 27.7271 26.6284C27.7858 26.5912 27.8364 26.5424 27.8757 26.4849C27.915 26.4274 27.9423 26.3625 27.9558 26.2941C27.9693 26.2256 27.9688 26.1552 27.9543 26.087C27.8542 23.9627 28.3894 21.8569 29.491 20.041C30.6871 18.0051 32.4817 16.3916 34.6278 15.4222C34.7183 15.395 34.7951 15.3343 34.8428 15.2525C34.8906 15.1706 34.9056 15.0737 34.885 14.9811C34.8252 14.2359 34.9856 13.4896 35.346 12.8355C35.4347 12.6762 35.5331 12.5226 35.6408 12.3756C36.0099 11.8381 36.4853 11.3829 37.0372 11.0381C37.5892 10.6934 38.2059 10.4665 38.849 10.3718C40.0562 10.1827 41.2905 10.4426 42.3206 11.1027C42.5246 11.2439 42.7166 11.402 42.8945 11.5753C43.7694 12.4008 44.4625 13.683 44.3402 14.9149C44.3152 15.0354 44.3369 15.1609 44.4011 15.2658C44.4652 15.3707 44.5669 15.4469 44.6852 15.4789C46.1532 16.1492 47.4621 17.1262 48.5247 18.3448C49.5873 19.5634 50.3792 20.9955 50.8475 22.5457C51.196 23.7165 51.3403 24.9391 51.274 26.1594C51.2618 26.2195 51.2619 26.2815 51.2743 26.3416C51.2866 26.4017 51.311 26.4587 51.3458 26.509C51.3807 26.5594 51.4254 26.6021 51.4772 26.6346C51.529 26.6671 51.5868 26.6888 51.6472 26.6982C52.172 26.8637 52.6485 27.1558 53.035 27.5491C53.4215 27.9423 53.7063 28.4247 53.8644 28.954C54.0996 29.6975 53.9051 30.4316 53.8048 31.1752C53.5413 33.0655 51.8008 34.1115 50.3551 34.1871C50.211 34.1793 50.0688 34.2231 49.954 34.3108C49.8391 34.3986 49.7589 34.5245 49.7279 34.666C48.9588 36.8943 47.7298 38.9342 46.1215 40.6522C44.014 42.8229 41.5334 44.0737 38.4225 43.6295C37.8889 43.5376 37.3643 43.3995 36.8544 43.2168C36.816 43.2076 36.7799 43.1908 36.748 43.1673C36.7162 43.1438 36.6894 43.1141 36.6693 43.08C36.6491 43.046 36.6359 43.0081 36.6306 42.9688C36.6252 42.9296 36.6277 42.8896 36.6381 42.8513C36.6745 42.7776 36.7357 42.7191 36.8109 42.6863C36.886 42.6534 36.9703 42.6483 37.0489 42.6717C37.1709 42.6972 37.2905 42.733 37.4064 42.7788C38.5743 43.1523 39.8176 43.2206 41.0191 42.9773C42.6513 42.6274 44.1472 41.8087 45.3249 40.6207C47.3163 38.7303 48.5613 36.3548 49.4363 33.7713C50.1228 31.6974 50.534 29.5417 50.6593 27.3598C50.697 26.7297 50.6593 26.1216 50.6593 25.4694C46.7204 25.753 43.0074 25.3119 40.0563 22.2873L39.219 23.2325C37.6761 25 35.7945 26.2823 33.4675 26.7801C32.0083 27.0549 30.5226 27.1606 29.0394 27.0951H28.5314C28.5972 27.8072 28.6411 28.4499 28.7164 29.0926ZM50.1137 33.5885C50.2846 33.5868 50.4552 33.5752 50.6248 33.5539C52.2273 33.2388 52.9612 32.3629 53.325 30.5451C53.4746 29.8947 53.3866 29.212 53.0768 28.6214C52.7671 28.0309 52.2563 27.5719 51.6378 27.3283C51.5343 27.2842 51.4245 27.2558 51.2646 27.2023C51.1425 29.3703 50.756 31.5151 50.1137 33.5885ZM27.9543 27.2275C27.4115 27.3433 26.917 27.6234 26.5374 28.0301C26.1579 28.4368 25.9114 28.9505 25.8312 29.5022C25.7798 30.2881 25.9063 31.0756 26.2013 31.8053C26.5808 32.8135 27.8791 33.6106 29.0237 33.5665C28.4261 31.5017 28.0673 29.3747 27.9543 27.2275Z" fill="#282828" stroke="#282828" strokeWidth="2" stroke-miterlimit="10"/>
<path d="M19.1735 43.2168C19.8007 44.1619 20.4498 45.126 21.0864 46.0807C21.7544 47.0825 22.413 48.0844 23.0904 49.0769C23.6329 49.874 24.533 50.0473 25.2448 49.4928C27.3272 47.8828 29.3782 46.2539 31.4511 44.6566C33.8878 42.7662 36.2398 40.7656 38.8365 39.0958C39.7052 38.535 39.8337 37.8355 39.2661 36.9691C38.3232 35.5514 37.3824 34.1346 36.4437 32.719C35.8604 31.8494 35.1893 31.7234 34.2923 32.3094C33.5491 32.8072 32.8215 33.3396 32.0501 33.7933C29.9771 35.0158 27.8823 36.2098 25.778 37.4102C23.7803 38.5539 21.7858 39.7101 19.7819 40.8444C18.7689 41.4146 18.5463 42.2432 19.1735 43.2168ZM34.8537 32.4228C35.061 32.3312 35.295 32.3211 35.5093 32.3946C35.7237 32.4682 35.9027 32.6199 36.0109 32.8198C36.4656 33.4814 36.9078 34.1556 37.3531 34.8236C37.9019 35.6459 38.457 36.465 38.9964 37.2936C39.1402 37.4691 39.2132 37.6924 39.201 37.9193C39.1888 38.1463 39.0923 38.3603 38.9306 38.5192C38.7455 38.7114 38.617 38.7366 38.4476 38.4783C37.8392 37.5331 37.2089 36.6131 36.5879 35.6805C35.967 34.748 35.3335 33.8122 34.7063 32.8859C34.5401 32.6371 34.6091 32.5236 34.8537 32.4228ZM38.2563 38.9635L36.6883 40.0315L32.6052 33.9446L34.1732 32.8765L38.2563 38.9635ZM32.2037 34.1682L36.3151 40.3277L25.7153 48.6263L20.5376 40.8759L32.2037 34.1682ZM20.1613 41.1374L25.3232 48.8721C24.6239 49.6377 23.9246 49.5936 23.3695 48.7618C22.0837 46.842 20.8021 44.9223 19.5247 43.0025C18.9696 42.1676 19.1891 41.506 20.1613 41.1374Z" fill="#282828" stroke="#282828" stroke-miterlimit="10"/>
<path d="M34.854 32.4228C35.0613 32.3312 35.2953 32.3211 35.5097 32.3946C35.724 32.4682 35.903 32.6199 36.0112 32.8198C36.466 33.4814 36.9081 34.1556 37.3535 34.8236C37.9023 35.6459 38.4573 36.465 38.9967 37.2936C39.1405 37.4691 39.2136 37.6924 39.2014 37.9193C39.1892 38.1463 39.0927 38.3603 38.9309 38.5192C38.7459 38.7114 38.6173 38.7366 38.4479 38.4783C37.8395 37.5331 37.2092 36.6131 36.5883 35.6805C35.9673 34.748 35.3338 33.8122 34.7066 32.886C34.5404 32.6371 34.6094 32.5236 34.854 32.4228Z" fill="#3D4EEA" stroke="#282828" stroke-miterlimit="10"/>
<path d="M20.1615 41.1374L25.3235 48.8721C24.6241 49.6377 23.9248 49.5936 23.3697 48.7618C22.0839 46.8421 20.8023 44.9223 19.5249 43.0025C18.9699 42.1676 19.1894 41.506 20.1615 41.1374Z" fill="#3D4EEA" stroke="#282828" stroke-miterlimit="10"/>
<path d="M26.4146 42.4764C26.7565 43.0057 27.2473 43.4212 27.8246 43.6699C28.4019 43.9186 29.0397 43.9895 29.6572 43.8734C30.2746 43.7574 30.8438 43.4598 31.2926 43.0182C31.7414 42.5767 32.0495 42.0111 32.1779 41.3934C32.3062 40.7756 32.2491 40.1335 32.0136 39.5485C31.7781 38.9634 31.375 38.4618 30.8553 38.1073C30.3356 37.7528 29.7228 37.5614 29.0947 37.5573C28.4666 37.5532 27.8514 37.7367 27.3272 38.0844C26.9796 38.3121 26.6801 38.6064 26.446 38.9506C26.2119 39.2947 26.0478 39.6819 25.963 40.09C25.8782 40.4981 25.8744 40.9189 25.9519 41.3284C26.0294 41.7379 26.1867 42.128 26.4146 42.4764ZM31.379 39.1871C31.686 39.6459 31.8504 40.1859 31.8513 40.7387C31.8522 41.2915 31.6894 41.8321 31.3838 42.2918C31.0782 42.7515 30.6435 43.1095 30.1349 43.3205C29.6262 43.5314 29.0667 43.5857 28.5273 43.4764C27.9879 43.3671 27.493 43.0992 27.1055 42.7068C26.718 42.3143 26.4553 41.815 26.3509 41.2723C26.2465 40.7295 26.305 40.1678 26.5191 39.6586C26.7331 39.1493 27.093 38.7154 27.553 38.4121C28.1634 38.0076 28.9082 37.8621 29.625 38.0073C30.3418 38.1525 30.9723 38.5767 31.379 39.1871Z" fill="#282828" stroke="#282828" stroke-miterlimit="10"/>
<path d="M27.553 38.4121C28.0114 38.111 28.5484 37.9531 29.0962 37.9583C29.6439 37.9635 30.1778 38.1316 30.6306 38.4414C31.0833 38.7512 31.4345 39.1888 31.6399 39.699C31.8453 40.2091 31.8956 40.769 31.7846 41.3079C31.6736 41.8468 31.4061 42.3405 31.016 42.7268C30.6259 43.1131 30.1306 43.3747 29.5927 43.4785C29.0547 43.5822 28.4983 43.5236 27.9935 43.3099C27.4887 43.0962 27.0582 42.7371 26.7564 42.2779C26.5556 41.9716 26.417 41.6286 26.3483 41.2685C26.2797 40.9083 26.2825 40.5381 26.3564 40.179C26.4304 39.8199 26.5742 39.479 26.7795 39.1758C26.9848 38.8726 27.2477 38.6131 27.553 38.4121Z" fill="#3D4EEA" stroke="#282828" stroke-miterlimit="10"/>
</g>
<defs>
<clipPath id="clip0_750_9910">
<rect width="55" height="45" fill="white" transform="translate(11.3335 10)"/>
</clipPath>
</defs>
</svg>
